<?xml version="1.0" standalone="no"?>
<!DOCTYPE svg PUBLIC "-//W3C//DTD SVG 1.1//EN" "http://www.w3.org/Graphics/SVG/1.1/DTD/svg11.dtd" >
<svg xmlns="http://www.w3.org/2000/svg" xmlns:xlink="http://www.w3.org/1999/xlink" version="1.1">
<metadata>
Created by FontForge 20171206 at Thu Mar  7 08:53:48 2019
 By fw_worker
(c) 2006 Microsoft Corporation. All Rights Reserved.
</metadata>
<defs>
<font id="Webdings" horiz-adv-x="2048" >
  <font-face 
    font-family="Webdings"
    font-weight="400"
    font-stretch="normal"
    units-per-em="2048"
    panose-1="5 3 1 2 1 5 9 6 7 3"
    ascent="1638"
    descent="-410"
    x-height="606"
    cap-height="1367"
    bbox="-3 -410 2645 1638"
    underline-thickness="100"
    underline-position="-323"
    unicode-range="U+000D-FB02"
  />
<missing-glyph horiz-adv-x="1024" 
d="M128 0v1238h768v-1238h-768zM276 148h472v942h-472v-942z" />
    <glyph glyph-name=".notdef" horiz-adv-x="1024" 
d="M128 0v1238h768v-1238h-768zM276 148h472v942h-472v-942z" />
    <glyph glyph-name=".notdef" horiz-adv-x="1024" 
d="M128 0v1238h768v-1238h-768zM276 148h472v942h-472v-942z" />
    <glyph glyph-name=".notdef" horiz-adv-x="1024" 
d="M128 0v1238h768v-1238h-768zM276 148h472v942h-472v-942z" />
    <glyph glyph-name=".notdef" horiz-adv-x="1024" 
d="M128 0v1238h768v-1238h-768zM276 148h472v942h-472v-942z" />
    <glyph glyph-name=".notdef" horiz-adv-x="1024" 
d="M128 0v1238h768v-1238h-768zM276 148h472v942h-472v-942z" />
    <glyph glyph-name=".notdef" horiz-adv-x="1024" 
d="M128 0v1238h768v-1238h-768zM276 148h472v942h-472v-942z" />
    <glyph glyph-name=".notdef" horiz-adv-x="1024" 
d="M128 0v1238h768v-1238h-768zM276 148h472v942h-472v-942z" />
    <glyph glyph-name=".notdef" horiz-adv-x="1024" 
d="M128 0v1238h768v-1238h-768zM276 148h472v942h-472v-942z" />
    <glyph glyph-name=".notdef" horiz-adv-x="1024" 
d="M128 0v1238h768v-1238h-768zM276 148h472v942h-472v-942z" />
    <glyph glyph-name=".notdef" horiz-adv-x="1024" 
d="M128 0v1238h768v-1238h-768zM276 148h472v942h-472v-942z" />
    <glyph glyph-name=".notdef" horiz-adv-x="1024" 
d="M128 0v1238h768v-1238h-768zM276 148h472v942h-472v-942z" />
    <glyph glyph-name=".notdef" horiz-adv-x="1024" 
d="M128 0v1238h768v-1238h-768zM276 148h472v942h-472v-942z" />
    <glyph glyph-name=".notdef" horiz-adv-x="1024" 
d="M128 0v1238h768v-1238h-768zM276 148h472v942h-472v-942z" />
    <glyph glyph-name=".notdef" horiz-adv-x="1024" 
d="M128 0v1238h768v-1238h-768zM276 148h472v942h-472v-942z" />
    <glyph glyph-name=".notdef" horiz-adv-x="1024" 
d="M128 0v1238h768v-1238h-768zM276 148h472v942h-472v-942z" />
    <glyph glyph-name=".notdef" horiz-adv-x="1024" 
d="M128 0v1238h768v-1238h-768zM276 148h472v942h-472v-942z" />
    <glyph glyph-name=".notdef" horiz-adv-x="1024" 
d="M128 0v1238h768v-1238h-768zM276 148h472v942h-472v-942z" />
    <glyph glyph-name=".notdef" horiz-adv-x="1024" 
d="M128 0v1238h768v-1238h-768zM276 148h472v942h-472v-942z" />
    <glyph glyph-name=".notdef" horiz-adv-x="1024" 
d="M128 0v1238h768v-1238h-768zM276 148h472v942h-472v-942z" />
    <glyph glyph-name=".notdef" horiz-adv-x="1024" 
d="M128 0v1238h768v-1238h-768zM276 148h472v942h-472v-942z" />
    <glyph glyph-name=".notdef" unicode="&#xa;" horiz-adv-x="1024" 
d="M128 0v1238h768v-1238h-768zM276 148h472v942h-472v-942z" />
    <glyph glyph-name=".notdef" horiz-adv-x="1024" 
d="M128 0v1238h768v-1238h-768zM276 148h472v942h-472v-942z" />
    <glyph glyph-name=".notdef" horiz-adv-x="1024" 
d="M128 0v1238h768v-1238h-768zM276 148h472v942h-472v-942z" />
    <glyph glyph-name=".notdef" horiz-adv-x="1024" 
d="M128 0v1238h768v-1238h-768zM276 148h472v942h-472v-942z" />
    <glyph glyph-name=".notdef" horiz-adv-x="1024" 
d="M128 0v1238h768v-1238h-768zM276 148h472v942h-472v-942z" />
    <glyph glyph-name=".notdef" horiz-adv-x="1024" 
d="M128 0v1238h768v-1238h-768zM276 148h472v942h-472v-942z" />
    <glyph glyph-name=".notdef" horiz-adv-x="1024" 
d="M128 0v1238h768v-1238h-768zM276 148h472v942h-472v-942z" />
    <glyph glyph-name=".notdef" horiz-adv-x="1024" 
d="M128 0v1238h768v-1238h-768zM276 148h472v942h-472v-942z" />
    <glyph glyph-name="uni001D" horiz-adv-x="0" 
 />
    <glyph glyph-name="uni001D" horiz-adv-x="0" 
 />
    <glyph glyph-name="uni001D" horiz-adv-x="0" 
 />
    <glyph glyph-name="uni000D" unicode="&#xd;" horiz-adv-x="1024" 
 />
    <glyph glyph-name="space" unicode=" " horiz-adv-x="1024" 
 />
    <glyph glyph-name="space" unicode="&#x9;" horiz-adv-x="1024" 
 />
    <glyph glyph-name="exclam" unicode="!" 
d="M1705 434q0 -126 -100 -339q-85 -181 -183 -311q161 491 161 589q0 30 -8 45q-18 32 -149 69q21 -43 21 -80q0 -232 -211 -568q33 134 65 269q37 170 37 270q0 75 -19 103q-17 25 -90 63q11 -64 11 -140q0 -92 -22 -180t-66 -169q-62 -111 -127 -111q-66 0 -128 111
q-45 81 -67 169t-22 180q0 76 10 140q-73 -38 -90 -63q-19 -28 -19 -103q0 -100 37 -270q33 -135 65 -269q-211 335 -211 568q0 37 22 80q-132 -37 -149 -69q-9 -15 -9 -45q0 -101 162 -589q-98 129 -184 311q-100 213 -100 339q0 39 14 57q28 36 492 156l5 10
q-202 -18 -306 -18q-67 0 -82 9q-37 21 -37 186q0 334 143 542q-48 -333 -48 -461q0 -153 44 -187q17 -13 69 -13q42 0 84 6q-61 60 -61 157q0 340 163 557q-54 -298 -54 -467q0 -190 34 -212q15 -10 51 -10q45 0 116 12q-85 49 -85 174q0 69 34 124q40 65 105 65t105 -64
q35 -56 35 -125q0 -125 -85 -174q72 -12 116 -12q37 0 52 10q34 22 34 212q0 167 -55 467q163 -217 163 -557q0 -97 -61 -157q42 -6 84 -6q53 0 69 13q44 34 44 187q0 127 -47 461q143 -209 143 -542q0 -165 -38 -186q-14 -9 -81 -9q-104 0 -307 18l5 -10q464 -120 492 -156
q14 -18 14 -57z" />
    <glyph glyph-name="quotedbl" unicode="&#x22;" 
d="M2050 809l-116 -38q-126 -232 -207 -476q-78 -233 -134 -534l81 -111l-46 -34l-60 82q-274 51 -545 51q-270 0 -544 -51l-60 -82l-46 34l81 111q-56 301 -134 534q-81 244 -207 476l-116 38l18 54l112 -36q271 148 471 295q214 158 397 353v108h57v-108
q183 -195 397 -353q200 -147 472 -295l111 36zM1850 804q-242 131 -438 274q-179 130 -360 316v-222q84 -94 278 -237q180 -133 314 -198zM1571 713q-114 58 -279 178q-150 109 -240 200v-187q69 -80 153 -142t174 -111zM1857 746l-211 -68q-62 -112 -134 -328
q-69 -207 -90 -353l127 -175q50 267 124 495q67 204 184 429zM1309 628q-78 44 -142 90q-54 38 -115 103v-276zM1570 653l-180 -59q-90 -155 -132 -372l119 -163q20 125 81 313q55 168 112 281zM995 1172v222q-181 -186 -359 -316q-197 -143 -438 -274l205 -67
q134 65 314 198q194 143 278 237zM1312 569l-248 -80l151 -208q18 84 40 157q19 59 57 131zM995 904v187q-90 -91 -240 -200q-165 -120 -279 -178l192 -62q90 49 174 111t153 142zM995 545v276q-61 -65 -115 -103q-64 -46 -142 -90zM1183 227l-159 219l-160 -219
q87 14 159 14t160 -14zM983 489l-248 80q38 -72 57 -131q22 -73 40 -157zM1343 8l-112 153q-104 22 -207 22q-104 0 -208 -22l-111 -153q132 20 318 20q187 0 320 -20zM789 222q-19 98 -51 194q-30 91 -81 178l-180 59q57 -113 112 -281q61 -188 81 -313zM1521 -237
l-131 180q-135 27 -366 27q-232 0 -367 -27l-130 -180q263 43 496 43q234 0 498 -43zM625 -3q-21 146 -90 353q-72 216 -134 328l-211 68q117 -225 184 -429q74 -228 124 -495z" />
    <glyph glyph-name="numbersign" unicode="#" 
d="M1843 612q0 -339 -240 -579t-579 -240t-579 240t-240 579t240 579t579 240t579 -240t240 -579zM1712 612q0 285 -201.5 486.5t-486.5 201.5q-255 0 -448 -165l129 -129l-91 -100l-131 132q-147 -187 -147 -426q0 -285 201.5 -486.5t486.5 -201.5q238 0 425 148l-118 117
l90 100l125 -124q166 193 166 447zM1322 291q0 -124 -87.5 -211t-210.5 -87q-124 0 -212 87t-88 211v176q-50 2 -84.5 37t-34.5 83q0 47 34.5 82t84.5 37v441q310 0 467 -111q131 -92 131 -234v-511zM1051 1060l-208 48h-69v-73zM1202 963l-81 60l-347 -38v-73zM1259 857
l-26 56l-459 -55v-60zM1272 746v56l-498 -56h498zM1272 291v415h-40q0 -107 -24 -149.5t-83 -42.5q-106 0 -106 192h-245v-415h498zM724 511v151q-73 -6 -73 -75q0 -70 73 -76zM1136 189v39h-226v-39h226zM893 592l-34 -36l-29 36h63zM987 338h-37v278h-141v34h178v-312z
" />
    <glyph glyph-name="dollar" unicode="$" 
d="M1630 835l-29 -13q1 -141 -25 -194q-65 -133 -208 -133q-183 0 -247 114q-38 68 -44 223l18 31q-31 26 -81 26t-81 -26l18 -31q-6 -155 -44 -223q-64 -114 -247 -114q-143 0 -208 133q-26 53 -25 194l-29 13v88q172 57 278 57t238 -50q54 25 100 25t100 -25
q132 50 238 50t278 -57v-88zM1282 907q-37 2 -63 -6q-30 -10 -37 -13q-16 -9 -27 -28q-12 -22 -12 -101q0 -59 25 -113q17 95 41 154.5t73 106.5zM625 907q-37 2 -63 -6q-30 -10 -37 -13q-16 -9 -27 -28q-12 -22 -12 -101q0 -59 25 -113q17 95 41 154.5t73 106.5z" />
    <glyph glyph-name="percent" unicode="%" horiz-adv-x="2028" 
d="M1885 1197q0 -142 -127 -210q-41 -22 -236 -76q-126 -35 -126 -96q0 -83 87 -83q59 0 59 68q40 0 40 -65q0 -46 -48 -70q-39 -20 -89 -20q-53 0 -87 24q-22 -166 -242 -233v-36h24v-25h47q14 -7 14 -22q0 -17 -14 -32h-45v-23h-26v-38q0 -75 13 -120q35 0 60 -6
q39 -10 39 -36q80 1 80 -89q0 -10 -62 -20q-120 -20 -233 -20q-109 0 -225 19q-65 11 -65 21q0 90 80 89q-1 26 39 36q25 6 61 6q12 43 12 114v44h-26v23h-44q-15 16 -15 32q0 15 15 22h46v25h24v36q-220 66 -241 233q-34 -24 -88 -24q-51 0 -89 20q-47 24 -47 70
q0 65 39 65q-1 -68 59 -68q88 0 88 83q0 61 -127 96q-195 54 -236 76q-127 68 -127 210q0 94 65 148q47 39 152 69q18 16 30 47h50q7 -65 124 -64l2 24q79 75 446 75t447 -75l2 -24h20q97 0 104 64h50q11 -31 30 -47q104 -30 151 -69q66 -54 66 -148zM1745 1235
q0 111 -122 111q-132 0 -121 -130l-36 -19l-46 84q-34 -142 -49 -323q38 31 146 71q114 41 155 71q73 52 73 135zM1372 1423q-8 14 -167 30q-136 13 -189 13q-116 0 -276 -24q-31 -4 -78 -16q-2 -1 -3 -3q0 -11 94 -23q138 -17 262 -17q72 0 190 9q160 13 167 31zM1403 1388
q-6 -1 -110 -25q-21 -5 -21 -25q0 -76 -1 -229t-1 -229q0 -293 -223 -362q173 6 232 175q34 99 34 317q0 127 13 197q20 97 77 181zM991 556q-139 72 -139 408q0 69 6.5 189.5t6.5 189.5l-55 8q18 -70 18 -134q0 -29 -2.5 -86t-2.5 -86q0 -466 168 -489zM984 518
q-93 28 -143 150q-40 98 -40 212l-1 458q0 17 -22 22q-71 15 -149 28q57 -84 75 -181q14 -69 14 -197q0 -218 34 -317q58 -169 232 -175zM660 958q-16 181 -49 323l-46 -84l-36 19l1 21q5 109 -121 109q-123 0 -123 -111q0 -83 72 -135q42 -30 155 -71q108 -40 147 -71z
M319 1006q-119 57 -119 193q0 84 71 150q-49 -11 -78 -58q-25 -43 -25 -96q0 -62 46 -116q42 -49 105 -73zM1263 51h-22q-38 0 -114 -2.5t-114 -2.5q-41 0 -122.5 2.5t-121.5 2.5q106 -26 244 -26q143 0 250 26zM1764 1305q13 -42 13 -83q0 -87 -117 -169q53 0 103.5 48.5
t50.5 102.5q0 77 -50 101z" />
    <glyph glyph-name="ampersand" unicode="&#x26;" 
d="M1426 255q0 -172 -122 -294t-294 -122q-173 0 -294.5 122t-121.5 294q0 134 77 241t199 151q-44 50 -43 124q-100 24 -155 113.5t-55 224.5v382h786v-382q0 -293 -217 -336v-3q-5 -74 -45 -120q126 -42 204 -149q81 -110 81 -246zM1111 810v656h-204v-656h204zM1146 767
q-30 -3 -64 -3h-185q-15 0 -29 1q3 -71 45 -105q48 11 97 11q44 0 86 -9q43 35 50 105zM1375 250l-88 56l60 86l-103 17l23 103l-104 -24l-16 103l-86 -61l-56 90l-55 -92l-86 63l-15 -106l-105 27l28 -104l-108 -16l66 -87l-94 -55l94 -54l-66 -87l107 -15l-27 -105l104 27
l16 -108l85 65l56 -92l55 90l87 -63l17 105l103 -24l-24 102l104 18l-61 85z" />
    <glyph glyph-name="quotesingle" unicode="'" 
d="M1454 1273q-2 -124 -93 -190l-283 -208q-7 12 -25 36q-9 10 -26 25l293 219q46 34 46 112q0 99 -112 99q-47 0 -85 -25l-420 -281q-68 -46 -68 -118q0 -24 8 -48q27 -79 103 -79q64 0 142 49q7 -5 22 -21q9 -11 27 -38q-108 -64 -202 -64q-123 0 -172 123q-16 40 -16 81
q0 136 126 214l425 265q42 26 114 26q81 0 133 -38q64 -47 63 -139zM1328 451q25 -41 25 -94q0 -123 -121 -168q-46 -17 -94 -17q-97 0 -153 55l69 47q39 -34 95 -34q30 0 55 12q71 35 71 97q0 39 -30 83l-284 421q-41 62 -132 62q-17 0 -33 -4q-59 -13 -67 -59
q-10 7 -26 41q-4 18 -8 47q10 17 71 54q30 12 65 12q69 0 139 -42q64 -36 91 -80zM997 353l-67 -43l-222 340q-42 65 -62 134q15 -13 53 -37q17 -8 51 -13q4 -15 20 -48zM1454 290q-2 -123 -93 -190l-383 -279q-79 -58 -186 -58q-128 0 -183 119q-19 41 -19 82
q0 122 131 207l423 270q26 17 71 24l31 -48q11 -18 15 -34q-51 2 -92 -25l-420 -281q-72 -48 -72 -115q0 -25 12 -50q34 -73 106 -73q69 0 142 53l383 280q52 38 50 117q0 4 -12 41q3 31 1 50q-2 29 -26 77q122 -37 121 -167z" />
    <glyph glyph-name="parenleft" unicode="(" 
d="M1995 86q-75 -88 -180 -88q-166 0 -288 71q-125 72 -135 181q-167 -38 -351 -38q-378 0 -645.5 143.5t-267.5 346.5t267.5 346t645.5 143q379 0 646.5 -143t267.5 -346q0 -194 -248 -335q-2 -16 -2 -32q0 -104 81 -171t209 -78z" />
    <glyph glyph-name="parenright" unicode=")" 
d="M1920 702q0 -203 -267.5 -346.5t-646.5 -143.5q-183 0 -350 38q-10 -109 -133.5 -180.5t-289.5 -71.5q-105 0 -180 88q128 11 209 78t81 171q0 16 -2 32q-248 141 -248 335q0 203 267.5 346t645.5 143q379 0 646.5 -143t267.5 -346z" />
    <glyph glyph-name="asterisk" unicode="*" 
d="M2032 725l-241 -147l145 -226l-208 -14l84 -263l-298 127l-133 -164l-174 133l-184 -153l-183 153l-173 -133l-133 164l-298 -127l84 263l-208 14l145 226l-241 147l241 142l-149 217l212 20l-84 264l298 -127l133 163l173 -132l185 152l182 -152l174 132l133 -163
l298 127l-84 -264l212 -20l-149 -217z" />
    <glyph glyph-name="plus" unicode="+" 
d="M2032 727l-241 -147l145 -226l-208 -14l84 -264l-298 127l-133 -163l-174 132l-184 -152l-183 152l-173 -132l-133 163l-298 -127l84 264l-208 14l145 226l-241 147l241 142l-149 217l212 20l-84 263l298 -127l133 164l173 -133l185 153l182 -153l174 133l59 -72l355 263
l-195 -326l212 98l-84 -263l212 -20l-149 -217zM1652 1441q-178 -136 -545 -425l-83 223l-558 -927l553 470l96 -259z" />
    <glyph glyph-name="comma" unicode="," 
d="M1876 875q-3 -61 -74 -76q-9 62 -69 62q-40 0 -131 -46q-98 -48 -98 -82q0 -16 5.5 -47t5.5 -47q0 -58 -43 -88q-13 21 -94 185q-56 113 -113 172q17 7 34 7q28 0 71.5 -25.5t63.5 -25.5q55 0 153.5 42t142.5 42q107 0 146 -73zM1484 447q0 -87 -96 -141
q-83 -46 -219 -84q-114 -32 -228 -63l-344 -112q-242 -73 -338 -73q-46 0 -62.5 18t-16.5 65q0 8 47 38q63 40 146 118q129 122 138 130q113 97 197 202q94 127 189 254q136 161 246 161q68 0 144 -102q54 -72 93 -165l64 -120q40 -76 40 -126zM1114 901q-2 -27 -38 -88
q-25 -44 -206 -213q-218 -198 -238 -220l15 -18l255 230q193 165 274 165q11 0 21 -3q-50 37 -83 147zM1643 904q-158 -77 -200 -77q-19 0 -93 29l52 -76zM1862 867q-13 18 -27 18q-27 0 -27 -42q0 -11 3 -19q35 5 51 43z" />
    <glyph glyph-name="hyphen" unicode="-" 
d="M1470 1l-136 -255l-372 611l-330 -611l-140 281l319 574q-75 114 -127 275q-41 126 -41 175q0 142 113 274q123 145 288 145q92 0 168 -52q108 -74 108 -223q0 -224 -211 -589zM1109 1209q0 91 -95 121q-55 -37 -95 -73q-96 -87 -98 -157q-2 -61 138 -218
q150 255 150 327z" />
    <glyph glyph-name="period" unicode="." 
d="M2048 614h-1024v1024h1024v-1024zM1024 -410h-1024v1024h1024v-1024z" />
    <glyph glyph-name="slash" unicode="/" 
d="M2048 1638l-1024 -2048h-1024l1024 2048h1024z" />
    <glyph glyph-name="zero" unicode="0" 
d="M1536 -192h-1024v256h1024v-256z" />
    <glyph glyph-name="one" unicode="1" 
d="M1792 -192h-1536v1408h1536v-1408zM1664 -64v1024h-1280v-1024h1280z" />
    <glyph glyph-name="two" unicode="2" 
d="M1792 320h-384v-512h-1152v896h384v512h1152v-896zM1664 448v512h-896v-256h640v-256h256zM1280 -64v512h-896v-512h896z" />
    <glyph glyph-name="three" unicode="3" 
d="M1152 0l-640 640l640 640v-1280z" />
    <glyph glyph-name="four" unicode="4" 
d="M1408 640l-640 -640v1280z" />
    <glyph glyph-name="five" unicode="5" 
d="M1600 320h-1280l640 640z" />
    <glyph glyph-name="six" unicode="6" 
d="M1600 832l-640 -640l-640 640h1280z" />
    <glyph glyph-name="seven" unicode="7" 
d="M1602 -64l-640 640l640 640v-1280zM912 -64l-640 640l640 640v-1280z" />
    <glyph glyph-name="eight" unicode="8" 
d="M1772 576l-640 -640v1280zM1082 576l-640 -640v1280z" />
    <glyph glyph-name="nine" unicode="9" 
d="M1772 -64l-640 640l640 640v-1280zM1082 -64l-640 640l640 640v-1280zM416 -64h-128v1280h128v-1280z" />
    <glyph glyph-name="colon" unicode=":" 
d="M1772 -64h-128v1280h128v-1280zM1618 576l-640 -640v1280zM928 576l-640 -640v1280z" />
    <glyph glyph-name="semicolon" unicode=";" 
d="M1383 -64h-256v1280h256v-1280zM871 -64h-256v1280h256v-1280z" />
    <glyph glyph-name="less" unicode="&#x3c;" 
d="M1600 38h-1152v1152h1152v-1152z" />
    <glyph glyph-name="equal" unicode="=" 
d="M1600 614q0 -238 -169 -407t-407 -169t-407 169t-169 407t169 407t407 169t407 -169t169 -407z" />
    <glyph glyph-name="greater" unicode="&#x3e;" 
d="M1837 0h-202l-106 279h-446l-106 -279h-201l425 1074h211zM860 285l-77 -195l-40 105h-312l-74 -195h-156l298 752h176zM1469 433l-163 448l-161 -448h324zM695 318l-108 299l-107 -299h215z" />
    <glyph glyph-name="question" unicode="?" 
d="M1905 969q-73 -30 -141 -61q-163 -74 -273 -141q-103 -64 -226 -204l-36 6q37 44 76 82q91 91 170 138q153 92 385 188q-71 37 -132 73q-148 87 -225 155q-95 85 -230 267q-66 -35 -127 -69q-144 -84 -235 -156q-126 -99 -245 -247q45 -24 86 -51q100 -63 168 -124
q78 -71 175 -230l-56 8q-22 41 -46 77q-56 87 -111 136q-81 72 -261 177q37 46 77 90q95 104 186 176q146 115 390 241q42 -57 82 -106q96 -119 165 -181q123 -109 384 -244zM1728 978q-282 46 -465 47q3 -196 -72 -363l-93 127q23 35 40 71q41 86 47 162q-133 -9 -333 -46
l-84 51q123 22 418 52q6 185 71 299l46 -57q-43 -77 -42 -241q144 -2 354 -27zM1810 51l-793 -325l-846 325v583l714 143l28 -4q31 -36 89 -122l-341 60l-101 -23l718 -137l132 28l-99 18q28 44 100 98l399 -61v-583z" />
    <glyph glyph-name="at" unicode="@" 
d="M1879 1108q10 -35 10 -70q0 -103 -72 -175t-175 -72q-38 0 -75 11l-241 -241l547 -523l-218 -218l-524 547l-229 -230q11 -37 11 -74q0 -104 -71.5 -176t-175.5 -72q-35 0 -70 10l190 190l-187 187l-190 -190q-10 35 -10 70q0 103 72 175t176 72q35 0 70 -9l235 234
l-340 355l172 172l354 -340l246 246q-9 34 -9 69q0 105 72 177t175 72q36 0 71 -10l-190 -190l186 -187zM606 1258l-171 -171l-33 33l171 171zM1168 1230q-63 25 -130 25q-101 0 -166 -64l-374 -374l39 -39l-142 -143l-239 239l142 142l44 -43l372 372q77 76 165 76
q148 0 289 -191z" />
    <glyph glyph-name="A" unicode="A" 
d="M1987 598h-108v-183h-75v183h-329v-183h-74v183h-109v68h109v176h-109v68h109v162h74v-162h329v162h75v-162h108v-68h-108v-176h108v-68zM1487 1167h-469v-204q-45 0 -84.5 -46t-39.5 -102q0 -58 27 -97t71 -39t71.5 39t27.5 97h45q0 -74 -42 -126.5t-102 -52.5
q-59 0 -101 52.5t-42 126.5q0 60 38.5 112.5t89.5 70.5v169h-817v304h1327v-304zM2048 -410h-2048v952h263v-702h346v702h775v-141h108v141h294v-141h109v141h153v-952zM589 -142h-303v1292h303v-1292zM1444 1208v222l-252 -111zM1346 1430h-411l205 -87zM1804 666v176h-329
v-176h329zM1346 1208l-206 87l-205 -87h411zM1089 1319l-252 111v-222zM801 1208v222l-252 -111zM703 1430h-411l206 -87zM703 1208l-205 87l-206 -87h411zM446 1319l-252 111v-222zM549 1116h-223l111 -252zM549 606v412l-87 -206zM413 812l-87 206v-412zM549 542l-112 219
l-111 -219h223zM549 508h-223l111 -252zM549 -2v412l-87 -206zM413 204l-87 206v-412zM549 -99l-112 252l-111 -252h223z" />
    <glyph glyph-name="B" unicode="B" 
d="M2048 -410h-200q0 150 -303 221q-148 35 -562 72q-303 26 -303 70q0 86 421 124h-222q-470 -37 -470 -134q0 -85 202 -125l374 -66q202 -52 202 -162h-1187v952h144v143l-36 -30l-74 106l244 189v47l-32 -26l-67 95l458 354l138 -107v107h126v-205l122 -95l138 107
l59 -46l287 223l154 -119v119h139v-228l213 -165l-74 -106l-36 29v-392h145v-952zM1975 1009l-197 155v220h-97v-146l-174 137l-268 -208l112 -87v147h172v-281l130 -99h140v-218h-85l-13 -18l-44 36v-164h225v512l57 -47zM1739 739l-244 191v272h-119v-180l-215 169
l-580 -452l52 -75l70 58v-632h176v449h220v-449h518v632l70 -58zM1005 1107l-125 96v199h-86v-132l-157 123l-423 -329l38 -55l50 43v-83l240 185l154 -119v119h139v-179zM813 958v176h-97v-146l-174 137l-470 -366l43 -61l56 47v-513h143v365h178v-365h177v147h-74v218h74
v50l-44 -36l-92 131zM1515 270h-288v269h288v-269z" />
    <glyph glyph-name="C" unicode="C" 
d="M2048 -410h-2048v952h139v300h289v-150h45v513h178v-427h41v710h410v-632h117v236h126v206h223v-630h82v188h254v-314h144v-952zM1487 1154v120h-48v-120h48zM1419 1154v120h-48v-120h48zM1798 711v120h-48v-120h48zM1730 711v120h-48v-120h48zM1419 1008v120h-48v-120
h48zM1730 565v120h-48v-120h48zM971 1320v120h-48v-120h48zM882 1320v120h-48v-120h48zM791 1320v120h-48v-120h48zM882 1156v120h-48v-120h48zM1620 350v120h-48v-120h48zM791 1156v120h-48v-120h48zM1551 350v120h-48v-120h48zM791 995v120h-48v-120h48zM1551 204v120h-48
v-120h48zM631 1060v119h-48v-119h48zM540 1060v119h-48v-119h48zM930 621v120h-48v-120h48zM839 621v120h-48v-120h48zM540 895v120h-48v-120h48zM1124 181v120h-48v-120h48zM839 457v120h-48v-120h48zM1055 181v120h-48v-120h48zM1055 36v120h-48v-120h48zM308 686v120h-48
v-120h48zM475 479v120h-48v-120h48zM225 686v120h-48v-120h48zM407 479v120h-48v-120h48zM407 333v120h-48v-120h48z" />
    <glyph glyph-name="D" unicode="D" 
d="M2048 -410h-200q0 150 -343 241q-145 39 -636 113q-343 52 -343 105q0 86 421 140h-271q-421 -37 -421 -150q0 -101 242 -166l448 -104q242 -69 242 -179h-1187v953h417v243l-55 -45l-113 161l775 599l235 -181v181h212v-347l325 -252l-113 -161l-55 45v-243h420v-953z
M1738 899l-301 236v335h-147v-222l-266 209l-717 -558l65 -93l86 72v-679h218v60l271 219v-279h640v679l86 -72zM1461 467l-262 214l84 72h178v-286zM1559 371l-130 -166l-410 333l165 135zM1517 962l-913 -740l-129 165l905 730zM994 825l-167 -132l-310 252l136 156z
M1142 421h-37v31zM816 682l-140 -112v183h54zM1429 984q0 56 -55 56t-55 -56q0 -55 55 -55t55 55zM1481 348q0 55 -55 55t-55 -55t55 -55t55 55zM715 968q0 55 -55 55q-56 0 -56 -55t56 -55q55 0 55 55zM663 364q0 56 -55 56q-56 0 -56 -56q0 -55 56 -55q55 0 55 55z" />
    <glyph glyph-name="E" unicode="E" 
d="M829 1150q0 -125 -91.5 -213.5t-220.5 -88.5t-220.5 88.5t-91.5 213.5t91.5 213t220.5 88t220.5 -88t91.5 -213zM2048 -410h-2048v952q33 1 66 6q79 12 148 41q75 32 152 111l225 -51q66 -29 143 -107q52 1 99 6q112 12 181 41q76 32 152 111l225 -51q67 -29 143 -107
v255h-197q-33 0 -69 35t-36 75v319q0 82 63 82q65 0 65 -82v-255q0 -64 81 -64h93v503q0 83 64 83q63 0 63 -83v-627h43q62 0 62 64v152q0 83 64 83q63 0 63 -83v-216q0 -40 -36 -75t-69 -35h-127v-131h387v-952zM1223 513q2 11 2 22q0 61 -46 117q12 -39 12 -79
q0 -36 -12 -63q-35 -77 -158 -108q54 5 95 18q97 30 107 93zM423 513q2 11 2 22q0 61 -46 117q12 -39 12 -79q0 -36 -12 -63q-36 -77 -159 -108q55 5 95 18q97 30 108 93z" />
    <glyph glyph-name="F" unicode="F" 
d="M2048 -410h-2048v953h176v689l391 -244v244l389 -244v244l379 -244l171 453h353v-898h189v-953zM1818 199v1208h-272l-187 -501l-358 240v-240l-389 240v-240l-394 240v-947h1600zM1640 421h-356v332h356v-332zM1194 421h-356v332h356v-332zM749 421h-356v332h356v-332z
" />
    <glyph glyph-name="G" unicode="G" 
d="M1763 1053h-1478l739 245zM2048 -410h-2048v952h400l7 348h-29v136h1292v-136h-29l7 -348h400v-952zM1605 1080l-581 191l-581 -191h1162zM1629 132l-15 758h-73l-15 -758h103zM1643 917v82h-1238v-82h1238zM1260 132l-15 758h-73l-15 -758h103zM891 132l-15 758h-73
l-15 -758h103zM1898 -75v60h-66v60h-66v60h-1484v-60h-66v-60h-66v-60h1748zM522 132l-15 758h-73l-15 -758h103z" />
    <glyph glyph-name="H" unicode="H" 
d="M2048 -410h-200q0 150 -343 241q-145 39 -636 113q-343 52 -343 105q0 86 421 140h-271q-421 -37 -421 -150q0 -101 242 -166l448 -104q242 -69 242 -179h-1187v953h417v243l-55 -45l-113 161l775 599l235 -181v181h212v-347l325 -252l-113 -161l-55 45v-243h420v-953z
M1738 899l-301 236v335h-147v-222l-266 209l-717 -558l65 -93l86 72v-679h218v554h271v-554h640v679l86 -72zM1461 421h-356v332h356v-332z" />
    <glyph glyph-name="I" unicode="I" 
d="M1542 893l-133 -56l-352 66l-412 206l-108 237l652 21l39 -17zM952 948l-307 -527l-39 18l304 530zM2048 -410q-635 42 -635 217q0 53 127 97q119 38 237 77q128 52 128 123q0 55 -128 88q-108 29 -245 30q-437 5 -437 -87q0 -25 75 -53t75 -52q0 -36 -193 -36
q-50 0 -172 4q-112 3 -162 2q-574 -8 -574 -130q0 -41 104 -85t104 -90q0 -54 -152 -84q-95 -18 -200 -21v952q346 54 544 54q82 0 134 -4l-89 -157l59 -28l102 175q61 -9 132 -9q88 0 291 23q198 22 317 21q199 -2 558 -75v-952zM1769 100q0 -56 -149 -106
q-138 -40 -276 -81q-150 -49 -151 -103q-4 -140 552 -220h-360q-91 26 -156 53q-156 64 -158 125q0 4 1 13.5t1 15.5q0 77 -201 80q-103 1 -190 -11q-100 -14 -100 -38q0 -35 134.5 -68.5t134.5 -67.5q0 -94 -231 -102h-300q307 32 307 102q0 37 -150 77t-150 73
q0 45 138 62q94 11 346 14q172 3 352 23q239 27 239 68q0 38 -71.5 65t-71.5 37q0 60 283 55q227 -3 227 -66zM986 180l-232 33l57 80l-180 -57l-225 54l156 -83l-163 -63l249 19l106 -116l-3 116z" />
    <glyph glyph-name="J" unicode="J" 
d="M2048 -410h-2048v952h422q248 69 601 69q65 0 127 -2q-29 314 -107 556q-69 -14 -128 -68q-96 -90 -125 -269q-31 108 -31 200q0 116 55 162q41 34 134 58q-37 3 -83 4q-74 1 -212 -28q118 155 212 155q52 0 138 -44q-9 34 -27 79q-9 24 -42 72q76 20 118 18t115 -22
q-20 -16 -53 -61q-6 -15 -7 -45q85 83 169 76q104 -9 193 -209q-121 108 -193 102q-48 -4 -114 -69q294 7 297 -214q2 -88 -86 -232q-4 77 -17 135q-29 133 -104 183q-37 25 -127 32q23 -60 44 -128l-62 -11l2 -16l65 13q18 -57 33 -114l-64 -9l-1 -17l69 6q15 -57 28 -114
l-66 -9l-1 -17l69 5q9 -44 24 -122l-76 -4l-1 -17l80 1l4 -25q47 -4 92 -9l49 43l-22 -47q143 -19 235 -47h422v-952zM1352 581q-39 5 -79 8l3 -23q3 -20 5 -48zM1855 359q0 71 -131 130q-127 58 -339 88l-29 -61l78 26l-68 -67q-45 -30 -141 -26q-69 2 -116 33l-38 99
l87 -65q-4 51 -7 82q-63 3 -128 3q-345 0 -589 -71t-244 -171t244 -170.5t589 -70.5q344 0 588 70.5t244 170.5z" />
    <glyph glyph-name="K" unicode="K" 
d="M1901 618h-110v-224h-58v224h-441v-224h-59v224h-123v414h123v52h59v-52h441v52h58v-52h110v-414zM2048 -410h-2048v952h1214v-162h97v162h401v-162h97v162h239v-952zM1881 639v369h-747v-369h747zM1950 -365l-919 880h-29l-922 -880h1870zM1860 657h-703v187h703v-187z
M1028 407h-23l12 49zM1058 297h-77l18 75h38zM1116 93h-195l44 150h105zM1222 -320h-407l81 300h245zM1729 677l-196 141h-42l-186 -141h424zM1557 697h-81l36 97z" />
    <glyph glyph-name="L" unicode="L" 
d="M1360 1028q0 -161 -83 -261q-89 -108 -247 -108q-165 0 -270 143q-96 130 -96 300q0 348 321 348q158 0 270 -134q105 -126 105 -288zM1086 488l-34 13l-15 114h-16l11 -108h-12q-30 0 -72 -20q-46 -21 -55 -44l-35 167q-126 6 -225 120q-102 118 -102 272q0 148 53 228
q30 47 163 159q-111 -119 -111 -284q0 -176 94 -311q106 -151 275 -151h60zM1178 -157q0 -34 -29 -60t-66 -26q-39 0 -70 29q-27 25 -30 51l-82 572q-5 32 41 56q43 23 96 23q36 0 54 -33l75 -540zM1328 1031q0 147 -97 261q-102 121 -246 121q-290 0 -290 -315
q0 -155 88 -273q96 -130 245 -130q144 0 225 98q75 91 75 238zM1306 1020q0 -212 -191 -298q120 136 120 288q0 148 -93 245.5t-240 102.5q44 19 96 19q130 0 222 -115q86 -108 86 -242zM1140 1052q0 -84 -82 -157q10 79 10 112q0 57 -39 118q-15 23 -79 101q75 -3 131 -51
q59 -51 59 -123zM832 867q-41 14 -67 85q-22 58 -22 112q0 66 34 105q36 -132 55 -302z" />
    <glyph glyph-name="M" unicode="M" 
d="M2048 -410h-2048v952q95 0 151 46q26 21 65 83q29 45 58 45t83 -16t111 -16q62 0 174 148q98 138 195 275q111 149 167 149q26 0 77.5 -35t81.5 -37q41 -4 126 12q90 16 100 16q70 0 207 -173q121 -161 242 -323q139 -174 210 -174v-952zM1268 1178q-89 -17 -140 0
q-22 7 -57 33q-31 23 -42 23q-35 0 -35 -30q0 -28 22 -48q18 -16 62 -16q72 0 190 38zM1757 796q-43 55 -137 180q-76 107 -167 184q-1 -16 -10 -28q-21 -30 -74 -36q-15 -1 -29 -1q-30 0 -71 11.5t-71 11.5q-35 0 -84 -9.5t-74 -9.5q-20 0 -41 3q-45 8 -45 57q0 27 14 60
q-21 -15 -44 -39q-55 -57 -114 -149q-65 -101 -191 -268q112 117 201 116q56 -1 88 -61q21 -56 41 -112q24 -60 60 -61q64 -2 77 61l22 118q29 64 132 64q40 0 123.5 -52t119.5 -51q21 1 21 25q0 12 -8 46t-8 48q0 35 34 35q37 0 101.5 -112.5t106.5 -112.5q34 0 34 42
q0 18 -7 40zM470 666q-60 0 -105 15q-55 18 -90 18q-5 -49 51 -56q49 -6 144 23z" />
    <glyph glyph-name="N" unicode="N" 
d="M1881 662q-77 -139 -189 -237q-269 -238 -668 -238t-669 238q-112 98 -190 237q78 139 190 238q270 238 669 238t668 -238q112 -99 189 -238zM1718 662q-49 86 -119 154q-168 162 -414 203q107 -46 172 -141q66 -98 66 -216q0 -117 -64.5 -213t-169.5 -143
q362 62 529 356zM1340 662q0 128 -93 219t-224 91q-69 0 -131 -28l-33 75q-363 -62 -531 -357q49 -86 118 -153q167 -161 410 -203q-105 47 -169 143t-64 213q0 71 25 138l80 -25q-22 -55 -22 -113q0 -129 93 -219.5t224 -90.5t224 90.5t93 219.5zM1263 662
q0 -97 -70.5 -166t-169.5 -69q-100 0 -170 69t-70 166q0 43 15 83l245 -111l-115 243q45 20 95 20q99 0 169.5 -69t70.5 -166z" />
    <glyph glyph-name="O" unicode="O" 
d="M1321 891q0 -96 -78 -260l-59 24q71 145 71 238q0 129 -67 219q-76 102 -207 102q-94 0 -157.5 -69t-65.5 -168q315 -184 317 -368q1 -78 -42 -154l-84 -136q-16 -36 -53 -106q-35 -56 -94 -56q-83 0 -83 102q0 27 19 71t19 70q0 23 -17 63.5t-16 75.5q4 92 92 88
q82 -4 77 -106q-3 -56 -70 -97q1 -50 -21 -96q-18 -38 -20 -62q-5 -51 25 -51q35 0 52 40q9 30 35 88l80 124q40 70 37 141q-4 140 -244 291q30 -117 150 -213l-37 -44q-188 123 -188 325q0 136 81.5 222t207.5 86q172 0 261 -115q79 -101 79 -269zM1473 915
q2 -181 -104 -344q-109 -145 -218 -291q-35 -52 -68 -144q-45 -121 -58 -150q-73 -153 -259 -156q-193 -3 -193 269q0 87 19 175h61q-13 -123 -13 -155q0 -230 132 -230q119 1 181 93q24 35 83 195q34 93 69 147q100 135 199 270q105 156 103 313q-2 220 -92 329
q-102 123 -329 125q-220 1 -315 -175q-66 -122 -66 -313q0 -70 9 -129h-66q-10 64 -10 140q0 208 77 342q112 195 368 195q264 0 382 -135q106 -122 108 -371z" />
    <glyph glyph-name="P" unicode="P" 
d="M2048 -410h-563q364 215 364 458q0 149 -368 214q-156 27 -684 63q-368 25 -368 78q0 86 420 139h402v160h-457l401 293h-252l308 296h-159l253 204l252 -204h-159l308 -296h-252l402 -293h-458v-160h610v-952zM1185 48q0 -164 -466 -327q-195 -68 -467 -131h-252v952
h578q-420 -36 -420 -149q0 -101 266 -139q248 -27 495 -55q266 -42 266 -151z" />
    <glyph glyph-name="Q" unicode="Q" 
d="M2048 -410h-2048v952h387l240 500l227 -500h397v160h-457l401 293h-252l308 296h-159l253 204l252 -204h-159l308 -296h-252l402 -293h-458v-160h610v-952zM1071 0l-444 1001l-470 -1001h298v292q0 64 38 118q47 69 134 69q86 0 134 -69q37 -54 37 -118v-292h273z" />
    <glyph glyph-name="R" unicode="R" 
d="M2048 -410h-2048v952q85 0 268.5 109.5t266.5 109.5q100 0 185 -63q66 -58 132 -117q78 -62 163 -62q99 0 256 74.5t280 74.5q70 0 225 -63t272 -63v-952zM1950 -365l-921 880h-29l-920 -880h1870zM1093 443h-30l-9 15h26zM1146 381h-42l-21 33h43l20 -21v-12zM1230 291
h-69l-29 45h71l27 -27v-18zM1383 128h-115l-54 84h118l51 -47v-37zM1040 443h-53l7 15h39zM1068 381h-109l16 33h78zM1669 -206h-189l-130 206h192l127 -124v-82zM974 458l-9 -15h-30l12 15h27zM1499 -344h-84l-394 836h8l470 -756v-80zM1109 291h-190l19 45h152zM945 414
l-21 -33h-42v12l20 21h43zM1182 128h-336l38 84h260zM895 336l-29 -45h-69v18l28 27h70zM1334 -206h-640l96 206h448zM814 212l-54 -84h-115v37l51 47h118zM1007 492l-395 -836h-83v80l469 756h9zM678 0l-131 -206h-188v82l127 124h192zM1117 404q-3 4 -9 4q-9 0 -7 -4
q3 -3 10 -3q8 0 6 3zM1138 393l-3 3h-36l2 -3h37zM1188 324q-3 5 -13 5q-12 0 -10 -5q3 -5 14 -5q12 0 9 5zM1219 309l-4 4h-63l3 -4h64zM1311 192q-5 8 -23 8q-21 0 -17 -8q4 -9 23 -9q22 0 17 9zM1367 165l-6 6h-113l5 -6h114zM1547 -53q-10 19 -50 19q-46 0 -37 -19
t51 -19q47 0 36 19zM1640 -124l-15 15h-192l11 -15h196zM1057 393l-3 3h-80l-3 -3h86zM1440 -265l-412 752l387 -775v23h25zM1094 309l-2 4h-156l-2 -4h160zM923 404q1 4 -7 4q-7 0 -10 -4q-2 -3 7 -3q7 0 10 3zM929 396h-36l-3 -3h37zM1156 165l-3 6h-279l-2 -6h284z
M858 324q2 5 -10 5q-10 0 -13 -5t10 -5q11 0 13 5zM875 313h-62l-4 -4h63zM753 192q4 8 -17 8q-19 0 -23 -8q-5 -9 16 -9q20 0 24 9zM1276 -124l-7 15h-510l-7 -15h524zM999 487l-411 -751h24v-24zM779 171h-112l-7 -6h115zM563 -53q9 19 -37 19q-39 0 -50 -19t36 -19
q42 0 51 19zM595 -109h-193l-14 -15h196z" />
    <glyph glyph-name="S" unicode="S" 
d="M2048 1154h-177v-73q51 -42 51 -92q0 -60 -73 -109v-119l23 14h68q-45 -52 -91 -87v-98l23 14h68q-45 -52 -91 -87v-102l23 14h68q-162 -189 -468 -206v80q66 6 122 17v92q-58 -10 -122 -14v80q66 6 122 17v88q-58 -10 -122 -14v80q66 6 122 17v114q-257 -64 -579 -64
q-293 0 -576 64v-111q67 -14 133 -20v-80q-71 4 -133 16v-88q59 -12 133 -19v-80q-71 4 -133 16v-91q67 -14 133 -20v-80q-306 17 -468 206h69l11 -7v104q-41 33 -80 78h69l11 -7v100q-41 33 -80 78h69l11 -7v106q-76 50 -76 115q0 45 33 83v179l164 -82q79 28 188 48v173
l193 -96h-177v-74q231 41 502 41v172l194 -97h-177v-75q265 -1 486 -46v156l194 -97h-177v-62q224 -47 324 -119v158zM2048 -410h-450l-315 480q66 8 118 35q58 32 59 70q135 0 304 79q184 86 238 196h-107v92h153v-952zM1423 164q0 -18 -18 -24q-51 -52 -110 -52
q-31 0 -72 20q-48 24 -47 51h-314q-20 -62 -135 -62q-65 0 -96 44q-16 7 -16 23v478q0 15 27 15l122 -15q124 -13 255 -13q130 0 255 13l123 15q26 0 26 -25v-468zM1529 -410h-1022l342 534h343zM754 74l-308 -484h-446v952h150v-92h-102q32 -102 209 -190q169 -83 315 -83
q24 -103 182 -103zM1792 731v116q-57 -28 -137 -51v-116q70 19 137 51zM1588 1157q-133 29 -324 45l-91 -294q151 -5 253 -23zM1792 560v91q-60 -33 -137 -54v-88q70 19 137 51zM1792 385v95q-60 -33 -137 -54v-92q70 19 137 51zM1215 1205q-127 9 -198 9q-72 0 -178 -7
l45 -299q127 4 260 1zM1833 1014q0 84 -200 132l-185 -265l65 -18q-185 -37 -496 -37q-252 0 -441 34l31 12l-193 277q-214 -49 -214 -135q0 -121 356 -179q230 -38 461 -38q224 0 460 39q356 60 356 178zM855 907l-74 296q-188 -15 -322 -43l169 -282q84 22 227 29z
M1399 631l-2 1l-121 -15q-121 -13 -257 -13q-168 0 -379 28v-468l10 -6q23 -36 77 -36q48 0 110 30v240q0 13 14 13q29 0 85.5 -3.5t85.5 -3.5q28 0 82.5 3.5t82.5 3.5q14 0 14 -13v-240l9 -3q38 -36 85 -36q48 0 103 51zM270 1156h-113v-67q41 37 113 67zM378 684v111
q-81 22 -137 48v-106q65 -32 137 -53zM378 512v88q-76 21 -137 58v-92q70 -35 137 -54zM378 338v91q-76 21 -137 58v-96q65 -32 137 -53zM1673 948l-50 16l38 38zM1404 1081l-4 -37l-60 4l9 42zM1058 1060h-73v43h73v-43zM715 1048l-60 -4l-4 37l55 9zM1150 443h-261
q0 48 43 77q37 24 89 24q50 0 87 -25q42 -29 42 -76zM439 956l-51 -8l31 46z" />
    <glyph glyph-name="T" unicode="T" 
d="M1571 1104h-138l-55 40h146v147l47 -56v-131zM1647 942l-189 142h132v156l-69 85l-170 15l17 39q15 22 49 22q49 0 88 -21t86 -72l56 -264v-102zM1279 1345q-101 8 -173.5 12t-181.5 2l72 185q20 30 78 29q99 -3 180 -73zM1740 683q-118 38 -206 77q-64 29 -166 84v285
l322 -245v-84l50 -38v-79zM1504 1309v-145h-158v-307q-252 156 -354 220q-204 128 -471 162v85q285 20 471 19q194 -2 512 -34zM1850 635q-1 -56 -7 -91q-7 -44 -18 -75q-159 -75 -357 -128q-174 -47 -346 -47q-258 0 -306 -4q-172 -16 -295 -139l-41 595q-17 238 -101 485
q185 8 415 -81q132 -51 332 -178q239 -153 324 -196q187 -94 400 -141zM459 689q-24 72 -98 188q-85 134 -96 214q-1 10 -1 20q0 85 82 118q60 -154 86 -323q15 -97 27 -217zM2048 -410h-2048v952h471l14 -277q-63 55 -116 62q-43 5 -88 -16q-40 -21 -79 -41
q-24 -12 -41 -10q-47 2 -108 23v-31q47 -19 111 -23q25 -1 94 38q65 36 110 30q79 -10 125 -93l8 -116q146 161 316 176q30 2 187 -39q165 -43 266 -41q90 3 251 35v29q-157 -35 -256 -35q-111 0 -302 54l191 -1q167 4 309 46q201 61 376 145q4 14 12 43q4 16 9 42h188v-952
zM1457 1192v78h-284v-78h284zM1655 828q0 39 -22 39q-21 0 -21 -39t21 -39q22 0 22 39zM1562 887q0 42 -23 42t-23 -42q0 -43 23 -43t23 43zM1459 956q0 47 -25 47t-25 -47t25 -47t25 47zM1144 1192v78h-290v-78h290zM832 1192v78h-273v-24q34 -6 97 -19q37 -9 117 -35h59z
" />
    <glyph glyph-name="U" unicode="U" 
d="M2033 677q0 -297 -180 -549q88 188 88 423q0 219 -71 407q-87 228 -251 313q200 -64 309 -224q105 -156 105 -370zM1850 644q0 -238 -144 -439q70 150 70 338q0 175 -57 325q-69 183 -201 251q160 -51 247 -180q85 -124 85 -295zM1685 610q0 -191 -116 -352
q57 121 57 271q0 140 -46 260q-55 146 -160 201q127 -41 196 -142.5t69 -237.5zM1505 417q0 -111 -21 -195q-32 -132 -105 -132q-19 0 -83 43q-78 53 -298 88q-182 30 -319 30q-38 0 -38 -61q0 -21 16 -59.5t16 -60.5t26 -49t26 -43q0 -4 -2.5 -12t-2.5 -12q0 -14 23.5 -40
t23.5 -45q0 -9 -7.5 -23t-7.5 -22q0 -12 12 -27.5t12 -21.5q0 -18 -48 -18q-105 0 -148 62q-27 38 -51 159q-47 226 -160 226q-4 0 -12 -1.5t-12 -1.5q-128 0 -128 234q0 134 131 193q68 25 203 79q142 60 311 184q158 115 223 197q26 138 109 138q98 0 189 -216
q61 -146 93 -307q29 -145 29 -286zM275 212q-108 7 -153 28q-71 35 -71 127q0 91 57 135q2 2 134 71q-47 -53 -47 -162q0 -132 80 -199zM1249 484q0 106 -36 199q-40 104 -110 146q38 -356 117 -534q29 88 29 189zM1248 193q-88 134 -140 339q-48 189 -48 365l13 114
q-67 -87 -184 -163q-106 -63 -211 -127q-124 -77 -124 -179q0 -89 32 -154q40 -80 118 -93q5 -1 110 -5q249 -10 434 -97zM200 254q-39 109 -39 171q0 43 11 73l-23 -6q-12 -46 -12 -98q0 -43 35 -140h28zM145 260q-36 86 -36 123t8 92l-28 -19q-7 -40 -7 -75q0 -46 38 -112
z" />
    <glyph glyph-name="V" unicode="V" 
d="M1765 426q0 -111 -21 -195q-32 -132 -105 -132q-19 0 -83 43q-78 53 -298 88q-182 30 -319 30q-37 0 -37 -61q0 -21 16 -59.5t16 -60.5t25.5 -49t25.5 -43q0 -4 -2.5 -12t-2.5 -12q0 -14 23.5 -40t23.5 -45q0 -9 -7.5 -23t-7.5 -22q0 -12 12.5 -27.5t12.5 -21.5
q0 -18 -48 -18q-106 0 -149 62q-26 38 -51 159q-46 226 -159 226q-5 0 -13 -1.5t-12 -1.5q-128 0 -128 234q0 134 131 193q68 25 203 79q142 60 311 184q159 115 223 197q27 138 109 138q98 0 189 -216q62 -146 93 -307q29 -145 29 -286zM535 221q-108 7 -153 28
q-71 35 -71 127q0 91 58 135q2 2 134 71q-48 -53 -48 -162q0 -132 80 -199zM1510 493q0 106 -36 199q-41 104 -111 146q39 -356 118 -534q29 88 29 189zM1509 202q-89 134 -141 339q-48 189 -48 365l14 114q-68 -87 -185 -163q-105 -63 -211 -127q-124 -77 -124 -179
q0 -89 32 -154q40 -80 118 -93q6 -1 111 -5q248 -10 434 -97zM460 263q-39 109 -39 171q0 43 11 73l-22 -6q-13 -46 -13 -98q0 -43 35 -140h28zM405 269q-36 86 -36 123t8 92l-28 -19q-7 -40 -7 -75q0 -46 39 -112z" />
    <glyph glyph-name="W" unicode="W" horiz-adv-x="1100" 
d="M900 341h-298l-470 -434v1455l471 -435h297v-586z" />
    <glyph glyph-name="X" unicode="X" horiz-adv-x="1100" 
d="M900 -93l-470 434h-298v586h298l470 435v-1455z" />
    <glyph glyph-name="Y" unicode="Y" 
d="M1794 886q0 -320 -401 -653q-279 -231 -692 -428q15 79 15 151q0 186 -118 338q-110 122 -221 243q-118 148 -118 324q0 173 116.5 284.5t290.5 111.5q119 0 221 -62q111 -68 141 -177q122 239 360 239q160 0 280 -104q126 -109 126 -267z" />
    <glyph glyph-name="Z" unicode="Z" 
d="M1713 1246q-31 -23 -59 -68q-22 -39 -45 -78q-100 -156 -209 -156q-100 0 -103 92q112 102 197 111q-100 -65 -146 -123q3 -40 50 -40q106 0 235 237q-29 7 -61 7q-222 0 -277 -161q-4 11 -4 25q0 85 88 134q73 41 165 41q63 0 169 -21zM1611 762q0 -47 -25 -91
q-26 -48 -60 -48q-39 0 -75 55q-32 51 -32 93q0 61 50 61q43 0 43 -43q0 -22 -15 -43q-6 47 -27 47q-14 0 -14 -18q0 -27 20 -66q22 -44 46 -44q20 0 36 35q14 32 14 61q0 41 -24 73.5t-56 32.5q-21 0 -36 -5q29 40 54 40q34 0 67.5 -45.5t33.5 -94.5zM1181 1137
q0 -20 -21 -51q0 81 -99 81q-42 0 -76 -25t-34 -58t87 -33q53 0 53 20q0 17 -27 17q-11 0 -27 -4q22 32 49 32q44 0 44 -41q0 -63 -89 -63q-41 0 -81 16q-52 20 -52 55q0 47 49 85t104 38q37 0 73 -15q47 -20 47 -54zM1510 590l-15 -17q-77 16 -153 31q-80 19 -123 95
q-18 32 -18 65q0 72 69 118q61 40 136 40q16 0 25 -1q-50 -31 -50 -118q0 -96 129 -213zM1250 982q0 -72 -32 -120q-38 -57 -106 -57q-13 0 -25 2q-84 14 -131 84q-41 66 -82 133l12 19q114 -58 185 -58q49 0 94 25q50 28 59 73q26 -52 26 -101zM1558 201q-30 24 -81 39
l-88 24q-209 66 -209 194q0 69 67 90q128 -82 158 -161q-38 31 -75 61q-48 38 -82 49q-27 -9 -27 -43q0 -108 278 -180l13 -3q0 63 -33 134.5t-80.5 109.5t-121.5 44q21 14 52 14q74 0 133 -67q51 -57 72 -136q16 -60 24 -169zM1158 678q0 -35 -51 -55q-40 -15 -81 -15
q-89 0 -89 63q0 42 44 42q27 0 48 -33q-16 4 -27 4q-26 0 -26 -18q0 -20 54 -20q85 0 85 34t-37.5 59t-72.5 25q-97 0 -99 -82q-19 28 -19 46q0 33 36 53.5t83 20.5q52 0 100 -36q52 -39 52 -88zM1192 619q-19 -23 -63 -102q-34 -59 -69 -83q-47 -33 -105 -33q-68 0 -105 57
q-33 49 -33 120q0 49 26 101q9 -45 59 -73q44 -25 94 -25q73 0 185 58zM880 849q0 -10 -2 -18q-61 139 -240 139q-69 0 -110 -15q140 -216 247 -216q55 0 54 45q-17 22 -157 109q87 -1 207 -93v-4q0 -44 -31.5 -70.5t-76.5 -26.5q-102 0 -208 138l-52 74q-32 42 -65 62
q126 37 190 37q104 0 170 -40q74 -45 74 -121zM848 387q-97 -103 -251 -207q-160 -107 -287 -150l-9 36q115 37 275 145q155 105 240 200zM928 314q-262 -304 -382 -520l-35 14q118 210 384 526zM906 368q-139 -166 -568 -521l-20 33q199 159 359 306q140 129 197 204z" />
    <glyph glyph-name="bracketleft" unicode="[" 
d="M2014 1q0 -41 -58 -65q-44 -18 -92 -18q-49 0 -93 18q-58 24 -58 65q0 42 58 66q44 18 93 18q48 0 92 -18q58 -24 58 -66zM2003 840q0 -89 -46 -139q34 -28 34 -69q0 -98 -127 -141q9 -21 9 -41q0 -41 -29 -67t-68 -22q90 -51 90 -139q0 -77 -70 -126q-63 -45 -143 -45
t-143 44q-70 49 -70 126q-29 -33 -78 -33q-81 0 -86 38q-21 -67 -94 -67q-72 0 -123 59q-11 -57 -89 -57t-102 59q-29 -51 -147 -51q-62 0 -91 92q-30 -38 -118 -38q-89 0 -100 118q-45 -51 -102 -51q-35 0 -62 36q-24 33 -24 70q0 26 11 50q-20 -4 -44 -4q-71 0 -71 36
q0 51 27 115q-47 -2 -77 27t-30 77q0 86 102 105q-35 50 -35 129q0 37 30 64t68 27q33 0 52 -24q-2 7 -2 19q0 41 25.5 76t65.5 35q45 0 91 -30q-1 4 -1 11q0 30 20.5 51t49.5 21q32 0 75 -51q2 45 33.5 72t76.5 27q108 0 116 -56q40 67 126 67t78 -54q104 54 169 54
q64 0 67 -67q83 48 150 48t72 -89q40 30 161 30q72 0 72 -50q0 -28 -18 -57q44 16 81 16q50 0 82.5 -31.5t32.5 -81.5q0 -27 -19 -35q51 2 91 -15q51 -22 51 -68z" />
    <glyph glyph-name="backslash" unicode="\" 
d="M2048 -410h-1024l-1024 2048h1024z" />
    <glyph glyph-name="bracketright" unicode="]" 
d="M2008 697q0 -48 -30 -77t-77 -27q27 -64 27 -115q0 -36 -71 -36q-24 0 -44 4q11 -24 11 -50q0 -37 -24 -70q-27 -36 -63 -36q-56 0 -101 51q-11 -118 -100 -118q-88 0 -118 38q-29 -92 -91 -92q-118 0 -147 51q-24 -59 -102 -59t-89 57q-51 -59 -123 -59q-73 0 -94 67
q-5 -38 -86 -38q-49 0 -78 33q0 -77 -70 -126q-63 -44 -143 -44t-143 45q-70 49 -70 126q0 88 90 139q-39 -4 -68 22t-29 67q0 20 9 41q-127 43 -127 141q0 41 34 69q-46 50 -46 139q0 46 51 68q40 17 91 15q-19 8 -19 35q0 50 32.5 81.5t82.5 31.5q37 0 81 -16
q-18 29 -18 57q0 50 72 50q120 0 161 -30q5 89 72 89t150 -48q3 67 67 67q65 0 169 -54q-8 54 78 54t126 -67q8 56 116 56q45 0 76.5 -27t33.5 -72q43 51 75 51q29 0 49.5 -21t20.5 -51q0 -7 -1 -11q46 30 91 30q40 0 65.5 -35t25.5 -76q0 -12 -2 -19q19 24 52 24
q38 0 68 -27t30 -64q0 -79 -35 -129q102 -19 102 -105zM335 1q0 -41 -58 -65q-44 -18 -93 -18q-48 0 -92 18q-58 24 -58 65q0 42 58 66q44 18 92 18q49 0 93 -18q58 -24 58 -66z" />
    <glyph glyph-name="asciicircum" unicode="^" 
d="M2024 1048q0 -210 -212 -344q-5 -35 -5 -65q0 -89 54 -150q6 -7 113 -96q-177 -4 -275 63q-74 50 -119 158q-71 -14 -144 -14q-81 0 -171 25q-35 131 -149 237q-122 114 -259 124q-9 39 -9 62q0 182 172 303q169 117 416 117t416 -117q172 -121 172 -303zM1225 563
q0 -185 -172.5 -316t-416.5 -131q-118 0 -225 34q-33 -203 -230 -203q-67 0 -159 54q83 9 135 70.5t52 156.5q0 14 -1 29q-160 129 -160 306q0 184 172 309q169 123 415 123q245 0 417.5 -124t172.5 -308z" />
    <glyph glyph-name="underscore" unicode="_" 
d="M2024 1114q0 -210 -212 -344q-5 -35 -5 -65q0 -89 54 -150q6 -7 113 -96q-177 -4 -275 63q-74 50 -119 158q-71 -14 -144 -14q-81 0 -171 26q-35 130 -149 237q-122 113 -259 123q-9 39 -9 62q0 183 172 303q169 117 416 117t416 -117q172 -120 172 -303zM1856 233
q0 -126 -146 -223.5t-372 -127.5q-50 -143 -160 -200q-93 -49 -259 -49q174 72 174 240q-221 12 -385.5 91t-211.5 192q2 0 62.5 -7t113.5 -7q194 0 341 89q222 136 252 361q223 0 384 -75q207 -96 207 -284zM1225 629q0 -185 -172.5 -316t-416.5 -131q-118 0 -225 34
q-33 -203 -230 -203q-67 0 -159 54q83 9 135 70.5t52 156.5q0 15 -1 29q-160 129 -160 306q0 184 172 309q169 123 415 123q245 0 417.5 -124t172.5 -308z" />
    <glyph glyph-name="grave" unicode="`" 
d="M1761 772h-122v219q0 57 -21 79.5t-78 22.5h-384v-138l-185 185l185 211v-135h424q78 0 129.5 -52t51.5 -131v-261zM1903 570h-135v-357q0 -79 -51.5 -130.5t-130.5 -51.5h-491v122h448q57 0 80 21t23 79v317h-139l185 185zM949 1079h-448q-58 0 -81.5 -21t-23.5 -79
v-206h141l-206 -186l-192 186h135v246q0 79 52.5 130.5t131.5 51.5h491v-122zM1065 87l-185 -192v135h-424q-79 0 -130.5 52t-51.5 131v358h122v-316q0 -57 21.5 -79.5t78.5 -22.5h384v138z" />
    <glyph glyph-name="a" unicode="a" 
d="M1408 640l-576 -576l-320 320v384l320 -319l576 575v-384z" />
    <glyph glyph-name="b" unicode="b" 
d="M1778 311q0 -129 -91 -220t-219 -91q-129 0 -220 91t-91 220q0 93 50.5 169t132.5 113l-24 62l-340 -407l-90 9q-19 -110 -105.5 -183.5t-200.5 -73.5q-128 0 -219 91t-91 220q0 128 91 219t220 91q63 0 120 -24l75 166l-27 76l5 2l-19 56q-33 0 -54 6q-35 9 -35 32
q0 43 30 43q16 0 45 -7.5t41 -7.5q14 0 37 3t29 3q17 0 17 -22q0 -7 -33 -25t-55 -23l19 -51l4 3l20 -55h466l-39 107v35h180v-35h-146l108 -298q48 16 99 16q129 0 219.5 -90.5t90.5 -219.5zM1744 311q0 114 -81 195t-195 81q-43 0 -88 -15q49 -137 79 -214l23 -57
q0 -12 -13 -12q-15 0 -36 56l-81 216q-160 -74 -160 -250q0 -114 81 -195t195 -81t195 81t81 195zM1305 690l-27 73h-465l168 -460zM951 286l-159 433l-61 -137q160 -89 160 -271v-20zM856 295v16q0 160 -140 240l-104 -233zM852 260l-292 27l127 278q-53 22 -106 22
q-114 0 -195 -81t-81 -195t80.5 -195t194.5 -81q101 0 177.5 64t94.5 161z" />
    <glyph glyph-name="c" unicode="c" 
d="M2048 -410h-2048v2048h2048v-2048zM1920 -282v1792h-1792v-1792h1792z" />
    <glyph glyph-name="d" unicode="d" 
d="M1729 874q0 -400 -198 -674q-190 -263 -507 -338q-317 75 -507 338q-198 274 -198 674q0 146 62 279q48 104 114 166q147 -91 291 -91t238 89q94 -89 238 -89t291 91q66 -62 114 -166q62 -133 62 -279z" />
    <glyph glyph-name="e" unicode="e" 
d="M1215 1348q0 -57 -210 -154q0 57 33 128q39 84 89 84q23 0 54 -17q34 -20 34 -41zM1599 1125h-442q70 17 134 70q15 12 70 75t66 80l-64 24q-60 -140 -104 -172q-111 -82 -243 -77h-1q63 16 152 82q102 74 102 125t-44 82q-39 27 -92 27q-73 0 -116 -74q-34 -60 -38 -141
q-19 77 -61 134q-53 73 -119 73q-104 0 -104 -85q0 -49 117 -120l160 -96q-108 30 -319 99q-69 26 -121 114l-48 -74q97 -74 236 -103q128 -22 255 -43h-566l75 60h79q-40 26 -121 75l74 138q48 -53 95 -106q54 -52 125 -64q-71 48 -71 120q0 55 41 86q36 29 93 29
q117 0 174 -172q41 180 160 180q66 0 114 -36q52 -39 52 -103q0 -81 -147 -151q88 10 130 81q5 9 60 149l122 -53l-153 -175h213zM951 1195q-54 23 -112 72q-71 59 -71 101q0 41 47 41q49 0 91 -84q30 -59 45 -130zM1696 0h-646v1029q-10 26 -21 59h615l52 -43v-1045zM989 0
h-705v1029l76 59h622l7 -49v-1039z" />
    <glyph glyph-name="f" unicode="f" 
d="M1721 1339l-216 -106l198 137zM1590 1464l-135 -165l104 183zM1738 1151l-241 17l241 19v-36zM1388 1495l-17 -194l-19 194h36zM1459 1147h-103l14 105h68zM1661 755l-116 -103v31l84 72h-47v284h-37v15h116v-299zM1305 1173l-86 -24v24h86zM1305 1187h-86v49h-390v-49
h-87v145h87v-45h390v45h86v-145zM1202 1187h-357v35h357v-35zM1202 1149h-357v24h357v-24zM696 1495l-19 -194l-17 194h36zM829 1149l-87 24h87v-24zM592 1299l-134 165l31 18zM691 1147h-103l21 105h68zM543 1233l-217 106l18 31zM550 1168l-240 -17v36zM1561 202h-29v-44
h-48v-158h-180v104q-54 1 -62 54h-438q-7 -53 -61 -54v-104h-180v158h-48v44h-29v62h29l-1 802q0 24 24 46q21 21 40 21h890q20 0 42 -21.5t22 -45.5v-802h29v-62zM502 652l-116 103v299h116v-15h-36v-284h-47l83 -72v-31zM1498 755v299h-442v-299h442zM1503 285v114h-160
v-114h160zM991 755v299h-442v-299h442zM1355 165q0 51 -50 51q-51 0 -51 -51q0 -50 51 -50q50 0 50 50zM1304 361v38h-561v-38h561zM1304 285v38h-561v-38h561zM1550 210v41h-1053v-41h199q19 20 46 20t46 -20h471q18 20 46 20q27 0 46 -20h199zM704 285v114h-160v-114h160z
M793 165q0 51 -51 51q-50 0 -50 -51q0 -50 50 -50q51 0 51 50z" />
    <glyph glyph-name="g" unicode="g" 
d="M2048 -410h-2048v2048h2048v-2048z" />
    <glyph glyph-name="h" unicode="h" 
d="M998 1244h-136l27 125h88zM1850 123h-47v86q0 99 -67 169.5t-161 70.5t-160.5 -70.5t-66.5 -169.5l-1 -86h-621v1098h1124v-1098zM1766 198q0 -82 -55.5 -140t-132.5 -58q-78 0 -133 58t-55 140t55 140t133 58q77 0 132.5 -58t55.5 -140zM691 329q-64 120 -188 120
q-94 0 -160.5 -70.5t-66.5 -169.5v-86h-100v528q0 82 105 82h39l101 245q21 50 75 50h195v-699zM691 198q0 -82 -55 -140t-133 -58t-133 58t-55 140t55 140t133 58t133 -58t55 -140zM1644 655v287h-202v202h-287v-202h-203v-287h203v-203h287v203h202zM658 733v242h-205
l-92 -242h297z" />
    <glyph glyph-name="i" unicode="i" 
d="M1843 612q0 -339 -240 -578.5t-579 -239.5t-579 239.5t-240 578.5t240 579t579 240t579 -240t240 -579zM1709 612q0 284 -200.5 485t-484.5 201t-485 -201t-201 -485t201 -484.5t485 -200.5t484.5 200.5t200.5 484.5zM1192 1034q0 -65 -49.5 -111t-118.5 -46
q-70 0 -119 46t-49 111t49 111t119 46q69 0 118.5 -46t49.5 -111zM1161 0h-275v780h275v-780z" />
    <glyph glyph-name="j" unicode="j" 
d="M1329 851l-22 -31q-116 12 -250 31l-2 2q0 4 33 12zM1914 517q-61 -59 -84 -58q-54 3 -846 32q-37 -13 -72 -23q-83 -22 -145 -23q-179 -2 -263 48q66 -1 75 26q3 7 3 14q0 46 -65 61q-62 14 -82 -27q-11 -22 3 -37q-12 6 -25 35q-6 69 229 148q89 119 187 114
q105 -6 260 -29q126 -19 194 -17q28 1 179 287q27 1 41 -2q11 -3 29 -8l-47 -217l307 -31q-4 -8 -21 -17q-40 -1 -301 9l-24 -87q-26 -25 -103 -90q-33 -25 -97 -56zM570 697q-27 -9 -83 -35q-22 -13 -58 -43q-113 65 -292 164q-5 3 -5 6q0 14 131 21zM551 526
q0 -27 -79 -27q-34 0 -34 21q0 53 65 50q48 -3 48 -44zM1055 668l-21 89l-77 10l36 -108zM966 654l-31 113l-12 -120zM916 772q-76 25 -131 25q-22 0 -37 -4q-32 -9 -87 -81q29 -1 101 -10q65 -13 139 -48z" />
    <glyph glyph-name="k" unicode="k" 
d="M1865 1008l-216 -364l-516 53l147 166zM1428 1243l-193 -242l-198 -38l117 202zM930 794q6 -11 -11 -21q-20 -11 -26 -1l-162 281q-28 -1 -42 23q-23 39 17 62q41 24 64 -15q14 -25 -2 -48zM1195 902q0 -41 -62 -104.5t-159 -119.5q-156 -90 -260 -90q-67 0 -67 44
q0 89 199 211l44 -76q8 -13 30 0q24 14 17 27l-44 76q147 85 235 76q67 0 67 -44zM1433 501q7 -12 7 -27q0 -48 -60.5 -114t-156.5 -121q-142 -83 -247 -82q-61 0 -80 33l-88 149l114 249l-239 -53l-17 53q11 -19 52 -19q105 0 265 92q98 57 161 120.5t63 101.5q0 9 -3 15
l28 -49l-142 -164l253 -24zM1509 243q5 -9 5 -20q0 -84 -173 -184q-118 -68 -203 -68q-46 0 -60 24q-7 13 -7 42q0 50 23 120q47 19 137 61q80 47 132 95l59 -17q72 -28 87 -53zM689 763l-118 -160l-405 -110l259 242zM881 551l-217 -476l-462 -19l461 447zM1119 932
q-55 0 -134 -34q55 17 98 17q63 0 63 -31q0 -34 -63 -102q93 82 93 120q0 30 -57 30zM1417 487l-94 163l-33 1l117 -208q21 25 10 44zM922 793l-164 281q15 24 10 36q-15 31 -42 26q13 -4 28 -29q2 -12 -13 -30l174 -295zM1361 296q98 -81 98 -84q0 -27 -59 -86
q-51 -51 -167 -114q32 11 100 44q58 34 110.5 87.5t52.5 80.5q0 47 -135 72z" />
    <glyph glyph-name="l" unicode="l" 
d="M1901 611l-705 -166l-176 -710l-166 706l-710 175l706 166l175 711l166 -707zM1152 778l-122 541v-666zM1735 609h-665l124 -123zM976 618l-125 123l-541 -123h666zM1016 -92v666l-123 -125z" />
    <glyph glyph-name="m" unicode="m" horiz-adv-x="1144" 
d="M674 1391h-217v23q19 2 44 25q6 24 2 53h125q4 -14 0 -39t46 -41v-21zM651 1359q-5 -40 -32 -40q-17 0 -31.5 14.5t-20.5 14.5q-7 0 -18.5 -15t-24.5 -14q-24 2 -42 40q31 19 90 19q63 0 79 -19zM844 1180l-62 -465l-49 16l-65 -502h-195l-79 502l-51 -16l-43 465l205 58
l-29 -44l64 -180l23 195l-19 29h60l-19 -29l16 -195l70 180l-30 47zM667 182q13 -156 -48 -156q-38 0 -44 84q-7 -84 -50 -84q-55 0 -42 157l14 -1q-8 -44 28 -46q27 -1 33 23q2 10 -1 24l16 -1q1 -3 2 -14q0 9 1 15l13 -1q-6 -44 30 -46q27 -1 32 23q3 10 0 24zM820 -221
q0 -33 -71.5 -52.5t-177.5 -19.5t-176 19q-73 20 -73 53t73 57t176 24t176 -24t73 -57z" />
    <glyph glyph-name="n" unicode="n" 
d="M2048 613q0 -424 -299 -723.5t-723 -299.5t-725 299.5t-301 723.5t301 724.5t725 300.5t723 -300.5t299 -724.5z" />
    <glyph glyph-name="o" unicode="o" 
d="M1896 213q-65 -71 -198 -213h-1544v96h102l80 90h256v84h94q42 33 42 71q0 39 -39 79l-1 26h374l-70 160h21l70 -160l13 -2l164 -164h323l59 -92q152 18 240 35zM1163 340l-57 57h-210l1 -57h266z" />
    <glyph glyph-name="p" unicode="p" 
d="M1757 1259l-254 -124l233 161zM1514 1396l-157 -234l121 255zM1796 1021l-282 20l282 22v-42zM1247 1439l-20 -281l-22 281h42zM1761 628l-86 -56l-42 123h128v-67zM944 1439l-22 -281l-20 281h42zM1479 982h-814v112h814v-112zM792 1162l-157 234l36 21zM646 1135
l-254 124l21 37zM1701 236h-34v-51h-56v-185h-211v122q-63 1 -72 63h-512q-9 -62 -71 -63v-122h-211v185h-57v51h-34v72h34v186q0 99 155 424q176 31 440 31t441 -31q154 -325 154 -424v-186h34v-72zM635 1041l-282 -20v42zM512 695l-42 -123l-86 56v67h128zM1460 1002v75
h-254v-75h254zM1633 334v132h-187v-132h187zM939 1002v75h-254v-75h254zM1597 617q-12 42 -45 134q-22 51 -70 136q-140 20 -410 20q-269 0 -409 -20q-23 -41 -70 -136q-21 -47 -46 -134q241 11 525 11q285 0 525 -11zM1460 194q0 59 -59 59t-59 -59t59 -59t59 59zM1400 422
v44h-655v-44h655zM1400 334v43h-655v-43h655zM1688 246v47h-1232v-47h234q21 23 53 23t54 -23h551q21 23 53 23t54 -23h233zM699 334v132h-187v-132h187zM802 194q0 59 -59 59t-59 -59t59 -59t59 59z" />
    <glyph glyph-name="q" unicode="q" 
d="M1654 728q0 -161 -66 -304q-70 -149 -196 -241l111 -87l-357 -96l33 355l100 -79q155 137 155 381q0 313 -298 489l126 245q184 -89 290 -275q102 -178 102 -388zM890 245l-126 -245q-183 89 -289 275q-103 178 -103 388q0 161 67 304q70 149 195 241l-111 88l357 95
l-33 -355l-100 79q-155 -137 -155 -381q0 -313 298 -489z" />
    <glyph glyph-name="r" unicode="r" 
d="M1702 -96h-192l-480 474l-474 -474h-198v192l474 480l-474 474v198h198l474 -474l480 474h192v-198l-474 -474l474 -474v-198z" />
    <glyph glyph-name="s" unicode="s" 
d="M1600 1094q0 -192 -249 -343q-135 -82 -135 -216v-209h-384v192q0 111 61.5 212.5t160.5 146.5q162 74 162 217q0 81 -55.5 136.5t-136.5 55.5t-136.5 -55.5t-55.5 -136.5v-114h-384v114q0 183 206 293q170 91 370 91q201 0 371 -91q205 -109 205 -293zM1216 -58
q0 -81 -55.5 -136.5t-136.5 -55.5t-136.5 55.5t-55.5 136.5t55.5 136.5t136.5 55.5t136.5 -55.5t55.5 -136.5z" />
    <glyph glyph-name="t" unicode="t" 
d="M2048 -410h-2048v952h297q5 419 146 566q70 73 145 75q30 47 92 41q51 -4 108 -45q-20 -2 -46 -23l5 -10q36 30 84 30q41 0 83 -26l154 -94q43 14 93 14q96 0 165 -57l581 -471h141v-952zM1520 782v34l-85 74v-52zM1420 846v54l-97 85l-37 -53zM1307 997q-65 58 -139 58
q-25 0 -70 -14l166 -100zM1875 533l-348 -108v-61zM1816 562v6l-187 59q-2 56 -17 106l-78 50v-9l72 -45q7 -20 15 -98l-647 212q-35 11 -78 11q-41 0 -77 -9l-3 -35q39 13 85 13q39 0 76 -11l644 -192q0 -38 -2 -89h-655q-73 0 -147 -26l1 -37q29 15 149 32l658 22
q5 53 5 95zM690 1157q0 55 -47 55t-47 -55t47 -55t47 55zM1508 357v65l-428 -120q-70 -20 -101 -189zM793 937q0 30 -22 34q-62 11 -161 12q-13 -50 -31 -163q-21 -222 -15 -396q1 -34 42 -34q113 0 145 3q26 3 27 34q-3 85 -3 291q0 51 9 131t9 88zM524 983l-140 -7
q-16 -48 -45 -158q-35 -158 -18 -415q36 -3 108 -7q17 0 28.5 7.5t11.5 20.5q-3 240 22 399q10 61 33 160zM947 235q-78 -7 -269 -18q-64 -2 -177 5l-23 -159q128 -3 217 3q106 8 216 28zM722 270q-6 43 -12 87q-16 6 -88 4q-106 -3 -121 -3q-32 1 -103 8q-39 4 -45 -4
q-8 -11 -7 -87q42 -6 138 -15q86 -4 238 10zM449 226q-24 0 -78 6q-20 3 -56 12l-80 -138q20 -11 68 -30q34 -10 98 -11zM825 59l-169 -16l-525 -275v-52l115 1zM301 59l-67 26l-103 -32v-64zM774 882l-3 -21l-172 12l3 23zM765 770l-3 -21l-172 9l3 22zM497 901l-4 -24
l-128 -3l4 21zM758 653l-3 -21l-173 3l3 22zM756 511h-172v21h172v-21zM473 788l-1 -23l-131 -2l1 21zM465 664l-1 -22l-133 1l1 21h133zM459 518l-130 5v21l130 -5v-21zM777 43l-543 -317h-58l560 314zM269 56l-128 -51l3 19l102 41z" />
    <glyph glyph-name="u" unicode="u" 
d="M2048 -410h-2048v952h208q-3 35 -3 70q0 339 240 579t579 240t579 -240t240 -579q0 -35 -3 -70h208v-952zM1709 612q0 284 -200.5 485t-484.5 201t-485 -201t-201 -485t201 -484.5t485 -200.5t484.5 200.5t200.5 484.5zM1620 436q-60 -193 -224 -320q-168 -131 -372 -131
t-373 131q-163 127 -223 320h360v72h-98v509q0 79 82 135q93 64 252 64q158 0 251 -64q82 -56 82 -135v-509h-98v-72h361zM1322 813v203h-279v-203h279zM1324 582q0 42 -43 42q-42 0 -42 -42q0 -43 42 -43q43 0 43 43zM1005 813v203h-280v-203h280zM1202 436v72h-357v-72
h357zM809 582q0 42 -43 42t-43 -42q0 -43 43 -43t43 43z" />
    <glyph glyph-name="v" unicode="v" 
d="M1601 185h-56v-185h-213v185h-618v-185h-211v185h-56v877q0 121 142 176q138 54 435 54t435 -54q142 -55 142 -176v-877zM1540 712v350h-483v-350h483zM1543 312q0 31 -21.5 52.5t-52.5 21.5q-30 0 -52 -21.5t-22 -52.5q0 -30 22 -51.5t52 -21.5q31 0 52.5 21.5
t21.5 51.5zM991 712v350h-483v-350h483zM1332 333v44h-618v-44h618zM1332 244v44h-618v-44h618zM653 312q0 31 -21.5 52.5t-52.5 21.5t-52.5 -21.5t-21.5 -52.5q0 -30 21.5 -51.5t52.5 -21.5t52.5 21.5t21.5 51.5z" />
    <glyph glyph-name="w" unicode="w" 
d="M1344 1270l-450 -325l131 -890q-14 -20 -31 -20q-16 0 -20 28l-180 1320q-5 39 20 39q13 0 32 -152q180 -3 498 0zM1308 15q0 -64 -118 -97q-84 -24 -171 -24t-171 24q-117 33 -117 97q0 49 74 85q62 29 118 29q8 0 28.5 -64.5t58.5 -64.5q23 0 30 66.5t21 66.5
q61 0 145 -31q102 -38 102 -87zM1248 1234h-395l35 -245q136 102 360 245z" />
    <glyph glyph-name="x" unicode="x" 
d="M1843 612q0 -339 -240 -579t-579 -240t-579 240t-240 579t240 579t579 240t579 -240t240 -579zM1712 612q0 285 -201.5 486.5t-486.5 201.5q-255 0 -448 -165l970 -970q166 193 166 447zM1449 72l-966 966q-147 -187 -147 -426q0 -285 201.5 -486.5t486.5 -201.5
q238 0 425 148z" />
    <glyph glyph-name="y" unicode="y" 
d="M1024 -207q-339 0 -579 240t-240 579q0 340 239.5 579.5t579.5 239.5q339 0 579 -240t240 -579t-240 -579t-579 -240zM1710 665q-20 254 -200 434q-201 201 -486 201t-487 -201q-180 -180 -199 -434h1372zM1707 531h-1366q28 -236 196 -405q202 -202 487 -202t486 202
q169 168 197 405z" />
    <glyph glyph-name="z" unicode="z" 
d="M1843 612q0 -339 -240 -579t-579 -240t-579 240t-240 579t240 579t579 240t579 -240t240 -579zM1712 612q0 285 -201.5 486.5t-486.5 201.5q-255 0 -448 -165l333 -333q238 19 258 134q2 13 2 26q0 136 -231 155q36 5 77 5q248 0 248 -164q0 -27 -7 -57
q-35 -149 -263 -183l198 -198h359v-153h-206l202 -202q166 193 166 447zM1449 72l-295 295h-529v153h376l-184 184q-140 -6 -186 -14q-85 -15 -105 -55q-5 -10 -5 -22q0 -24 17 -52q-50 38 -50 97q0 14 4 28q20 90 238 105l-247 247q-147 -187 -147 -426
q0 -285 201.5 -486.5t486.5 -201.5q238 0 425 148zM600 367h-50v153h50v-153zM527 367h-47v153h47v-153z" />
    <glyph glyph-name="braceleft" unicode="{" 
d="M2045 813l-153 -220l148 -198l-290 -65l258 -389l-644 279l-196 -158l-35 158l-247 -166l-45 185l-239 -169l-37 199l-352 -78l78 228l-287 -32l145 222l-145 156l276 145l-225 295l333 -22l10 314l317 -174l166 153l236 -180l132 193l153 -209l391 80l-99 -289l295 77
l-134 -225z" />
    <glyph glyph-name="bar" unicode="|" 
d="M1088 -410h-128v2047h128v-2047z" />
    <glyph glyph-name="braceright" unicode="}" 
d="M2045 387l-287 32l78 -228l-351 78l-38 -199l-239 169l-45 -185l-247 166l-35 -158l-196 158l-643 -279l257 389l-290 65l148 198l-153 220l190 110l-134 225l295 -77l-99 289l392 -80l153 209l131 -193l236 180l166 -153l317 174l11 -314l332 22l-225 -295l276 -145
l-145 -156z" />
    <glyph glyph-name="asciitilde" unicode="~" 
d="M1886 1479l-757 -1385l-209 398l-757 -722l770 1333l211 -346z" />
    <glyph glyph-name="Adieresis" unicode="&#xc4;" 
d="M1138 1331q0 -58 -34 -104t-81 -46t-81 46t-34 104q0 57 33.5 97.5t81.5 40.5q47 0 81 -40.5t34 -97.5zM1303 504q0 -69 -53 -69t-53 69v465h-26v-1120q0 -69 -65 -69t-65 69v663h-34v-663q0 -69 -65 -69t-65 69v1120h-26v-465q0 -69 -53 -69t-53 69v533q0 130 145 130
h269q144 0 144 -130v-533z" />
    <glyph glyph-name="Aring" unicode="&#xc5;" 
d="M1139 1317q0 -57 -33.5 -97.5t-80.5 -40.5q-48 0 -81.5 40.5t-33.5 97.5t33.5 97.5t81.5 40.5q47 0 80.5 -40.5t33.5 -97.5zM1305 349h-132v-479q0 -69 -66 -69q-65 0 -65 69v479h-33v-479q0 -69 -66 -69q-64 0 -64 69v479h-136l135 343v327h-25v-306q0 -68 -53 -68
q-54 0 -54 68v306q0 147 144 147h269q144 0 144 -147v-306q0 -68 -51 -68q-53 0 -53 68v306h-26v-327z" />
    <glyph glyph-name="Ccedilla" unicode="&#xc7;" 
d="M1115 1186q0 -45 -27 -77.5t-65 -32.5t-65 32.5t-27 77.5q0 46 27 78t65 32t65 -32t27 -78zM1327 841q9 -15 9 -31q0 -28 -34 -75l-101 -141l-34 88l84 122l-95 125v-252l38 -112l-16 -25v-133h-18v-407q0 -55 -53 -55q-52 0 -52 55v407h-18v133h-27v-133h-18v-407
q0 -55 -52 -55t-52 55v407h-19v133l-16 25l39 112v252l-96 -125l84 -122l-34 -88l-101 141q-34 47 -34 75q0 16 9 31l110 179q29 46 65 46h257q36 0 65 -46z" />
    <glyph glyph-name="Eacute" unicode="&#xc9;" 
d="M1227 1086l-26 4v22l26 4v-30zM1207 1142l-16 -30v-22l15 -29h-44l15 29v22l-16 30h46zM1168 1090q-45 1 -58 27q-19 -70 -86 -70t-86 70q-12 -26 -58 -27v22q53 2 53 55q0 37 27.5 69t63.5 32q37 0 64 -32t27 -69q0 -53 53 -55v-22zM888 1142l-16 -30v-22l15 -29h-44
l14 29v22l-15 30h46zM848 1090l-26 -4v30l26 -4v-22zM1249 383h-106v-383q0 -55 -53 -55q-52 0 -52 55v383h-27v-383q0 -55 -52 -55t-52 55v383h-108l108 274v247h-20v-229q0 -55 -42 -55q-43 0 -43 55v229q0 133 144 133h160q143 0 143 -133v-229q0 -55 -43 -55t-43 55v229
h-20v-247z" />
    <glyph glyph-name="Ntilde" unicode="&#xd1;" 
d="M1705 1095q15 -69 15 -137q0 -240 -171 -398q-30 -72 -61 -133q-74 -147 -143 -218q-86 -90 -284 -193q-173 -231 -449 -224q-130 3 -213 108q-79 101 -81 245q-3 232 240 319q29 61 59 113q71 126 130 189q71 76 225 177q19 89 52 158q78 166 208 210l-26 71l31 16
l28 -80l-1 119l35 -3l-1 -110q24 3 51 3q118 0 218 -57q114 -66 138 -175zM1667 1086q-27 110 -153 170q50 -58 54 -102q6 -70 -56 -184q-42 -76 -161 -175q28 -24 90 -82q36 -36 95 -102q146 137 146 345q0 63 -15 130zM1531 1146q0 33 -42 80q-55 62 -136 62q-36 0 -61 -3
l-2 138l-17 1l-3 -144l-36 102l-17 -6l36 -102q-123 -46 -150 -204q-2 -16 -1 -45q-15 6 -24 6q-27 0 -27 -39q0 -22 9 -67q25 -7 80.5 -26t101.5 -43q12 66 81 66q42 0 72 -47q29 31 85 110q51 90 51 161zM1363 855q-10 13 -40 28q-35 1 -50 -38l23 -12q5 13 24 26
q13 1 29 -19zM1511 578q-47 52 -92 96q-107 104 -186 148t-233 88q-44 -26 -81 -52q-91 -61 -137 -108q-82 -86 -172 -281q60 -17 110 -36q122 -47 180 -99q83 -74 164 -261q50 27 94 53q104 63 156 115q100 100 197 337zM1027 52q-22 52 -46 95q-57 105 -110 153
q-84 78 -283 139q-62 -31 -106 -71q-106 -95 -107 -217q-1 -117 75 -216t168 -98q204 2 409 215zM1483 1016q-33 -6 -52 -6q-18 0 -50 6v14q32 -5 50 -5q19 0 52 5v-14zM1373 936q-33 -5 -52 -5q-18 0 -50 5v15q32 -5 50 -5q19 0 52 5v-15zM1258 1012q-33 -5 -52 -5
q-18 0 -50 5v15q32 -5 50 -5q19 0 52 5v-15zM1166 792l-156 13l-146 -56l140 97zM700 329l-99 8l-108 -49l97 78z" />
    <glyph glyph-name="Odieresis" unicode="&#xd6;" 
d="M1639 877q0 -281 -115 -551q-99 -232 -251 -389q-143 -147 -249 -147t-249 147q-152 157 -251 389q-115 270 -115 551q0 264 154 426q165 174 461 174t461 -174q154 -162 154 -426zM1450 679q-57 -10 -103 -25q-111 -35 -153 -88q-52 -67 -56 -226q53 9 98 23
q107 33 151 83q68 77 63 233zM910 340q-1 46 -7 86q-15 94 -49 140q-62 80 -256 113q-5 -156 63 -233q65 -74 249 -106z" />
    <glyph glyph-name="Udieresis" unicode="&#xdc;" 
d="M1746 1195h-56v204h56v-204zM1679 1105h-105v388h105v-388zM474 1105h-105v388h105v-388zM358 1195h-55v204h55v-204zM1563 1278h-78q-12 -22 -314 -543v-930q0 -69 -65 -69t-65 69v594h-34v-594q0 -69 -65 -69t-65 69v930l-314 543h-78v40h64q0 26 28 42q15 9 29 9
q26 0 51 -42l5 -9h724l5 9q25 42 51 42q14 0 29 -9q28 -16 28 -42h64v-40zM1361 1278h-674l171 -286q43 -71 84 -71h164q41 0 84 71zM1138 1088q0 -58 -34 -104t-81 -46t-81 46t-34 104q0 57 33.5 97.5t81.5 40.5q47 0 81 -40.5t34 -97.5z" />
    <glyph glyph-name="aacute" unicode="&#xe1;" 
d="M1341 570q0 -51 -123 -221l-16 8q121 162 121 215q0 20 -8 35q26 -12 26 -37zM1421 902q0 -28 -21 -28q-5 0 -11 2l-116 -243q39 -21 39 -58q0 -53 -119 -213l-114 54l63 108q-59 26 -118 36q-141 25 -141 117q0 79 62 220q-15 8 -53 25q-27 13 -35 34l-516 -136
q4 -14 4 -21q0 -19 -15 -19q-16 0 -28 30l-22 -6l-5 16l24 7q-3 10 -3 22q0 19 14 19q16 0 28 -31l516 136q0 10 6 32q14 28 51 28q7 0 21 -1.5t21 -1.5q31 0 43 3l45 13q25 0 75 -6l15 34q-7 2 -20 2q-11 0 -59 -9q14 24 35 38q-51 0 -102 -26q17 38 63 53q-18 12 -48 12
q-20 0 -35 -4q27 39 44 39q47 0 70 -16q-6 13 -31.5 28.5t-40.5 15.5q-17 0 -38 -13q20 55 44 55q22 0 62 -22q-35 39 -42 88q37 -30 68 -46q-19 40 -24 92q36 -82 112 -141l71 -33q45 -21 45 -54q0 -7 -4.5 -20t-4.5 -19q0 -4 3 -10.5t3 -9.5t-9 -7.5t-8 -15.5l-7 -6l-1 -8
q-9 -16 -17 -16q-12 0 -39 11l-9 -20q25 -24 36.5 -29.5t24.5 -5.5q54 -1 95 -45q7 1 19 1q34 0 34 -31zM1208 336l-28 -44l-15 11l28 42zM1738 -124q-21 -16 -43 -16q-10 0 -17 4l-339 202q-51 33 -170 101q-7 4 -180 82l-360 163l13 26l303 -138l-283 171l10 14l339 -201
l67 116l102 -48q-31 -42 -31 -54q77 -70 77 -91q0 -9 -8 -22q0 -5 104 -53q169 -78 331 -148q26 -11 51 -11q18 0 31 5q-11 -37 -53 -37q-23 0 -108 39l-253 116l370 -217q10 -6 25 -6q11 0 22 3zM1373 883q-11 8 -166 17q-8 -41 -40 -80q-44 -53 -52 -67.5t-22 -44.5
q29 -11 86 -33q17 -7 75 -35zM330 835q-9 22 -18 22q-5 0 -4 -16q0 -5 2 -12zM337 799q0 5 -4 19l-20 -5q8 -23 18 -23q6 0 6 9z" />
    <glyph glyph-name="agrave" unicode="&#xe0;" 
d="M1688 1286l-20 -30l3 -21l-29 -31l42 2l-3 -26l-76 -15l-29 10q-5 11 -20 34q-9 10 -27 26l37 42l47 -5l44 24zM1827 449q-29 -37 -62 -68q-77 -74 -158 -109l-1124 -489q-70 -31 -126 -31t-87 29q-28 25 -23 54q20 104 83 154q48 38 133 50l140 12q89 11 175 40l452 150
l-25 50l-42 -19l-107 162q-18 28 -45 60l-37 -18q9 -32 73 -174l2 -8q0 -17 -29 -34q55 20 76 3q13 -11 21 -42l-341 -114q4 92 -18 278q-69 -28 -122 -28q-25 0 -42 7q-68 26 -59 179h-50q34 63 109 231q26 65 49 134q-34 46 -34 90q0 38 27 65t78 51l-70 -2q9 3 39 20
q11 6 30 19l-55 -12q14 8 43 30q15 13 30 35l-36 -14q7 7 25 28q14 19 20 37q-3 34 0 58q3 22 5 35h-12l-6 -55q-60 -23 -94 -23q-29 0 -29 20q0 21 25 40q23 14 45 28q28 20 72 77q32 42 61 43q17 -5 44 -8q12 3 29 13t30 10q5 0 11 -1q26 -5 68 -139l-8 -6l9 -42l-7 -14
q6 -10 23 -40q6 -9 -12 -21q6 -40 1 -49q-6 -10 -26 -24l113 47l-6 -54q67 13 210 43q71 18 194 58q87 -50 81 -94q-5 -31 -58 -66q-51 -9 -167 -36q-51 -15 -254 -84l-39 -153q225 193 281 193q31 0 99 -150l90 -208q22 -45 70 -114q41 -60 45 -72q3 -11 -6 -31
q23 12 37 11q27 -3 29 -40l-291 -98q-9 58 -76 261q-14 36 -73 146q-29 -38 -122 -124q26 -31 82 -101q39 -50 131 -149l-21 -9l55 -42l346 116q54 18 89 50zM1348 285l-39 18l6 -31z" />
    <glyph glyph-name="acircumflex" unicode="&#xe2;" 
d="M1378 1350q0 -13 -11 -13q-9 0 -22 10l10 19q23 -5 23 -16zM1257 1379l-58 12q-18 4 -50 8l-1 19q17 -1 54 -7l51 -10zM1329 1299q7 -173 -18 -215q-13 -24 -67 -21q8 16 24 54q24 73 61 182zM1102 1262q-29 16 -102 34q-13 0 -30 -12q-9 59 -9 81q2 51 49 79
q42 25 101 25q27 0 32 -55q3 -46 -7 -89.5t-34 -62.5zM1352 1375q-9 -20 -29 -71q-29 -85 -59 -171q-33 -92 -60 -92q-61 0 -193 66v-9q24 -13 81 -38q22 -8 63 -19q4 -21 10 -71q2 -38 0 -108q-11 11 -32 23q-91 0 -160 -69q-44 -46 -79 -149q-26 34 -26 67q0 80 104 181
q14 13 42 34l-8 6q-12 -9 -40 -33q-20 -17 -64 -74q-9 78 -8 123q12 316 106 316q38 0 97.5 -34t106.5 -34q32 0 55 109q5 25 6 43q0 20 -5 28q10 5 33 9q24 1 59 -33zM983 1431l-15 -16q-73 6 -141 6q-133 0 -173 -26q-12 -8 -38 -57q-24 -45 -33 -45q-31 0 -33 34
q-4 56 30 79q44 30 247 30q72 0 156 -5zM1197 -36q-11 -14 -63 -16q-30 6 -110 9q-14 -1 -39 -6q11 62 23 204q2 59 -4 163q4 24 17 78q17 61 68 182q44 103 60 189q4 21 4 58h-9q0 -18 -5 -58q-14 -83 -59 -184q-53 -122 -70 -182q-45 -161 -87 -453q-22 9 -73 22
q-25 -1 -83 -1q-79 3 -82 27q-2 13 46 132q63 155 91 243q31 121 82 299q33 94 78 142q59 62 148 64q40 0 40 -81v-431q4 -92 17 -241q11 -130 11 -149q0 -8 -1 -10zM1172 -129h-159q-4 30 1 46q4 13 16 34l110 -9l1 -21q-31 1 -47 -2.5t-41 -16.5l5 -6q20 9 67 19
q31 2 38 -3q12 -9 9 -41zM891 -129h-121l-70 55q-1 18 2 28q2 7 7 19q17 -4 57 -9q23 -1 62 3l4 -32h-26v-6q63 5 78 -21q7 -12 7 -37z" />
    <glyph glyph-name="adieresis" unicode="&#xe4;" 
d="M1243 147q18 0 41 -15t26 -32q79 8 268 93q-6 -32 -6 -47q0 -46 56 -46q131 0 231 93q-5 -15 -5 -29q0 -53 79 -63q4 -1 115 -1v-100h-2048v100l63 -1q136 -1 281 94q-8 -31 -8 -49q0 -44 57 -44q128 0 238 93q-4 -17 -4 -31q0 -62 105 -62q27 15 63 55q41 44 60 58
q-57 114 -57 240q0 57 86 114q18 12 135 74q80 42 109 42q51 0 51 -43q0 -26 -37 -39l-58 -16q-40 -16 -95 -61q-65 -51 -65 -83q0 -47 47 -104q41 -49 89 -76q-3 -11 -3 -24q0 -45 32.5 -75t78.5 -30q14 0 39 7.5t36 7.5zM1251 393q89 0 89 -81q0 -58 -54 -104.5
t-113 -46.5q-89 0 -89 81q0 58 55 106q52 45 112 45z" />
    <glyph glyph-name="atilde" unicode="&#xe3;" 
d="M1833 295q-29 -8 -63 -8q-122 0 -197 52q-96 -41 -218 -80q-291 -92 -661 -156q-273 -48 -479 -53l-2 21l349 117q38 46 78 91q96 106 187 183q104 89 252 181l-25 182q-54 -4 -210 -26q-114 -20 -282 -65l-30 13q93 43 309 133q116 44 284 95v37q-19 -4 -41 -4
q-13 0 -19 56q-7 57 2.5 84.5t142.5 43.5q54 7 289 23l-176 -55l144 8q-38 -9 -72 -22q-83 -30 -133 -70q-39 -31 -44 -80q62 16 191 44q37 6 316 49l-15 -31q-81 -24 -146 -48q-157 -57 -215 -105q-53 -44 -67 -203l160 13l-69 -285l97 -17l261 63l92 -26l-106 -55z
M1303 580q-44 -11 -87 -24q-101 -32 -174 -71q-218 -115 -320 -225l25 -25l544 140z" />
    <glyph glyph-name="aring" unicode="&#xe5;" 
d="M1194 816q-39 -11 -97 -38l49 -41q-149 -18 -230 -14q-103 6 -128 12q-70 18 -70 77q0 56 105 155l105 97q0 15 -89 31q-30 5 -85 2q-5 56 -4 89q5 189 166 193q69 3 115 -34q50 -40 50 -113q0 -107 -95 -125l9 -12l54 24q7 3 19 3q67 0 157 -96q85 -92 85 -150
q0 -24 -47 -42q-34 -9 -69 -18zM1847 292q6 -31 6 -63q0 -97 -54.5 -163t-135.5 -66q-110 0 -193 63q-74 56 -93 133q2 -21 0 -30q-7 -54 -220 -98q-173 -36 -330 -20q27 1 27 96q0 68 -15 127q-29 121 -119 282q-50 7 -148 26q-50 14 -99 29q-66 18 -138 18q-56 0 -82 -36
q-9 29 -8 46q7 154 193 304q74 59 174 102q91 39 144 40q135 5 135 -20q0 -2 -98 -94t-98 -154q0 -112 216 -114q147 -2 255 17q26 -25 50 -57q58 -77 100 -172q32 -72 47 -159q-1 35 -8 71q-15 87 -52 164q-81 170 -159 212q115 46 177 46q14 0 24 -2q23 -6 59 -93
q33 -81 51 -166q13 -86 44 -278q10 -55 56 -95t95 -40q85 0 85 103q0 70 -45 124q-47 58 -116 58q-59 0 -74 -53q-7 52 -27 171q-19 102 -67 214q100 23 203 23q132 0 141 -59q3 -20 -4 -56l-141 -41l125 19q28 4 36 -36q7 -36 -32 -42l-232 -34l2 -17l76 13q94 1 166 -60
q78 -66 101 -183zM825 274q14 -56 14 -122q0 -90 -26 -90q-23 0 -51 14q-50 -130 -193 -130q-119 0 -228.5 93.5t-140.5 225.5q-11 47 -11 91q0 134 86 198l-12 21q29 37 82 37q68 0 131 -17q47 -14 95 -28q43 -10 140 -24q25 -45 46 -88q49 -103 68 -181zM976 1226
q-30 6 -109 18q-43 6 -93 2q-4 -21 -8 -71q0 -23 6 -64q53 -3 106.5 12t95.5 52zM1124 850q0 31 -18 51.5t-42 21.5q-52 1 -82 -41l43 -3v-5q-16 1 -62 5q-11 2 -35 7q-20 4 -33 4q-23 0 -54 -21.5t-31 -40.5q0 -26 30 -42t69 -16t60 16q9 -4 27 -4q43 0 81 17q46 20 47 51z
M654 294q-15 54 -32 88q-36 -108 -72 -108q-14 0 -37 74q-30 97 -56 138q-102 -3 -102 -130q0 -91 61 -166q64 -79 153 -79q93 0 93 121q0 31 -8 62zM962 827q0 -22 -17 -22q-16 0 -16 22t16 22q17 0 17 -22z" />
    <glyph glyph-name="ccedilla" unicode="&#xe7;" horiz-adv-x="2500" 
d="M2245 180q0 -34 -14 -56q-103 80 -253 161q36 39 113 39q59 0 106.5 -43t47.5 -101zM1367 412q0 -14 -9 -48q-68 39 -68 55q0 13 53 31q24 -19 24 -38zM2392 16q-158 -26 -375 -30l-377 1h-48l15 21q-292 -12 -415 -12q-86 0 -259 9.5t-259 9.5q-29 0 -86 -8.5t-85 -8.5
l-207 11l22 9l-103 11l91 6q-72 43 -66 144q-39 4 -120 6l-20 297q43 -3 97 -3q64 0 290 14q47 -24 81 -75t32 -101l86 8q166 121 367 121q32 0 64 -3q34 96 82 96q17 0 19 -32q1 -25 -5 -43q21 35 60 35q65 0 74 -38q-68 -10 -68 -38q2 -5 5 -13q35 -38 97 -66q-3 17 16 17
t32 -42l81 31q18 -3 35 -3q42 0 84 12q28 -10 191 -34q85 -13 212 -81q123 -66 188 -130l148 25l19 -30l-26 -69l-230 -20zM2357 83l-10 7l-230 -17l-5 11l-10 9l-2 -32l20 -10zM2210 107q-95 71 -310 192l-23 -17l-65 4q175 -61 371 -202zM1810 266q-31 39 -81 39
q-58 0 -85 -32q33 22 78 22q38 0 88 -29zM1870 20l-7 31q-10 -17 -39 -31h46zM1791 151q0 39 -26.5 65t-65.5 26q-41 0 -68.5 -28t-27.5 -68q0 -94 92 -94q96 0 96 99zM1369 319q0 13 -2 23q-101 49 -101 93q0 11 26 22q14 5 27 10q0 15 -44 15q-50 0 -71 -76l21 -6l5 -18
l45 -25l12 12l66 -28l-7 -21zM1595 300l-15 13l-123 10q-21 -7 -64 -13l-349 13l-33 -35l1 -20q46 4 94 4q137 0 224 -21l7 23q41 29 125 31zM1162 428l-21 3l4 -18q0 -9 -12 -17l-85 4l-22 -27l24 -9l1 -14h16q0 -23 24 -23q23 0 53 18zM1018 413l-68 1l-22 -60l71 -1z
M1486 163q0 22 -31 20l1 19q-25 1 -42 13q-43 0 -64 -28q-30 3 -37 3q-18 0 -40 -11q-23 16 -44 16q-17 0 -40 -13l-31 13h-141l2 29h-95l-22 -12l-6 12h-45l-35 -158h271l5 13q21 -13 35 -13q9 0 41 7q24 -7 42 -7q12 0 47 7q36 -7 43 -7h136l19 81l5 -1q26 0 26 17z
M765 176l-3 58l-48 4l-2 46l-68 4l-7 -45l64 -4l-26 -63h90zM752 45l-3 54l-78 5l7 -54zM474 255q1 19 -29 39t-50 20q-16 0 -27 -8q18 -5 53 -18q15 -15 51 -35zM397 330v96l-122 -9l47 -110q36 24 75 23zM458 163q0 100 -81 100q-38 0 -65 -30t-27 -68t22.5 -68t59.5 -30
q39 0 65 28.5t26 67.5zM222 330q0 41 -38 37l-1 15l9 12q6 -2 10 -11h15v9q0 32 -27 32q-20 0 -25 -17q-6 14 -26 14q-25 0 -25 -38l4 -15h17l-2 19l7 8l9 -8q0 -4 -29 -63v-45h47l-1 17q7 -18 26 -18q30 0 30 52zM268 255l-3 11h-110v-47l92 -4q3 21 21 40zM1782 159
q0 -27 -14 -39q-29 13 -29 21q0 18 31 23l-7 16q-30 -5 -68 -25q7 2 12 2q16 0 16 -19q0 -18 -20 -18q-21 0 -18 22l-1 1q-13 -11 -40 -30l-18 3l8 -29q-22 25 -22 59q0 35 25 60.5t61 25.5q33 0 58.5 -20t25.5 -53zM1753 93q0 -18 -30 -19l-5 14v12q0 14 8 14q27 0 27 -21z
M1691 97q0 -4 -7 -25q-32 2 -32 19q0 19 26 19q13 0 13 -13zM446 167q0 -40 -18 -60l-9 27l-16 -26q-15 -1 -24 -1q-36 0 -46 31q-2 6 -8 62l-5 7l-8 -8l5 -17q-7 -26 8 -65q-31 13 -31 50q0 28 26.5 55.5t54.5 27.5q31 0 51 -25.5t20 -57.5zM201 322l-8 -17l-8 17v8l8 13
l8 -13v-8zM164 331h-10v-19h-18l28 51v-32zM1680 170l-29 5l16 -21zM413 184l-15 10l-7 -3l3 -21zM372 230l-13 3l-8 -1q-7 -4 -18 -15l5 -13q11 8 34 26z" />
    <glyph glyph-name="eacute" unicode="&#xe9;" 
d="M1761 628l-86 -56l-42 123h128v-67zM1701 236h-34v-51h-56v-185h-211v122q-63 1 -72 63h-512q-9 -62 -71 -63v-122h-211v185h-57v51h-34v72h34v186q0 99 155 424q176 31 440 31t441 -31q154 -325 154 -424v-186h34v-72zM512 695l-42 -123l-86 56v67h128zM1633 334v132
h-187v-132h187zM1597 617q-12 42 -45 134q-22 51 -70 136q-140 20 -410 20q-269 0 -409 -20q-23 -41 -70 -136q-21 -47 -46 -134q241 11 525 11q285 0 525 -11zM1460 194q0 59 -59 59t-59 -59t59 -59t59 59zM1400 422v44h-655v-44h655zM1400 334v43h-655v-43h655zM1688 246
v47h-1232v-47h234q21 23 53 23t54 -23h551q21 23 53 23t54 -23h233zM699 334v132h-187v-132h187zM802 194q0 59 -59 59t-59 -59t59 -59t59 59z" />
    <glyph glyph-name="egrave" unicode="&#xe8;" 
d="M1682 0h-1316v1156h1316v-1156zM1642 782v334h-388v-314l96 91l129 -111h163zM1642 642v116h-135zM1383 782l-31 27l-29 -27h60zM1642 397v163l-231 198h-113l-44 -41v-320h388zM1230 782v334h-414v-334h414zM1642 40v333h-388v-333h388zM1208 758h-392v-173l111 -92z
M1230 397v297l-301 -285l-113 94v-106h414zM792 782v334h-386v-334h386zM1230 40v333h-414v-333h414zM792 605v153h-386v-329l298 249zM792 397v126l-88 73l-238 -199h326zM792 40v333h-355l-31 -26v-307h386z" />
    <glyph glyph-name="ecircumflex" unicode="&#xea;" 
d="M1438 1311q0 -57 -136 -97.5t-328 -40.5t-328 40.5t-136 97.5t136 97.5t328 40.5t328 -40.5t136 -97.5zM1438 891q0 -60 -136 -112q-143 -54 -328 -54q-186 0 -328 54q-136 52 -136 112v390q0 -57 136 -97.5t328 -40.5t328 40.5t136 97.5v-390zM1438 454q0 -64 -136 -129
q-148 -71 -328 -71t-328 71q-136 65 -136 129v402q0 -59 136 -109q142 -52 328 -52t328 52q136 50 136 109v-402zM1438 -1q0 -76 -136 -142q-143 -71 -328 -71t-328 71q-136 66 -136 142v418q0 -62 136 -124q147 -67 328 -67t328 67q136 62 136 124v-418zM1371 1311
q0 43 -142 43t-142 -43t142 -43t142 43z" />
    <glyph glyph-name="edieresis" unicode="&#xeb;" 
d="M1401 1271q0 -51 -65 -138q-76 -103 -88 -135q-127 43 -242 43q-73 0 -151 -9q-94 182 -94 253q0 39 66 53q57 12 117 12l-16 -152l20 -4l56 180q41 12 160 12q69 0 142 -26q95 -34 95 -89zM1493 271q0 -139 -46 -241q-74 -163 -455 -163q-308 0 -440 142q-57 61 -57 212
q0 225 84 431q98 243 272 330q78 9 151 9q115 0 245 -44q113 -106 183 -313q63 -188 63 -363zM1125 613q-24 113 -117 133l5 42l-44 6l-5 -44q-68 -2 -111 -40q-45 -41 -45 -108q0 -84 119 -150l-26 -219q-74 19 -85 116l-78 -15q21 -146 154 -171l-8 -68l43 -6l9 70
q79 0 132 47.5t53 126.5q0 97 -142 179l20 163q47 -14 57 -76zM955 680l-17 -143q-49 33 -49 69q0 68 66 74zM1041 330q0 -91 -97 -101l25 200q72 -44 72 -99z" />
    <glyph glyph-name="iacute" unicode="&#xed;" 
d="M1892 0h-1091l-243 154q-64 -81 -196 -115q98 -96 237 -123l-5 -32q-167 32 -278 146q-54 -14 -165 -30l-1 31q54 3 147 24q-141 156 -141 346q0 117 38 202q50 113 152 113q92 0 164 -58l291 183h1091v-841zM1864 29v783h-1055l-276 -174q54 -52 80 -113q15 6 38 6
q45 0 77 -32t32 -76t-32.5 -76t-77.5 -32q-40 0 -73.5 34t-33.5 74q0 50 45 88q-28 64 -81 114l-37 -25v-357q129 -79 339 -214h1055zM527 175l-85 53v387l43 28q-68 37 -136 37q-156 0 -156 -283q0 -177 139 -329q79 18 109 33q44 22 86 74z" />
    <glyph glyph-name="igrave" unicode="&#xec;" 
d="M1858 51q0 -51 -51 -51h-1565q-51 0 -51 51v1074q0 51 51 51h1565q51 0 51 -51v-1074zM1828 1068v57q0 21 -21 21h-1565q-21 0 -21 -21v-57h1607zM1828 51v843h-1607v-843q0 -21 21 -21h1565q21 0 21 21zM1794 538h-1545v277h1545v-277zM1359 422h-692v46h692v-46z
M1289 282h-622v46h622v-46zM1109 352h-442v46h442v-46zM1359 212h-692v46h692v-46zM481 244h-217v151h217v-151zM481 62h-217v151h217v-151zM1774 558v237h-1505v-237h1505zM465 302v42h-185v-42h185zM400 85v108h-62v-108h62zM1663 679q-49 -28 -67.5 -33t-73.5 -5
q-34 0 -34 29l-71 -10l18 40q-110 -58 -236 -58q-37 0 -65 5q10 -12 10 -20q0 -31 -74 -31t-95 41q13 27 97 28q-33 28 -38 61q32 34 104 34q27 0 27 -35l-1 -7l-22 -12q4 15 3 22l-1 11q-15 5 -16 5q-34 0 -75 -17q-2 -25 61 -63q10 -1 21 -3q20 -2 45 -2q142 0 305 94
l-32 -79l54 14v-30l25 -1q58 -2 131 22zM967 676l-32 -19l-96 -4q-31 -4 -30 9q-60 -26 -142 -26q-20 0 -26 22l33 27q-39 -10 -133 -31l28 -8l-22 -13l-29 8q-51 -65 -130 -65q-15 0 -33 10l5 17q57 48 111 51q-26 8 -38 14q-20 11 -26 29q0 26 20 49.5t46 23.5
q22 0 55 -12q39 -14 39 -32q0 -14 -31 -59q55 10 162 38l-38 -46q42 -5 128 23q78 25 120 52l13 -11q-34 -16 -92 -53q20 -2 69 2q57 4 69 4zM1113 624q3 14 -17 27q-74 1 -101 -6q-1 -14 31 -24q27 -9 44 -9q9 0 43 12zM550 727q-27 28 -100 25q-27 -23 -24 -57
q15 -15 86 -34l3 1q16 22 35 65zM502 645q-35 -6 -71 -12q-38 -9 -60 -38q7 -3 22 -3q43 0 62.5 9t46.5 44z" />
    <glyph glyph-name="icircumflex" unicode="&#xee;" 
d="M1730 950q0 -37 -22 -63t-53 -26t-52.5 26t-21.5 63t21.5 63t52.5 26t53 -26t22 -63zM1311 1172q0 -46 -27 -79t-66 -33q-38 0 -65.5 33t-27.5 79t27.5 78.5t65.5 32.5q39 0 66 -32.5t27 -78.5zM824 1201q0 -47 -27.5 -84t-65.5 -37t-65.5 37t-27.5 84q0 46 27 79t66 33
q38 0 65.5 -33t27.5 -79zM1901 670q8 -12 8 -25q0 -22 -28 -61l-82 -114l-27 71l68 99l-77 102v-205l31 -91l-13 -20v-107h-15v-330q0 -45 -43 -45q-42 0 -42 45v330h-14v107h-22v-107h-15v-330q0 -45 -42 -45q-43 0 -43 45v330h-23l27 218v205l-42 -208q-5 -29 -38 -28
q-33 0 -43 55l-67 370h-20v-265l107 -278h-107v-388q0 -56 -54 -56q-52 0 -52 56v388h-28v-388q0 -56 -52 -56q-53 0 -53 56v388h-110l110 278v265h-21l-53 -372q-7 -53 -50 -53q-42 0 -51 57l-53 344h-21v-907q0 -56 -53 -56t-53 56v537h-27v-537q0 -56 -53 -56t-53 56v907
h-20l-35 -346q-6 -56 -43 -56q-30 0 -42 45l-47 171h-10v-200l86 -222h-86v-310q0 -45 -42 -45t-42 45v310h-22v-310q0 -45 -43 -45q-42 0 -42 45v310h-87l87 222v200h-16v-171q0 -44 -34 -44q-35 0 -35 44v171q0 108 117 108h129q96 0 112 -109l9 -59v302q0 105 117 105
h218q99 0 109 -105l28 -302l14 270q7 119 117 119h218q105 0 117 -119l27 -270l28 154q7 37 52 37h209q29 0 52 -37zM483 869l-21 3v17l21 4v-24zM467 914l-13 -25v-17l12 -24h-35l11 24v17l-12 25h37zM436 872q-37 0 -47 22q-16 -57 -70 -57t-69 57q-11 -22 -48 -22v17
q43 2 43 45q0 30 22 56t52 26t52 -26t22 -56q0 -43 43 -45v-17zM209 914l-13 -25v-17l12 -24h-36l12 24v17l-13 25h38zM176 872l-21 -3v24l21 -4v-17z" />
    <glyph glyph-name="idieresis" unicode="&#xef;" 
d="M790 1395q6 -17 6 -35q0 -78 -74 -103q-17 -6 -35 -6q-78 0 -104 74q-5 17 -5 35q0 77 73 102q18 6 36 6q78 0 103 -73zM839 1407q9 -26 9 -54q0 -66 -47 -114q-22 18 -52 17q61 35 61 105q0 20 -6 39q-29 83 -117 83q-21 0 -40 -7q-84 -29 -84 -116q0 -21 6 -40
q31 -91 127 -82q-34 -21 -35 -49q-99 10 -134 111q-9 26 -9 54q0 117 111 155q30 11 59 11q112 0 151 -113zM1266 926q8 -36 -5 -44q-24 5 -60 3q-25 -23 -88 -58l-446 -154q-23 -8 -62 -8h-43q-7 -1 -23 -19.5t-23 -19.5q-9 -2 -23 11q-13 10 -15 18q-3 9 15 31
q23 28 63 44q22 9 43 9q33 0 56 -20q88 36 176 74q0 6 -12 13q-15 8 -17 11l-17 -6q-65 131 -81 177q-24 64 -39 171q8 40 18 53q8 9 38 23q51 15 93 -25q72 -112 87 -163q16 -92 33 -185l-14 -4q0 -5 -5.5 -16.5t-5.5 -16.5q0 -6 7 -8q31 -8 179 53q3 15 11 28q19 30 59 42
q24 7 45 7q49 0 56 -21zM1324 -132q-12 -88 -54 -197q-58 39 -150 124q-67 87 -327 810q12 6 31 33q9 27 -10 70l170 62q12 -32 41 -65q17 -3 57 -1q253 -756 242 -836zM1251 -285l-309 886h-53l-29 -40q136 -353 288 -721q14 -13 103 -125z" />
    <glyph glyph-name="ntilde" unicode="&#xf1;" 
d="M1800 706q-89 -151 -200 -258q-267 -258 -601 -258q-296 0 -555 264q-108 110 -199 264q100 0 205 67q82 63 165 126q89 67 151 67q67 0 137 -23q48 -19 96 -39q133 58 242 58q84 0 262.5 -134t296.5 -134zM1535 673q-136 -3 -381 -14q-35 -3 -87 -16q-46 -11 -68 -11
q-20 0 -64 15q-49 16 -91 19q-135 12 -346 7q102 -56 205 -112q167 -82 296 -82q205 0 536 194z" />
    <glyph glyph-name="oacute" unicode="&#xf3;" 
d="M1842 1109l-311 -295l-21 19l275 327zM1872 688l-316 20v33l316 38v-91zM1842 358l-57 -51l-275 327l21 18zM1466 433q0 -85 -252 -143q-29 -7 -36 -39q-2 -10 -2 -62q0 -38 16 -100.5t16 -88.5h-684q0 32 2 92q2 66 2 94q0 208 -119 297q-131 98 -184 219
q-50 114 -50 298q0 193 197 343q183 140 382 140h39q330 0 382 -140q13 -55 33 -121q19 -25 20 -28.5t1 -34.5q0 -67 34 -96q16 -14 82 -38q63 -22 99 -58q7 -7 7 -15q0 -15 -53.5 -50t-53.5 -65q0 -23 18 -35q21 -16 22 -18q-27 -20 -76 -68q-24 -28 -54 -70
q85 -27 173 -27q9 0 9 -13q0 -24 -14 -50.5t-14 -33.5q0 -15 29 -37t29 -52z" />
    <glyph glyph-name="ograve" unicode="&#xf2;" 
d="M1837 953l-502 -364l192 -591l-502 365l-503 -365l192 591l-501 364h620l192 591l191 -591h621zM1674 902h-460l-191 -179zM1023 722v686l-139 -455zM1406 162l-143 431l-240 126zM1023 722l-674 189l399 -293zM1023 422v297l-368 -552z" />
    <glyph glyph-name="ocircumflex" unicode="&#xf4;" 
d="M1856 -133l-588 579l588 627v-1206zM1856 1141l-616 -641q-101 -114 -217 -114t-215 114l-110 116l196 143l113 -329l696 964l-645 -569l-145 282l-298 -404l-423 438h1190l423 369l-244 -369h295zM1856 -205h-1664l628 610q95 -65 203 -65t205 65zM780 446l-588 -579
v1206l389 -413l-345 -462l418 380z" />
    <glyph glyph-name="odieresis" unicode="&#xf6;" 
d="M284 187h200l-25 -93h-200l-71 -265h1460l343 1283h-1459l-53 -198h185l-25 -93h-185l-40 -149h180l-25 -94h-180l-40 -149h195l-25 -93h-195zM27 187h215l40 149h-280l25 93h280l40 149h-345l25 94h345l40 149h-410l25 93h410l62 232h1543l-362 -1350h-1543l80 298h-215
zM1807 752h-349l75 280h349zM1338 303h-585l20 75h585zM1293 135h-482l20 75h482zM1383 470h-704l20 75h704z" />
    <glyph glyph-name="otilde" unicode="&#xf5;" 
d="M1854 -204h-1663v1350h1663v-1350zM1813 -171v1283h-1581v-1283h1581zM1725 752h-349v280h349v-280zM1376 470h-825v75h825v-75zM1376 303h-706v75h706v-75zM1376 135h-603v75h603v-75z" />
    <glyph glyph-name="uacute" unicode="&#xfa;" 
d="M1909 1284q-53 -35 -211 -138h159v-1350h-1663v1350h839q273 122 387 161q107 35 418 130zM1864 1323l-31 59l-554 -252l31 -68zM1816 -170v1282h-173q-53 -32 -132 -80h217v-280h-348v208q-130 -69 -295 -146l-137 298h-713v-1282h1581zM1058 801q-51 -25 -265 -101
q-105 -33 -282 -67l-71 152q66 55 232 173q134 86 249 138zM1379 471h-825v74h825v-74zM1379 303h-706v75h706v-75zM1379 135h-603v75h603v-75zM490 645l-103 -48q-9 6 -31 15q-25 7 -73 -9l-4 8l143 67l-4 10l-143 -67l-4 9q21 12 53 50q6 11 9 33l103 48z" />
    <glyph glyph-name="quotedblleft" unicode="&#x201c;" 
d="M1843 217l-793 -325l-846 325v353l574 117l-171 232l104 16l121 -16v337l114 9l335 -24v-381l274 -35l-229 -175l517 -80v-353zM1521 817l-262 32v382l-315 25l-82 -8l303 -24v-389l255 -33l-439 -351l84 19zM832 884v21l-120 17l-65 -13zM1749 551l-455 74l-219 -167
l-109 -27l-174 237l-498 -108l756 -184l143 35l44 -10l87 -175l281 88l28 209z" />
    <glyph glyph-name="quotedblright" unicode="&#x201d;" 
d="M1843 218l-793 -324l-846 324v353l636 130v180l-225 32l431 371l121 7l407 -470l-112 -20l-173 22v-168l554 -84v-353zM1555 828l-392 452l-104 -8l404 -459zM1277 467v357l-99 11v-391zM1749 552l-460 76v-171l-113 -27l-336 71v180l-546 -119l756 -184l143 34l44 -10
l87 -174l281 87l28 209z" />
    <glyph glyph-name="ugrave" unicode="&#xf9;" 
d="M1636 -191h-1249v1620h968l281 -298v-1322zM1600 -150v1281h-245v268h-931v-1549h1176zM1261 1083h-716v77h716v-77zM1501 879h-956v77h956v-77zM921 675h-376v77h376v-77zM1501 471h-956v77h956v-77zM1501 267h-956v77h956v-77zM1501 63h-956v77h956v-77z" />
    <glyph glyph-name="ucircumflex" unicode="&#xfb;" 
d="M1636 -191h-1249v1620h968l281 -298v-1322zM1600 -150v1281h-245v268h-931v-1549h1176zM1289 673h-598v670h598v-670zM1501 444h-956v77h956v-77zM1501 217h-956v77h956v-77zM1501 -10h-956v77h956v-77zM1257 715v590h-530v-590h530zM1245 1076h-131q-2 14 -2 32
q0 62 32 62q42 0 44 -31q0 42 57 61v-124zM1237 758q0 -13 -1 -24h-482q26 56 81 138q-10 36 -10 75q0 72 57 137q-7 34 -7 79q0 43 26.5 73.5t69.5 30.5q71 0 111 -155q12 -47 55 -48q20 -25 51 -78q9 -20 29 -114t20 -114zM861 1076h-121v108q9 12 24 12q17 0 27 -13
t5 -29q15 19 30 19q30 0 35 -97zM1059 1013q-60 63 -60 102q0 9 4 27t4 28q0 19 -11 39q-14 22 -31 22q-19 0 -37 -4q-20 -36 -20 -64q0 -14 10 -35t21 -23q10 -13 15 -13l-2 -27h-3q-45 1 -70 -77l125 -26q19 38 55 51zM1070 802q0 22 -46 44l-66 26q-36 -8 -36 -23
q0 -12 15 -30h20q5 -35 56 -39l-9 11l10 3l10 -14l13 3l-12 16l8 3l15 -16l14 5l-22 20l4 3q11 -7 26 -15v3zM976 781l-23 22l-37 -12v-27l22 -17q12 11 38 34zM995 1191q-10 -13 -28 -16q-5 -6 -7 -17q-2 19 -2 21q0 9 9 9q3 0 10 -1t10 -1q1 0 4 1zM942 1175q-3 0 -28 -6
v11q5 3 12 3q6 0 16 -8zM966 1138q-4 -6 -12 -6q-11 0 -13 9q3 -3 9 -5q4 2 9 5zM981 1132q-4 -7 -23 -15q-4 0 -16 3q10 0 39 12zM971 1179q-4 1 -3 6l-6 -8zM925 1173l-3 7l-5 -7h8z" />
    <glyph glyph-name="udieresis" unicode="&#xfc;" 
d="M1636 -191h-1249v1620h1029l220 -231v-1389zM1626 1169l-229 243l1 -243h228zM1540 -69v1179h-1061v-1179h1061zM1516 651h-263q-4 29 -4 64q0 125 64 125q83 0 89 -62q-2 84 114 122v-249zM1499 15q0 -25 -2 -47h-963q37 73 73 147q52 98 88 130q-20 70 -20 150
q0 143 114 272q-14 70 -14 158q0 87 53.5 148.5t138.5 61.5q143 0 223 -310q24 -94 109 -98q40 -50 103 -155q17 -41 57 -228t40 -229zM746 651h-240v218q17 24 48 24q66 0 66 -66q0 -10 -2 -18q29 37 60 37q60 0 68 -195zM1144 527q-121 125 -121 203q0 18 8.5 54.5
t8.5 55.5q0 38 -23 77q-27 45 -62 45q-37 0 -75 -8q-38 -71 -38 -128q0 -28 18 -67q21 -44 44 -50q5 -9 10 -17.5t20 -6.5l-5 -55h-5q-47 2 -90 -55q-33 -44 -51 -100l249 -51q39 76 112 103zM1166 104q0 44 -92 88q-66 26 -132 53q-74 -18 -74 -47q0 -24 31 -59h40
q5 -32 43 -55q34 -21 69 -24l-17 22l18 7l22 -29l26 7l-25 32l16 5l29 -31l28 9l-43 40l9 7q20 -15 51 -31zM978 63l-46 43l-75 -23v-55l43 -34zM1015 883q-19 -27 -57 -34q-9 -10 -13 -32q-4 38 -4 41q0 19 18 19q6 0 19.5 -2.5t20.5 -2.5l8 2zM910 850q-6 -1 -57 -12v22
q11 7 25 7q12 0 32 -17zM957 775q-7 -11 -24 -11q-22 0 -25 17q6 -4 18 -9q7 4 17 10zM986 765q-10 -26 -43 -30l-3 -1q-6 0 -30 5q34 4 41 6.5t35 19.5zM967 857q-9 4 -6 13l-11 -16zM876 847l-6 14l-10 -16z" />
    <glyph glyph-name="cent" unicode="&#xa2;" 
d="M1823 -222h-154q-31 38 -119 59q-70 18 -138 18q-166 0 -287 -77h-203q-121 77 -288 77q-68 0 -138 -18q-88 -21 -119 -59h-154v188q88 76 88 266q0 113 -14 163q-13 47 -74 152v123q88 157 88 315q0 190 -88 266v188h154q31 -38 119 -60q70 -17 138 -17q167 0 288 77
h203q121 -77 287 -77q68 0 138 17q88 22 119 60h154v-188q-88 -76 -88 -266q0 -114 13.5 -162t74.5 -153v-125q-61 -105 -74 -151q-14 -49 -14 -162q0 -190 88 -266v-188zM1564 1208h-447v-784h447v784zM1092 696v512h-590v-512h590zM1564 29v370h-447v-370h447zM1092 29
v642h-283v-642h283zM784 29v642h-282v-642h282z" />
    <glyph glyph-name="sterling" unicode="&#xa3;" 
d="M1823 -222h-154q-31 38 -119 59q-70 18 -138 18q-166 0 -287 -77h-203q-121 77 -288 77q-68 0 -138 -18q-88 -21 -119 -59h-154v188q88 76 88 266q0 113 -14 163q-13 47 -74 152v123q88 157 88 315q0 190 -88 266v188h154q31 -38 119 -60q70 -17 138 -17q167 0 288 77
h203q121 -77 287 -77q68 0 138 17q88 22 119 60h154v-188q-88 -76 -88 -266q0 -114 13.5 -162t74.5 -153v-125q-61 -105 -74 -151q-14 -49 -14 -162q0 -190 88 -266v-188zM1564 29v1179h-1062v-1179h1062zM1426 200l-68 -58l-333 396l-332 -396l-69 58l342 408l-342 408
l69 58l332 -396l333 396l68 -58l-342 -408z" />
    <glyph glyph-name="section" unicode="&#xa7;" 
d="M1491 1023l-47 -106l-592 75l53 96l111 -10q69 136 109 186q80 99 180 97q52 -1 84 -30.5t32 -74.5q0 -24 -10 -50q-24 -58 -69 -166zM1873 772l-639 -940l-1044 292l-18 49l646 1008l234 -18l-10 -18l-207 20l-605 -983l961 -243l473 1143l-259 26l-43 -52l28 70l47 -3
q12 21 7 32q-5 13 -35 15l9 23q15 -1 27 -5q29 -9 34 -30q4 -16 -7 -40l227 -21l9 -34l-101 -264zM1355 1206q10 26 10 50q0 63 -73 63q-95 0 -146 -97zM1442 963l-558 61l-6 -11l557 -66z" />
    <glyph glyph-name="bullet" unicode="&#x2022;" 
d="M1726 -230h-1316v80h-84v1530h214q3 43 26 72t54 29q71 0 79 -101h188q3 43 26 72t54 29q71 0 79 -101h197q3 43 26 72t54 29q71 0 79 -101h240v-80h84v-1530zM1686 -190v1450h-44v-1410h-1192v-40h1236zM1602 -110v1450h-278q3 -23 18.5 -35t15.5 -22q0 -30 -35 -30
q-64 0 -79 87h-276q3 -23 18.5 -35t15.5 -22q0 -30 -35 -30q-64 0 -79 87h-267q3 -23 18.5 -35t15.5 -22q0 -30 -35 -30q-64 0 -79 87h-175v-1450h1236z" />
    <glyph glyph-name="paragraph" unicode="&#xb6;" 
d="M1726 -230h-1316v80h-84v1530h214q3 43 26 72t54 29q71 0 79 -101h188q3 43 26 72t54 29q71 0 79 -101h197q3 43 26 72t54 29q71 0 79 -101h240v-80h84v-1530zM1686 -190v1450h-44v-1410h-1192v-40h1236zM1602 -110v1450h-278q3 -23 18.5 -35t15.5 -22q0 -30 -35 -30
q-64 0 -79 87h-276q3 -23 18.5 -35t15.5 -22q0 -30 -35 -30q-64 0 -79 87h-267q3 -23 18.5 -35t15.5 -22q0 -30 -35 -30q-64 0 -79 87h-175v-1450h1236zM1236 190h-524v126h184v491l-144 -83l-64 108l240 140h124v-656h184v-126z" />
    <glyph glyph-name="germandbls" unicode="&#xdf;" 
d="M1899 0h-707q-86 -31 -168 -31t-169 31h-706v43l55 77v337l256 235q60 -14 127 -14q44 0 120 29.5t148 29.5q123 0 169 -93q44 93 168 93q72 0 148 -29.5t120 -29.5q67 0 128 14l255 -235v-337l56 -77v-43zM1806 454l-231 218q-49 -10 -112 -10q-62 0 -135 29t-136 29
q-112 0 -157 -80l9 -216q49 77 163 77q97 0 205.5 -36t175.5 -36q90 0 218 25zM1806 94v336q-50 -10 -216 -22q-69 -1 -180.5 34t-202.5 35q-124 0 -183 -110q-59 110 -183 110q-91 0 -202.5 -35t-180.5 -34q-109 1 -217 22v-336h630q49 68 153 68t152 -68h630zM1013 640
q-46 80 -158 80q-63 0 -135.5 -29t-134.5 -29q-63 0 -112 10l-232 -218q129 -25 219 -25q67 0 175.5 36t205.5 36q114 0 163 -77z" />
    <glyph glyph-name="registered" unicode="&#xae;" 
d="M1866 836q0 -64 -25 -136q-27 -77 -62 -101l56 -16v-64l-46 -15q-8 -29 -17 -97q-1 -72 17 -139l46 -21v-61l-904 -458l-584 501q-99 85 -94 276q1 60 26 87q13 15 61 38q35 17 215 50l-156 73v50l60 16q19 72 19 146q0 17 -3 48l-293 63v50l38 5q21 55 21 131
q0 77 -21 133h-38v37l522 59l926 -60q66 -5 109.5 -57.5t43.5 -136.5q0 -114 -111 -172q90 1 121 -22t53 -93q20 -63 20 -114zM1819 833q1 78 -33 136q-32 55 -69 51l-562 -67q35 -91 35 -201q0 -117 -36 -238l594 140q27 6 48 59t23 120zM860 1262q2 88 -47.5 138.5
t-120.5 43.5l-456 -42q22 -63 22 -140q0 -76 -22 -147l423 -68q12 -2 24 -2q72 0 123.5 60.5t53.5 156.5zM1173 752q0 110 -36 201l-172 32q-172 -24 -240 -24q-17 0 -26 2l-207 45q3 -33 3 -50q0 -74 -25 -164l667 -280q36 121 36 238zM1782 236q-25 81 -24 164q0 37 16 99
l-825 -282q-20 -66 -20 -156q0 -108 22 -213zM929 -152q-21 105 -21 213q0 90 21 156l-520 342q-23 15 -45 15q-59 0 -57 -95q3 -134 57 -177z" />
    <glyph glyph-name="copyright" unicode="&#xa9;" 
d="M1912 709q-1 -45 -12 -80q-27 -83 -97 -102l-294 -76q81 42 81 155q0 12 -2 26q-6 67 -74 109q-55 33 -107 33l302 72q20 4 37 4q53 0 87 -43q30 -38 35 -93zM1496 614q1 -12 1 -24q0 -59 -29 -112q-27 -49 -63 -67l-722 -365q-89 -45 -189 -45q-41 0 -77 9
q-148 38 -219 180q-58 115 -56 273q1 116 60 196q68 94 190 95l895 6q79 0 136 -35q64 -39 73 -111zM1841 709q2 -3 2 2q0 27 -26 68q-34 53 -82 53q-10 0 -20 -3l-228 -52q25 0 65 -27q55 -38 65 -101zM1882 695l-263 -68q1 -43 -13 -87.5t-29 -50.5l220 60q45 13 71 66
q20 40 20 74q0 9 -3 9q-1 0 -3 -3zM1465 600q-6 71 -68 109q-55 33 -135 31l-744 -10q80 -16 132 -102q55 -91 61 -236q2 -66 -28 -143l120 47q16 53 20 93l642 173q2 19 0 38zM1462 544l-595 -177q-8 -176 -115 -252l612 302q79 38 98 127zM787 253l-170 -73
q-17 -7 -64 -11q-54 -4 -87 3q-130 31 -130 215q0 18 1 32l297 55l2 -24l-252 -44q-2 -15 -2 -34q0 -137 101 -161q24 -6 45 -6q71 0 107 62q29 51 26 125q-4 131 -57 214q-57 89 -157 102q-21 2 -41 2q-101 0 -159 -63q-61 -65 -61 -184q0 -358 253 -406q38 -7 74 -7
q191 0 274 203zM1759 794l-165 -44l-22 19l154 41zM1797 728l-151 -41l-22 30l151 44zM1845 645l-31 -57l-176 -50l14 53zM1350 691l-200 -16l-47 33l201 8zM1416 614l-211 -38l-14 55l203 27zM1413 499l-19 -39l-499 -230l21 93zM1161 529l-352 -69q-2 31 -22 116
q-19 65 -85 118l346 14q32 -14 91 -72q20 -32 22 -107zM560 611l-294 -11l41 50h228zM606 515l-368 -55l9 66l340 28zM626 356l-165 -44l-8 47l173 33v-36zM631 310l-14 -42l-68 -24l-50 19zM700 150l-50 -38l-104 -28l80 42zM315 331l-60 -13l-11 66l66 11zM521 131
l-79 -38l-83 35l63 28zM362 205l-55 -22l-38 63l60 20z" />
    <glyph glyph-name="trademark" unicode="&#x2122;" 
d="M1889 307q0 -141 -49 -228q-44 -79 -102 -79h-1310q-168 0 -222.5 60.5t-54.5 238.5v1026h1587v-129h151v-889zM1708 30v1265h-1527v-996q0 -167 46 -218t201 -51h1280zM1502 1009h-531v50h531v-50zM1182 1151h-211v50h211v-50zM1502 867h-531v50h531v-50zM1502 314h-531
v50h531v-50zM1282 614h-311v50h311v-50zM837 1009h-561v50h561v-50zM517 1151h-241v50h241v-50zM837 867h-561v50h561v-50zM1630 492q0 -155 -87 -261q-94 -113 -245 -113q-163 0 -309 96q-160 105 -179 258h-534v50h533q7 139 144 225q120 76 269 76q224 0 381 -117
l-29 -28q-150 112 -371 112q-146 0 -244 -58q-118 -70 -118 -207q0 -131 140.5 -252.5t336.5 -121.5q279 0 279 322q0 195 -194 225l31 32q196 -31 196 -238zM717 614h-441v50h441v-50zM747 380v-50h-471v50h471zM971 522v-50h531v50h-531z" />
    <glyph glyph-name="acute" unicode="&#xb4;" 
d="M1884 405l-99 -162l-91 22v38l55 -13l-68 104v-160l-607 -259l-901 371v396l466 69l845 -135l-108 152l-1059 81l140 -113l-27 -6l-156 125l69 94l1166 7zM1528 615l-22 31l-854 147l-411 -63l833 -220z" />
    <glyph glyph-name="dieresis" unicode="&#xa8;" 
d="M1758 922l-201 -648v672h172zM1859 710l-318 -584l175 609l119 2zM1891 477l-350 -404l233 444h101zM1863 273l-322 -246l227 289h74zM1541 73q0 -31 -24 -53t-55 -22h-372v185q-35 22 -59 22q-21 0 -63 -22v-185h-233v185q-29 30 -58 30q-26 0 -64 -30v-185h-363
q-33 0 -59.5 23t-26.5 56v932q0 28 30 46q26 15 55 15h206q38 16 48 84q8 59 46 59h203q36 0 43 -58q7 -68 38 -85h644q64 0 64 -63v-934z" />
    <glyph glyph-name="notequal" unicode="&#x2260;" 
d="M1823 -224h-154q-65 77 -257 77q-166 0 -287 -77h-203q-121 77 -288 77q-192 0 -257 -77h-154v188q88 77 88 266q0 113 -14 162.5t-74 152.5v124q88 144 88 315q0 189 -88 266v188h154q65 -77 257 -77q167 0 288 77h203q121 -77 287 -77q192 0 257 77h154v-188
q-88 -77 -88 -266q0 -113 14 -162.5t74 -152.5v-125q-60 -104 -74 -152.5t-14 -161.5q0 -189 88 -266v-188zM1563 28v1179h-1061v-1179h1061zM1539 748h-263q-4 29 -4 64q0 125 64 125q83 0 89 -62q-2 84 114 122v-249zM1522 112q0 -25 -2 -47h-963q37 73 73 147
q52 98 88 130q-20 70 -20 150q0 143 114 272q-14 70 -14 158q0 87 53.5 148.5t138.5 61.5q143 0 223 -310q24 -94 109 -98q40 -50 103 -155q17 -41 57 -228t40 -229zM769 748h-240v218q17 24 48 24q66 0 66 -66q0 -10 -2 -18q29 37 60 37q60 0 68 -195zM1167 624
q-121 125 -121 203q0 18 8.5 54.5t8.5 55.5q0 38 -23 77q-27 45 -62 45q-37 0 -75 -8q-38 -71 -38 -128q0 -28 18 -67q21 -44 44 -50q5 -9 10 -17.5t20 -6.5l-5 -55h-5q-47 2 -90 -55q-33 -44 -51 -100l249 -51q39 76 112 103zM1189 201q0 44 -92 88q-66 26 -132 53
q-74 -18 -74 -47q0 -24 31 -59h40q5 -32 43 -55q34 -21 69 -24l-17 22l18 7l22 -29l26 7l-25 32l16 5l29 -31l28 9l-43 40l9 7q20 -15 51 -31zM1001 160l-46 43l-75 -23v-55l43 -34zM1038 980q-19 -27 -57 -34q-9 -10 -13 -32q-4 38 -4 41q0 19 18 19q6 0 19.5 -2.5
t20.5 -2.5l8 2zM933 947q-6 -1 -57 -12v22q11 7 25 7q12 0 32 -17zM980 872q-7 -11 -24 -11q-22 0 -25 17q6 -4 18 -9q7 4 17 10zM1009 862q-10 -26 -43 -30l-3 -1q-6 0 -30 5q34 4 41 6.5t35 19.5zM990 954q-9 4 -6 13l-11 -16zM899 944l-6 14l-10 -16z" />
    <glyph glyph-name="AE" unicode="&#xc6;" 
d="M499 360l-46 -17l34 -61q-127 47 -217 133q-108 104 -108 222q0 82 13 164q19 117 56 133q-41 76 -41 154q0 157 92 157q28 0 83.5 -6t83.5 -6q106 0 218 61.5t175 61.5q175 0 175 -213q0 -27 -6 -60q46 -91 66 -123q42 -70 87 -108q25 41 71 75q52 38 93 38q48 0 82 -46
q65 -89 99 -124q60 -62 130 -91q87 -35 173 -70q82 -50 82 -158q0 -58 -37 -110t-90 -77q18 -114 18 -193q0 -60 -47 -130q-10 -15 -89 -112v68l-70 -34q159 105 159 217q0 73 -16 163q-41 -17 -61 -29q-30 -74 -102 -120q-14 -9 -144 -70q-126 -61 -222 -61
q-136 0 -183 114q-29 71 -29 231q0 295 116 346q11 38 37 114q-90 99 -140 219l-7 -38q24 -51 24 -108q0 -39 -48 -202q-82 -276 -247 -276q-106 0 -273.5 156.5t-167.5 261.5q0 22 7 44l-27 43q-43 -65 -43 -191q0 -117 32 -178q27 -52 96 -89q80 -38 159 -75zM1868 477
q0 97 -79 141l-160 62q-74 30 -136 95q-33 33 -105 130q-25 34 -62 34q-50 0 -122 -75q-35 -38 -82 -202q-79 -21 -104 -143q-12 -61 -12 -193q0 -141 26 -207q42 -105 162 -105q105 0 257 76q164 83 198 171q60 24 153 80q66 62 66 136zM998 1151q0 76 -41 126
q-44 54 -118 54q-48 0 -164.5 -62t-224.5 -62q-28 0 -83 6t-83 6q-69 0 -69 -119q0 -70 28 -129q9 -19 68 -114q-12 -24 -12 -51q0 -94 160.5 -242.5t256.5 -148.5q148 0 223 256q46 158 46 209q0 56 -23 100q3 16 22 85q14 52 14 86zM1672 388q0 -14 -19 -14t-80 53t-61 71
q0 14 18 14q31 0 86.5 -47t55.5 -77zM1378 592q0 -16 -20 -16q-8 0 -70 46.5t-73 60.5q0 19 34 19t81.5 -38.5t47.5 -71.5zM1379 567q-15 -106 -129 -133q45 42 129 133zM1532 193l-17 -5q-53 23 -53 119q25 -55 28 -61q17 -31 42 -53zM1363 303l-1 -3l-7 -3q-11 0 -29 11.5
t-18 22.5l1 3l7 3q12 0 29.5 -11.5t17.5 -22.5zM1267 358l-4 -4q-12 1 -34.5 15t-23.5 24l5 4q12 0 34.5 -14.5t22.5 -24.5zM1195 480q-34 -18 -79 -18q-16 0 -45 8l-3 22q16 -10 82 -10q21 0 45 -2zM1428 229q-51 -112 -199 -112q-79 0 -107 68q-17 43 -17 137q0 19 9 50
q11 36 12 49q17 -89 86.5 -148.5t159.5 -59.5q38 0 56 16zM877 1067q0 -35 -134 -35q-64 0 -64 15q0 22 54 35q39 9 72 9q72 0 72 -24zM724 833q0 -20 -44 -20q-18 0 -18 8q0 20 44 20q18 0 18 -8zM570 922q0 -46 -27 -80q2 37 2 57v21q0 35 -4 70q29 -38 29 -68zM526 1000
q0 -23 -41 -30q-29 -3 -59 -7q-64 -15 -70 -15q-15 0 -15 13q0 25 33 44q29 17 57 17q95 0 95 -22zM623 817q-1 -20 -57 -20l-14 5q2 20 57 20zM874 616q-171 79 -229 79q-37 0 -136 -82q-3 10 -3 17q0 52 91 79q64 18 138 18q115 0 139 -111z" />
    <glyph glyph-name="Oslash" unicode="&#xd8;" 
d="M1538 546q0 -91 -109 -154q-95 -54 -194 -54q-79 0 -139 28q-78 36 -78 105q0 86 117 140q94 44 191 44q69 0 122 -21v448l-598 -265v-619q0 -90 -107 -155q-94 -57 -191 -57q-78 0 -138 28q-78 35 -78 105q0 85 116 140q94 44 191 44q66 0 118 -20v798l777 342v-877z
" />
    <glyph glyph-name="infinity" unicode="&#x221e;" 
d="M1920 0h-1654v885h776q0 108 -46 144q-55 44 -226 44h-191q-31 -80 -85 -80h-177v19h-170v185h170v17h177q33 0 61 -30q24 -26 24 -43h171q230 0 299 -50q61 -45 61 -190v-16h84v196q0 169 -43 219q-48 56 -212 56h-151q-31 -80 -85 -80h-177v20h-169v184h169v18h177
q33 0 61 -31q24 -25 24 -42h151q158 0 242 -70q78 -64 78 -171v-299h661v-885zM1894 22v577h-100v-331h-39v-246h139zM1595 716v110h-544v-110h544zM1720 22v246h-48v331h-58v-331h-39v-246h145zM526 1316v144h-149v-144h149zM1540 22v246h-48v331h-58v-331h-39v-246h145z
M936 799v30h-97v-30h97zM1360 22v246h-48v331h-97v-577h145zM756 799v30h-97v-30h97zM1180 22v577h-106v-331h-39v-246h145zM317 1032v145h-150v-145h150zM1000 22v246h-48v331h-58v-331h-39v-246h145zM820 22v246h-48v331h-95v-577h143zM506 400h-50q-3 -28 -7 -99h50v1
q0 46 7 98zM384 400h-50q-2 -28 -6 -99h50v1q-1 46 6 98zM511 159q-5 26 -12 104q0 2 3 8.5t3 11.5t-3 10h-49q6 -5 6 -13q0 -7 -5 -11.5t-5 -6.5q3 -48 17 -103h45zM534 120v95h-8v-80h-64v-15h72zM390 159q-5 26 -12 104q0 2 3 8.5t3 11.5t-3 10h-50q7 -5 7 -13
q0 -7 -5 -11.5t-5 -6.5q2 -48 17 -103h45zM413 120v95h-8v-80h-65v-15h73z" />
    <glyph glyph-name="plusminus" unicode="&#xb1;" 
d="M1440 598q0 -87 -72 -151q-62 -55 -155 -78q65 -111 65 -149q0 -16 -9 -39q-11 -24 -23 -24h-46v95h-81q-9 -35 -37 -75q-34 -48 -64 -48q-50 0 -50 60q0 45 20 56l-26 122q-138 20 -170 73q-18 30 -99 391q-83 366 -83 423q0 135 209 195q139 40 321 40q55 0 93 -25
q43 -29 43 -79q0 -9 -2 -20q33 -27 33 -60q0 -15 -9 -34q27 -13 27 -50q0 -13 -8 -26q26 -12 26 -49q0 -7 -4.5 -19t-4.5 -19q2 -4 16 -22q9 -12 9 -28q0 -20 -10 -42q25 -19 25 -48q0 -9 -6 -16q-8 -11 -9 -15q25 -2 25 -34q0 -17 -10 -39q23 -8 23 -38q0 -3 -9 -35
q52 -52 52 -193zM1193 0h-169v114q49 27 68 50.5t30 75.5h71v-240zM1410 635q1 104 -37 139l-125 -9l-9 27l135 11l2 -14q-5 24 -25 55l-122 -10l-6 27l121 10q10 10 10 35l-14 9l-120 -5l-4 28l113 4q8 9 15 27q-2 7 -20 32l-119 -7l5 31l107 7q13 18 13 23q0 10 -17 30
l-105 -7l-11 29l107 5q0 6 4.5 18t4.5 19q0 14 -12 20v-1l-162 -13l-6 31l152 9l10 28q0 7 -24 29l-149 -12l-5 29l155 12q9 17 9 24q0 23 -8 30q-14 8 -27 16l-144 -13l-5 30l152 8q-22 78 -98 83q17 -12 17 -31q0 -17 -13 -17q-2 0 -56 47l-33 -1q18 -12 18 -31
q0 -18 -13 -18l-55 45l-39 -4q29 -13 29 -36q0 -17 -13 -17q-3 0 -28 21q-28 24 -31 26l-44 -8q28 -14 28 -37q0 -18 -13 -18l-57 45q-208 -52 -208 -171q0 -24 4 -51l29 18l5 -30l-27 -22l12 -48l30 20l8 -33l-31 -21l12 -56l29 19l7 -33l-28 -19l10 -51l33 22l8 -35
l-33 -20l11 -54l35 23l7 -33l-35 -23l12 -53l36 24l7 -36l-36 -22l12 -51l42 28l8 -33l-41 -28l13 -64l43 29l7 -30l-40 -31q8 -34 27 -101q11 -39 133 -59q85 -14 165 -14q105 0 193 53q102 61 103 159v37zM1157 10v215h-28v-215h28zM1039 186q0 29 -23 29t-23 -29t23 -29
t23 29zM1180 1052q0 -46 -36 -46q-43 0 -43 55q0 46 36 46q43 0 43 -55zM1036 1328l-103 -10q-67 -7 -123 -43l-79 -51l-7 21l76 53q57 41 128 47l104 8zM1051 1237l-118 -7q-61 -4 -109 -35l-75 -49l-8 17l70 52q48 36 119 41l116 8zM1066 1149l-105 -10q-42 -4 -56 -7
q-25 -6 -52 -24l-85 -54l-7 24l79 57q42 31 110 37l109 9zM1059 1095l-10 -28l-89 -10q-55 -6 -81 -24l-88 -61l-5 22l84 66q32 25 89 28zM1405 603q0 -32 -28 -88q-25 -44 -59 -62q14 26 29 52q27 49 27 88q0 10 -7.5 26t-7.5 19q0 13 30 13q16 0 16 -48zM1084 987
l-109 -10q-47 -4 -78 -26l-87 -61l-6 24l85 66q32 24 81 28l96 7zM1130 907l-111 -13q-56 -7 -93 -32l-87 -61l-7 27l83 61q31 23 95 31l112 14zM1344 581q0 -26 -36 -85q-38 -62 -61 -62q-18 0 -18 6q0 10 40 68t40 70q0 10 -10.5 27t-10.5 26q0 13 25 13q31 0 31 -63z
M1158 828l-103 -12q-51 -6 -104 -39l-95 -61l-7 26l100 70q38 26 101 33l99 10zM1173 756l-96 -14q-39 -6 -88 -40l-107 -74l-7 28l94 72q40 30 94 39l104 16zM1258 581q0 -24 -40 -94q-41 -73 -61 -73q-15 0 -15 10q0 11 36.5 74.5t36.5 79.5q0 9 -6 26.5t-6 26.5t11 9
q44 0 44 -59zM1167 570q0 -23 -38 -88q-40 -68 -60 -68q-15 0 -15 8t35 69t35 77q0 9 -6 26.5t-6 26.5q0 10 20 10q35 0 35 -61zM1071 570q0 -22 -35 -85t-53 -63q-19 0 -19 8q0 6 33.5 66t33.5 77q0 9 -5 25.5t-5 24.5q0 11 18 11q32 0 32 -64z" />
    <glyph glyph-name="lessequal" unicode="&#x2264;" 
d="M1655 614q0 -108 -64 -194q-2 -43 -33 -111q-29 -63 -55 -91q-15 -75 -62 -128q-50 -56 -111 -56q-102 0 -162 142q-46 110 -46 227q0 149 41 239q44 96 124 96q21 0 44 -7q35 63 80 81q4 1 4 7q0 31 -47 119q-149 280 -308 280q-129 0 -285.5 -154.5t-156.5 -277.5
q0 -51 50 -108q69 -78 78 -96q301 -2 301 -415q0 -143 -119 -244q62 120 62 235q0 125 -62 254q-73 151 -181 168l5 -11q98 -28 163 -181q56 -130 56 -249q0 -91 -31 -161q-41 -92 -120 -92q-73 0 -142 83q-63 3 -105 96q-35 77 -35 150q0 44 7 72q-120 197 -120 300
q0 57 21.5 79t79.5 22q9 0 9 3q0 7 -32 20h-2q-94 -4 -94 116q0 59 40 146q60 133 207.5 227.5t294.5 94.5q101 0 216 -24q94 -20 195 -77q132 -75 132 -150q0 -46 -10 -91l28 -136q3 2 10 2q62 0 98.5 -56t36.5 -149zM1576 526q23 32 23 90q0 63 -31 106q-37 52 -106 52
q-21 0 -68 -62q18 -4 56 -33q50 0 89 -61q31 -47 37 -92zM1287 591q-60 -5 -60 -167q0 -77 21 -160q28 -111 77 -107q52 4 52 149q0 87 -17 170q-25 120 -73 115zM653 558q-64 102 -120 102q-35 0 -35 -50q0 -75 68 -234q21 139 87 182zM1348 380q8 -86 -1 -144
q-8 -53 -24 -54q-18 -2 -38 48q-24 57 -31 140q-2 28 -2 55q0 138 37 142q43 3 59 -187z" />
    <glyph glyph-name="greaterequal" unicode="&#x2265;" 
d="M1705 631q0 -282 -199.5 -481.5t-481.5 -199.5t-481.5 199.5t-199.5 481.5t199.5 481.5t481.5 199.5t481.5 -199.5t199.5 -481.5zM1665 631q0 266 -187.5 453.5t-453.5 187.5q-265 0 -453 -187.5t-188 -453.5t188 -453.5t453 -187.5q266 0 453.5 187.5t187.5 453.5z
M1388 1116l-198 -217q-27 32 -61 42l174 233q34 -19 85 -58zM1607 777l-252 -101q-9 29 -20 54q-27 61 -63 95l-51 50l199 209q9 1 69 -62q86 -108 118 -245zM1232 638q0 -87 -61 -148.5t-148 -61.5t-148.5 61.5t-61.5 148.5q0 86 61.5 147.5t148.5 61.5t148 -61.5
t61 -147.5zM827 387l-198 -209q-9 -1 -69 62q-87 108 -119 245l253 101q8 -29 19 -54q27 -61 64 -95zM920 321l-175 -233q-34 19 -85 58l199 217q27 -32 61 -42zM1096 628q0 29 -21 50.5t-50 21.5q-30 0 -51 -21.5t-21 -50.5q0 -30 21 -51t51 -21q29 0 50 21t21 51z" />
    <glyph glyph-name="yen" unicode="&#xa5;" 
d="M1829 825l-1222 -825l-387 574l1223 824zM1456 1301l-32 47l-59 -40l31 -47zM1776 827l-32 47l-59 -40l31 -48zM1320 1209l-32 47l-59 -40l31 -47zM1640 735l-32 47l-59 -40l31 -47zM1184 1118l-32 47l-60 -41l32 -47zM1727 894l-259 384l-534 -360l259 -385zM1504 643
l-32 47l-60 -40l32 -47zM1048 1026l-32 47l-60 -40l32 -48zM1368 551l-32 47l-60 -40l32 -47zM912 934l-32 47l-60 -40l32 -47zM1232 459l-32 48l-60 -41l32 -47zM776 842l-32 47l-60 -40l32 -47zM1096 368l-32 47l-60 -40l32 -48zM640 750l-32 47l-60 -40l32 -47zM1116 481
l-259 385l-535 -361l259 -384zM960 276l-32 47l-60 -40l32 -47zM503 659l-31 47l-60 -41l32 -47zM823 184l-31 47l-60 -40l32 -47zM367 567l-31 47l-60 -40l32 -48zM687 92l-31 47l-60 -40l32 -47z" />
    <glyph glyph-name="mu" unicode="&#xb5;" 
d="M1668 356q2 -39 -31 -60q-11 -7 -68 -28q-24 -72 -86 -117t-138 -45q-64 0 -128 45l-435 -148q-74 -25 -141 -25q-89 0 -247 156q-8 41 -8 63v757q0 29 73 43l98 10v28q46 25 110 25q86 0 110 -23l1 -5l123 13l80 98l170 20l73 -32l40 -53l87 7v51q40 7 57 7q13 0 36 -11
h17q58 1 78 -27l53 -2q37 0 41 -82zM1509 1088q0 7 -18 12l-17 -7l-48 5q47 -25 58 -25q25 0 25 15zM1625 911v111l-288 -53l23 -123zM1166 1133l-38 25l-20 -5l35 -22zM1297 982l-81 141l-161 -23l-48 -159zM1077 1123l-37 25l-21 -5l36 -22zM1378 727l-23 99l-336 -69
l8 15l325 67l-10 43l-308 -59l8 86l283 46l-3 14l-318 -48l-30 -308q42 50 141 90q94 37 164 37q46 0 99 -13zM1643 331l-64 -21l-4 -18l42 14zM1567 386q0 86 -48.5 136.5t-135.5 50.5q-85 0 -138 -73q-49 -66 -49 -153q0 -86 44 -139q48 -58 132 -58q89 0 145 77
q50 70 50 159zM1451 618q-34 28 -106 28q-110 0 -185.5 -79.5t-75.5 -191.5q0 -119 89 -193l1 4q-66 87 -66 183q0 258 282 258q37 0 61 -9zM749 1017q-29 -1 -88 -5q-28 -2 -78 8q29 -23 76 -23q46 0 90 20zM1413 682q-49 22 -81 22q-173 0 -265 -92q-80 -80 -80 -205
q0 -186 141 -225q-109 75 -109 209q0 110 84 199q89 97 214 97q35 0 96 -5zM984 919q-93 -9 -186 -17q-142 -18 -162 -49q-13 -20 -34 -156q74 5 181 27l178 36zM863 644q0 27 -28 27q-12 0 -81 -126q23 10 43 10q21 0 41 -27q25 90 25 116zM908 502q0 18 -22 18
q-18 0 -18 -25q0 -18 20 -18t20 25zM594 697q-14 142 -38 168q-10 11 -155 76v-159q59 -33 95 -51q67 -33 98 -34zM830 502q0 38 -40 38q-41 0 -41 -38q0 -11 13.5 -24t24.5 -13q13 0 28 12.5t15 24.5zM1198 167q-11 3 -32 12l-412 -138q-74 -26 -101 -26q-53 0 -169 56
q109 -76 147 -76q50 0 126 25zM1468 364q0 -71 -103 -104q57 70 57 100q0 40 -8 98q54 -37 54 -94zM1552 391q0 -109 -69 -177q-54 -52 -105 -52q-59 0 -104 33q97 0 163 49q75 56 75 153q0 68 -38 136q78 -58 78 -142zM1325 535q-13 -26 -41 -81q-14 -25 -48 -75
q6 45 21 103q32 49 68 53zM846 632q0 -29 -16 -69l-28 5q-7 -2 -20 -5q38 81 53 81q11 0 11 -12zM545 803q0 -36 -18 -36q-9 0 -27 12.5t-18 25.5t19 24q16 9 26 9q18 0 18 -35zM522 818q-20 -11 -20 -15q0 -5 18 -21z" />
    <glyph glyph-name="partialdiff" unicode="&#x2202;" 
d="M2003 1075q-42 -28 -42 -76q0 -26 15 -48l-698 -470q-26 38 -71 38q-29 0 -53 -16q-41 -28 -41 -75q0 -26 15 -49l-697 -470q-26 39 -72 39q-28 0 -53 -17l-22 33l11 5q22 15 4 41q-17 26 -52 9l-25 37q31 21 12 50q-20 29 -51 8l-23 34q31 22 13 48q-15 24 -51 8l-20 31
q31 21 12 49q-15 23 -51 8l-19 28q42 29 42 69q0 27 -20 57l701 473q31 -46 71 -46q26 0 54 19q42 28 42 69q0 28 -20 57l700 472q31 -45 72 -45q26 0 54 19l19 -28q-27 -28 -12 -51q20 -30 51 -6l21 -31q-29 -27 -13 -51q20 -30 50 -4l23 -34q-32 -23 -12 -52q19 -28 52 -7
l24 -37q-29 -26 -11 -52q19 -28 49 -3zM1911 1006l-271 401l-660 -445l271 -401zM962 856q-20 29 -51 7q-31 -21 -12 -49q19 -29 50 -8q32 22 13 50zM1021 768q-20 29 -51 7q-31 -20 -12 -49q18 -27 49 -6q32 21 14 48zM1082 677q-20 30 -52 9q-31 -21 -11 -51q20 -29 51 -8
t12 50zM1147 581q-21 31 -52 10t-11 -52q18 -26 49 -5t14 47zM1062 433l-271 402l-660 -445l271 -402zM1883 1012l-73 -50l-249 369l73 49zM1793 951l-443 -299l-249 369l444 299zM1333 641l-77 -52l-249 369l77 52zM1034 439l-73 -49l-249 368l73 50zM944 378l-443 -299
l-249 369l443 299zM484 68l-77 -52l-249 369l77 52z" />
    <glyph glyph-name="summation" unicode="&#x2211;" 
d="M1638 1318l-1257 -458l-70 192l1257 457zM1729 0h-1346v850h1346v-850zM1561 1317v163l-89 -32v-164zM1384 1252v164l-89 -32v-165zM1201 1189v162l-89 -32v-163zM1704 670l-56 154h-95l56 -154h95zM1510 670l-56 154h-95l56 -154h95zM1023 1120v164l-89 -32v-164z
M1323 670l-56 154h-95l56 -154h95zM840 1057v163l-90 -32v-164zM1129 670l-56 154h-95l56 -154h95zM665 990v164l-90 -33v-163zM938 670l-56 154h-95l56 -154h95zM481 927v163l-89 -32v-164zM745 670l-57 154h-94l55 -154h96zM556 670l-57 154h-95l56 -154h96z" />
    <glyph glyph-name="product" unicode="&#x220f;" 
d="M1914 955q0 -178 -125.5 -303.5t-303.5 -125.5q-66 0 -128 19v-123h33v61h133v-338h-133v52h-33v-81h-140v-126h-675v126h-86v351q-138 14 -232.5 118t-94.5 245q0 151 107 257.5t258 106.5q107 0 197 -57q87 -56 132 -150h234q12 167 135.5 282t292.5 115
q178 0 303.5 -125.5t125.5 -303.5zM1786 1116q-17 60 -94 119t-139 59l-23 -3q-5 -61 -4 -152q-1 -43 41 -73q34 -24 63 -24q15 0 86 37zM1841 944q0 50 -17 76l-93 -23q-28 -6 -68 -43t-40 -61q0 -59 44 -104q28 -27 79 -78q43 25 71 104q24 68 24 129zM1451 1143l-14 145
q-17 4 -36 4q-70 0 -145 -59t-95 -128q30 -13 160 -63q15 -6 30 -6q41 0 73 37q31 34 27 70zM1495 1011q-17 0 -30 -7l-20 19l-17 -17l19 -21q-8 -9 -8 -29q0 -29 15.5 -43t39.5 -14t40 16.5t16 40.5q0 21 -14.5 38t-40.5 17zM1389 905l-32 8v-81zM1659 644l-74 123
q-39 63 -89 63q-60 0 -89 -50l-50 -86v-61q55 -31 150 -31q109 0 152 42zM1311 984l-170 26l-3 -26h173zM742 987q-24 49 -81 87.5t-109 35.5h-20q-4 -53 -3 -123h213zM465 987q0 36 -5 123q-11 0 -24.5 -1.5t-17.5 -1.5q-60 0 -115 -47t-72 -106q25 -11 124 -51
q12 -5 26 -5q48 0 75 53v36h9zM361 698q18 21 18 59q0 85 -50 93l-117 16q-4 -9 -4 -53q0 -58 26.5 -116t61.5 -78q21 25 65 79zM456 534v170q-18 -12 -28 -29l-60 -106q28 -28 88 -35z" />
    <glyph glyph-name="pi" unicode="&#x3c0;" 
d="M1806 119l-147 112h-142v-19h-79v19h-80v-144h-50l-50 -87h-427l-42 53h-239l-12 -53h-233l-13 53h-47v612l45 82h294l120 140q44 52 128 52h423l27 -87l98 91q-62 31 -62 84q0 49 52 80q44 25 98 25h161q53 0 97 -25q53 -31 53 -80q0 -107 -216 -107q-24 0 -58.5 1.5
t-41.5 1.5l-105 -166v-155h80v15h79v-15h131l158 144v-627zM1181 747q-10 122 -49 129t-180 7q-118 0 -152 -17q-42 -21 -96 -119h477zM1117 159v487h-670v-487h670zM1087 193h-614v427h614v-427zM971 458v101h-397v-101h397z" />
    <glyph glyph-name="integral" unicode="&#x222b;" 
d="M1747 1557l-127 -114l-8 8l126 115zM1574 1492h-17v131h17v-131zM1848 1349h-182v16h182v-16zM1513 1451l-8 -8l-127 114l9 9zM1760 1160l-9 -9l-126 115l8 8zM1449 1349h-182v16h182v-16zM1469 1269l-126 -115l-9 9l127 114zM2022 495q0 -219 -106 -418h-290
q22 -6 22 -48q0 -29 -29 -29h-258q-29 0 -29 49q0 22 22 28h-693q22 -6 22 -48q0 -29 -29 -29h-258q-29 0 -29 49q0 22 22 28h-243q-114 219 -114 429q0 204 114 363q390 52 819 52q208 0 423 -9l151 399q-22 14 -22 40q0 48 47 48q48 0 48 -48q0 -49 -48 -48h-2l-135 -393
q153 -7 489 -41q106 -162 106 -374zM1332 712v160h-652v-160h652zM1360 255v396q0 34 -44 34h-616q-34 0 -34 -34v-396q0 -34 34 -34h626q34 0 34 34zM1376 115l-41 58h-85l32 -58h94zM1251 115l-27 58h-93l18 -58h102zM1121 115l-16 58h-91v-58h107zM996 173h-86l-14 -58
h99zM892 173h-85l-26 -58h94zM788 173h-86l-45 -58h99zM1297 740h-405v-20h-19v20h-163v45h10v-35h95v35h10v-35h48v99h19v-99h27v35h10v-35h86v35h10v-35h76v35h10v-35h74v35h10v-35h92v35h10v-45zM1343 259q0 -24 -23 -24h-614q-23 0 -23 24v388q0 24 23 24h604
q33 0 33 -24v-388zM1232 467v121h-424v-121h424zM1681 839q-100 0 -167.5 -76.5t-67.5 -177.5t66 -175q69 -78 169 -78t169 78q66 74 66 175t-66 176q-69 78 -169 78zM358 839q-100 0 -168 -76.5t-68 -177.5t67 -175q69 -78 169 -78t169 78q66 74 66 175t-66 176
q-69 78 -169 78zM1681 362q-87 0 -148 68q-57 66 -57 155t57 155q61 69 148 69t146 -67.5t59 -156.5t-58 -154q-60 -69 -147 -69zM358 362q-88 0 -147 67t-59 156t59 156.5t147 67.5q87 0 146 -67.5t59 -156.5t-58 -154q-60 -69 -147 -69z" />
    <glyph glyph-name="ordfeminine" unicode="&#xaa;" 
d="M1749 1558l-119 -106q-6 -6 -11 0q-5 7 1 12l118 107q7 5 12 -1t-1 -12zM1579 1499q0 -8 -8 -8q-9 0 -9 8v131q0 8 9 8q8 0 8 -8v-131zM1853 1356h-182q-8 0 -8 8t8 8h182q8 0 8 -8t-8 -8zM1515 1464q6 -5 1 -12q-5 -6 -11 0l-119 106q-6 6 -1 12t11 1zM1749 1188
q6 -6 1 -12t-12 -1l-118 107q-6 5 -1 11q5 7 11 1zM1454 1356h-182q-9 0 -9 8t9 8h182q8 0 8 -8t-8 -8zM1515 1282l-119 -107q-6 -5 -11 1t1 12l119 106q6 6 11 -1q5 -6 -1 -11zM1894 76h-47v-76h-1630v76h-60v792h1325v31h66v420q-27 11 -27 41q0 43 43 43q45 0 45 -43
q0 -30 -28 -41v-420h59v-31h254v-792zM1664 406v28h-556v-28h556zM1705 324v28h-638v-28h638zM1812 506v268h-1558v-268h1558zM1705 240v28h-638v-28h638zM1664 158v28h-556v-28h556zM1829 80v26h-1588v-26h1588zM573 289q0 62 -44 106t-107 44q-62 0 -106 -44t-44 -106
q0 -63 44 -107t106 -44q63 0 107 44t44 107zM1753 553h-1004v-35h-32v35h-412v76h16v-60h103v29h18v-29h109v60h16v-60h102v29h19v-29h29v166h32v-166h45v60h17v-60h102v29h19v-29h108v60h16v-60h103v29h18v-29h109v60h16v-60h103v29h18v-29h88v60h17v-60h102v29h18v-29h88
v60h17v-76zM557 289q0 -56 -39.5 -95.5t-95.5 -39.5q-55 0 -94.5 39.5t-39.5 95.5q0 55 39.5 94.5t94.5 39.5q56 0 95.5 -39.5t39.5 -94.5z" />
    <glyph glyph-name="ordmasculine" unicode="&#xba;" horiz-adv-x="1377" 
d="M1149 -262q0 -34 -24 -58t-58 -24h-757q-34 0 -58 24t-24 58v1801q0 34 24 58t58 24h757q34 0 58 -24t24 -58v-1801zM1099 -262v1801q0 32 -32 32h-757q-32 0 -32 -32v-1801q0 -32 32 -32h757q32 0 32 32zM878 811h-142v-811h-108v811h-152v170h152v332h108v-332h142
v-170zM838 896v58h-335v-58h335z" />
    <glyph glyph-name="uni03A9" unicode="&#x3a9;" horiz-adv-x="1377" 
d="M1149 -262q0 -34 -24 -58t-58 -24h-757q-34 0 -58 24t-24 58v1801q0 34 24 58t58 24h757q34 0 58 -24t24 -58v-1801zM1099 -262v1801q0 32 -32 32h-757q-32 0 -32 -32v-1801q0 -32 32 -32h757q32 0 32 32zM969 1107q0 -118 -81 -206l-87 73q-26 -81 -135 -81
q-95 0 -125 90l-95 -69q-73 86 -73 193q0 123 87.5 210.5t210.5 87.5q124 0 211 -87.5t87 -210.5zM856 710h-375v99h375v-99zM969 224q0 -117 -79 -203l-84 87q-32 -98 -140 -98q-93 0 -130 98l-93 -76q-70 83 -70 192q0 123 87.5 210.5t210.5 87.5q124 0 211 -87.5
t87 -210.5zM852 1302l-13 11l-51 -62l13 -11zM915 1211l-8 15l-72 -35l7 -15zM759 1355l-15 6l-30 -74l15 -6zM944 1093v16h-81v-16h81zM648 1291l-30 75l-15 -7l30 -74zM926 997l-71 38l-8 -15l72 -39zM820 1114q-3 59 -46 100t-103 41q-61 0 -104 -43t-44 -104
q11 57 58 91q41 30 94 30q55 0 96 -35q38 -32 49 -80zM564 1258l-58 56l-11 -12l58 -56zM784 1031q0 47 -33 80.5t-80 33.5q-48 0 -81 -33.5t-33 -80.5t33 -80.5t81 -33.5q47 0 80 33.5t33 80.5zM506 1191l-73 34l-7 -15l73 -34zM484 1093v16h-80v-16h80zM499 1026l-7 15
l-71 -38l8 -15zM820 231q-3 59 -46 100t-103 41q-61 0 -104 -43t-44 -104q11 58 58 91q41 30 94 30q55 0 96 -34q38 -32 49 -81zM784 148q0 47 -33 80.5t-80 33.5q-48 0 -81 -33.5t-33 -80.5t33 -80.5t81 -33.5q47 0 80 33.5t33 80.5zM761 1077l-81 -70q-8 14 -24 25l82 73
q14 -10 23 -28zM761 194l-81 -70q-8 14 -24 25l82 73q14 -10 23 -28z" />
    <glyph glyph-name="ae" unicode="&#xe6;" 
d="M1704 235q0 -43 -82 -43q6 -10 6 -28q0 -43 -25 -54v-44l38 -66h-1216l41 66v43q-28 11 -28 60q0 12 7 23l-30 -1q-63 -1 -63 44v1018q0 43 43 43h1266q43 0 43 -43v-1018zM1590 769q0 236 -27 354q-7 28 -14.5 35.5t-34.5 13.5q-108 22 -468 22q-388 0 -503 -22
q-28 -6 -35 -13.5t-14 -35.5q-28 -121 -28 -360q0 -272 28 -405q9 -40 49 -48q137 -28 513 -28q330 0 458 28q40 8 49 48q27 130 27 411zM1525 94q0 31 -31 31q-30 0 -30 -31q0 -30 30 -30q31 0 31 30zM1388 64v53h-104v-53h104zM1253 64v53h-104v-53h104zM1115 64v53h-103
v-53h103z" />
    <glyph glyph-name="oslash" unicode="&#xf8;" horiz-adv-x="1726" 
d="M1655 273h-158v-85h-172v-66h-138q72 -8 167 -43q102 -37 161 -79h-1289q116 77 324 122h-134v66h-214v85h-130v1244h1583v-1244zM1635 297v1209h-1546v-1209h1546zM1460 273h-143q20 -45 73 -45q51 0 70 45zM1260 273h-143q20 -45 73 -45q51 0 70 45zM1500 540
q0 -50 -49 -50h-1171q-50 0 -50 50v821q0 50 50 50h1171q49 0 49 -50v-821zM1478 344h-103v32h103v-32zM1404 622v731h-1068v-730zM1430 537v64h-1152v-64h1152zM1392 1159h-141v125h141v-125zM1391 707h-53v339h53v-339zM1388 1295h-1046v50h1046v-50zM1383 1091h-937v56
h937v-56zM1235 1160h-886v124h886v-124zM1325 678h-975v394h975v-394zM423 550h-125v40h125v-40zM1375 1305v35h-45v-35h45zM1325 1305v35h-45v-35h45zM1275 1305v35h-45v-35h45zM1367 1222q1 13 -8 26q2 5 2 11q0 4 -2 7.5t-7 3.5q-6 0 -17 -5l-13 2q-50 0 -44 -52
q-11 -16 -11 -26q0 -9 10 -9q7 0 19 6q12 -9 26 -9q33 0 43 32h-27q-7 -11 -16 -11q-15 0 -15 16l59 1zM1206 1194l-37 58l-37 -58h74zM1380 1009l-18 27l-18 -27h36zM1385 887v87h-42v-87h42zM1085 1194v56h-77v-56h77zM972 1197l-24 17v8q0 36 -35 36q-36 0 -36 -36
t36 -36q13 0 23 9l23 -14zM1378 740h-35l18 -26zM743 1313v21h-32v-21h32zM836 1189v42l-37 37l-34 -37v-42h71zM674 1313v24h-71v-24h71zM708 1189v71h-58v-71h58zM566 1311v26h-96v-26h96zM612 1226q0 36 -35 36q-36 0 -36 -36t36 -36q35 0 35 36zM447 1308v29h-96v-29h96
zM518 1218l-28 30v-24h-21v-13h21v-19zM430 1211v13h-22v24l-27 -30l27 -26v19h22zM1367 1311h-9l-5 5l-6 -5h-9l10 12l-10 13h9l6 -6l5 6h9l-10 -13zM1316 1312h-27v23h27v-23zM1360 1257l-2 -7l-12 8l10 3zM1265 1312h-28v7h28v-7zM1339 1231h-30q1 17 14 17t16 -17z
M1290 1191q-5 -3 -9 -3q-3 0 -3 3q0 6 4 10zM592 1213h-9l-5 5l-6 -5h-9l10 12l-10 13h9l6 -6l5 6h9l-10 -13zM1311 1316v15h-17v-15h17z" />
    <glyph glyph-name="questiondown" unicode="&#xbf;" horiz-adv-x="1058" 
d="M953 60h-40v-60h-757v60h-53v1523h850v-1523zM927 90v1472h-803v-1472h803zM835 686h-619v812h619v-812zM819 646h-69v24h69v-24zM833 569q0 -61 -61 -61t-61 61t61 61t61 -61zM635 469h-410v26h410v-26zM635 369h-410v26h410v-26zM635 269h-410v26h410v-26zM635 169
h-410v26h410v-26zM813 1304v178h-579v-178h579zM813 1164v117h-579v-117h579zM813 1067v75h-579v-75h579zM813 909v132h-579v-132h579zM813 709v177h-579v-177h579zM771 1350h-103v29h103v-29zM774 1392h-138v-18h-227v18h-140v45h505v-45zM385 1350h-40v24h40v-24z" />
    <glyph glyph-name="exclamdown" unicode="&#xa1;" 
d="M2036 103q0 -103 -35 -191q-38 -95 -79 -130q-51 -44 -149 -44q-32 0 -95 18q-75 22 -75 45t42 64q-57 48 -57 120q0 49 47 107q41 44 82 87q34 53 69 106q39 57 107 54l18 -1q9 25 63 112q32 52 32 135q0 79 -71 128q-63 45 -145 45l147 -83q1 -20 20.5 -55t19.5 -47
q0 -55 -125 -114q-149 -72 -174 -102q-31 -38 -139 -216q-80 -132 -167 -198q-399 -303 -1022 -322q-23 22 -41 64q-38 33 -109 103q-35 38 -114 174q-83 144 -83 177q0 36 53 55q40 15 83 15l-53 159l42 67l1408 468q119 -66 222 -125q8 1 18 1q105 0 174 -44
q81 -52 81 -152q0 -80 -32 -135t-65 -110l33 -3q25 -2 25 -3t2 -2q22 -12 27 -30q1 -3 4 -44q11 -125 11 -153zM2010 245q-4 58 -16 68t-74 12l-18 -49q27 -4 108 -31zM1908 324l-19 1q-53 2 -90 -55q45 11 92 8zM2021 102q0 22 -9 123q-70 38 -130 38q-54 0 -90 -9
q-15 -19 -31 -45q-6 -11 -95 -104q-63 -67 -63 -120q0 -78 74 -124q62 -39 146 -39q198 0 198 280zM1917 664l-378 222l-1385 -473l136 -534zM1948 579q0 41 -37 57l-1584 -777q18 -142 46 -176l21 -2q104 0 330 44q235 46 316 87q322 163 469 340q23 28 79 116
q47 75 85 112q31 30 170 98q105 51 105 101zM1551 841l-145 -59l-3 40l7 3l10 -9l3 12l5 2l7 -9l110 44zM1994 39q0 -65 -47 -127q-51 -67 -114 -67q-45 0 -84 18q50 103 54 188l123 -114q27 33 67 106zM887 509l-49 -15l-8 26l40 12zM926 457l-54 -16l-6 23l37 15zM978 396
l-61 -25l-12 26l56 19zM1512 550q-107 -58 -309 -188q-35 -26 -129 -61q-75 -32 -224 -94q-40 -12 -114 -40q-1 0 -417 -199l-90 356l19 17l12 -40q16 6 43 17h1q-2 2 -2 0l-14 28l23 8l15 -28l40 15l-14 27l23 9l15 -27l49 18l-14 28l23 9l15 -28l40 16l-13 26l22 8l14 -26
l48 19l-3 -1l-14 28l22 8l15 -28l44 17l-14 28l22 8l15 -28l52 20v-25l-67 -25l21 -32l55 20l16 -19l-32 -12l19 -27l58 22v-25l-33 -13l23 -27l63 26l3 -28l-123 -56l21 -33q182 41 264 74q135 53 227 153l279 122zM753 301l-21 28l-48 -17l21 -30zM702 343l-18 28l-54 -20
l20 -28zM647 383l-22 31l-57 -20l25 -31zM682 272l-19 31l-46 -18l21 -31zM627 314l-19 29l-53 -20l20 -28zM573 355l-27 31l-46 -17l22 -33zM701 202l-22 33l-90 -38l21 -36zM616 245l-22 32l-50 -20l21 -32zM549 285l-20 29l-51 -20l20 -28zM502 329l-24 32l-51 -19
l22 -33zM539 214l-20 35l-47 -18l23 -33zM429 302l-23 32l-46 -16l21 -34zM474 256l-21 30l-50 -20l16 -28zM588 151l-20 36l-94 -38l22 -39zM355 276l-19 33l-65 -24l11 -38zM394 227l-21 29l-84 -31l11 -35zM473 187l-21 36l-146 -55l14 -43zM470 99l-22 39l-117 -50
l14 -46z" />
    <glyph glyph-name="logicalnot" unicode="&#xac;" 
d="M1287 807h-527v79l43 63v28h-43v414h527v-414h-53v-28l53 -63v-79zM1878 0h-527v79l43 63v28h-43v414h527v-414h-53v-28l53 -63v-79zM1292 491h-103l36 38l-125 125l-40 -36v103h107l-36 -35l126 -125l35 35v-105zM988 721v-105l-40 36l-125 -125l35 -36h-103v103l36 -36
l125 126l-36 37h108zM1193 337l-77 -71v50h-177v-51l-83 72l83 74v-50h177v50zM697 0h-527v79l43 63v28h-43v414h527v-414h-53v-28l53 -63v-79zM1235 1066v273q0 17 -16 17h-390q-17 0 -17 -17v-273q0 -17 17 -17h390q16 0 16 17zM1826 259v273q0 17 -16 17h-390
q-17 0 -17 -17v-273q0 -17 17 -17h390q16 0 16 17zM645 259v273q0 17 -16 17h-390q-17 0 -17 -17v-273q0 -17 17 -17h390q16 0 16 17z" />
    <glyph glyph-name="radical" unicode="&#x221a;" 
d="M1694 169q-201 -245 -585 -245q-414 0 -530 73q-63 -7 -98 -7q-31 0 -80 24t-49 44q0 26 3 91q36 46 73 86q91 99 174 156q139 96 250 116q0 24 24 42.5t51 18.5q0 32 -23 222q-22 184 -20 253q-25 19 -25 38v43q-1 3 -8 18q-6 12 -6 23q0 9 7 30q6 18 4 32q-2 24 0 24
l66 89q55 22 78 20q24 -2 81 -18l51 -73q49 -230 49 -329q0 -211 -19 -350q38 0 74 -20q43 -25 43 -61q0 -39 -21 -39q72 -25 227 -71q77 -21 209 -89v-141zM1073 1301q0 35 -56 35q-42 0 -42 -36q0 -38 56 -38q42 0 42 39zM1103 1156l-21 74h-42l25 -74h38zM957 1251
l-17 82l-20 -19zM938 1228q0 36 -23 36q-26 0 -26 -43q0 -29 26 -29q23 0 23 36zM960 1078q0 36 -23 36q-22 0 -22 -36q0 -35 22 -35q23 0 23 35zM1068 552q14 312 -29 593q-12 -5 -30 -5q-14 0 -30 46q56 -271 56 -513q0 -72 -7 -122q0 -34 17 -34q22 0 23 35zM1273 517
l-7 19l-59 -37l16 -14zM1208 471q0 9 -1 12l-61 55h-18q40 -24 58 -53q-53 -34 -145 -34q-82 0 -165 35q19 -21 76 -40q54 -19 87 -19q88 0 169 44zM1366 156l-27 48l-87 -16l-3 -15l30 -33zM1418 85l-34 47l-81 -19l-3 -16l23 -36zM1223 119l-27 48l-85 -26l-2 -16l25 -30z
M870 461l-16 22l-74 -21l29 -21zM1265 48l-29 42l-101 -22l-3 -15l27 -31zM769 369l-21 19l-84 -33v-45l37 -10v48zM1194 237q-125 -24 -351 -89q-91 -37 -232 -138l26 -5q77 46 230 124q88 37 327 108zM1173 319q-304 -22 -673 -195l-16 -108q16 21 40 71q95 65 292 136
q223 80 357 80v16zM458 8l-48 56q-28 37 -39 73l-6 -77z" />
    <glyph glyph-name="florin" unicode="&#x192;" 
d="M1025 1199q-45 13 -53 13q-7 0 -35 -15q11 30 39 30q23 0 49 -28zM1048 1172q-31 10 -60 10q-28 0 -66 -21q29 41 60 41t66 -30zM1060 1154l-34 1q-13 0 -99 -11q27 28 63 28q31 0 70 -18zM1983 150q0 -44 -61 -80q-55 -31 -102 -31q-35 0 -164 133q-123 129 -142 173
q-26 59 -36 59q-9 0 -51 -33q-92 -75 -189 -100q-73 -18 -213 -18q-48 0 -140 21.5t-140 21.5q-54 0 -84 -12q-19 -8 -39 -123q-23 -138 -57 -201q-57 -106 -169 -106q-46 0 -74 50q-25 43 -25 92q0 481 93 712q139 343 534 428q70 15 154 15q442 0 694 -407
q57 -92 131 -290q80 -216 80 -304zM1019 1304q0 -44 -14 -82q-15 15 -25 15q-18 0 -26 -5q18 32 18 86q0 81 -111 81q-97 0 -280 -150q-210 -171 -262 -191q-82 -25 -163 -49q-77 -36 -77 -133q0 -145 250 -358l-10 -63q-170 182 -180 195q-106 132 -106 231q0 124 102 168
q103 30 206 59q17 6 111 89q270 237 419 237q148 0 148 -130zM1644 786q0 19 -26.5 35.5t-47.5 16.5q-27 0 -27 -33q0 -21 22.5 -36.5t44.5 -15.5q34 0 34 33zM1481 903q0 28 -36 28q-45 0 -45 -18q0 -31 42 -31q39 0 39 21zM1398 844q0 33 -42 33q-39 0 -39 -16
q0 -37 36 -37q45 0 45 20zM1539 709q0 20 -30 38q-26 15 -48 15q-30 0 -30 -30q0 -22 27 -38q24 -15 47 -15q34 0 34 30zM1317 793q0 37 -50 37q-39 0 -39 -29q0 -34 50 -34q39 0 39 26zM1424 622q0 25 -28.5 43.5t-55.5 18.5q-39 0 -39 -30q0 -25 30 -44q26 -18 53 -18
q40 0 40 30zM1582 546q-128 -44 -184 -140q31 27 184 140zM1060 909q-13 23 -38 23q-31 0 -45 -33q18 8 51 8h25q4 1 7 2zM1117 752q0 44 -64 44q-69 0 -69 -49q0 -45 72 -45q61 0 61 50zM1142 620q0 16 -19 29.5t-46 13.5q-28 0 -49.5 -15.5t-21.5 -35.5q0 -45 73 -45
q63 0 63 53zM1166 451q0 50 -68 50t-68 -50q0 -49 68 -49t68 49zM805 609q0 60 -56 95q-49 32 -117 32q-73 0 -135 -46q-69 -49 -69 -119q0 -61 54 -99q49 -36 117 -36q72 0 136 49q70 54 70 124zM766 326l-64 40q-38 21 -70 21q-19 0 -86 -9q78 -12 220 -52zM1097 754
q0 -42 -44 -42q-54 0 -54 37q0 35 52 35q46 0 46 -30zM1126 613q0 -31 -53 -31q-52 0 -52 29q0 39 52 39q53 0 53 -37zM707 641q0 -25 -28 -25q-12 0 -36 6.5t-37 6.5q-31 0 -52.5 -28t-37.5 -28q-26 0 -33 26q21 0 39.5 53.5t75.5 53.5q32 0 107 -52q2 -6 2 -13zM780 601
q0 -35 -31 -77.5t-66 -46.5q-29 -24 -81 -24q-153 0 -153 116q0 43 32 82.5t74 52.5q-46 -30 -48 -43q-4 -23 -24 -51.5t-20 -34.5q0 -37 52 -48t52 -24q-8 -6 -8 -20q0 -21 13 -21q18 0 41 12t37 12q11 0 23 -4q33 6 46 32q-15 3 -15 19q0 13 24.5 48t24.5 53q0 43 -139 86
q9 1 19 1q62 0 120 -39q27 -19 27 -81zM652 598q0 -35 -56 -35q-30 0 -30 26q0 34 49 34q37 0 37 -25zM742 631q0 -27 -33.5 -61.5t-33.5 -44.5q0 -5 13.5 -6.5t13.5 -14.5q0 -12 -10 -12q-7 0 -20 2t-20 2q-20 0 -45 -14.5t-30 -14.5l-7 6q-2 4 -2 8q0 5 6 11.5t6 10.5
q0 23 -50 27q-53 4 -59 48q30 -31 114 -31q48 0 91 25q51 29 51 73q0 10 -3 20q18 -14 18 -34zM1055 767q0 6 -18 6q-23 0 -23 -18q0 -1 23 -1q18 0 18 13zM1077 628q0 6 -18 6q-23 0 -23 -18q0 -1 23 -1q18 0 18 13zM643 598q-35 -6 -68 -16q12 -11 28 -11q23 0 40 27z" />
    <glyph glyph-name="approxequal" unicode="&#x2248;" horiz-adv-x="877" 
d="M664 -25q-35 -21 -106 -57q-119 0 -228 54q-83 229 -83 626q0 147 21 344q25 232 62 333q109 54 228 55q36 -15 106 -58l-23 -288l-150 -97q-48 -73 -59 -147q-6 -36 -6 -161q0 -140 48 -197q21 -26 167 -118z" />
    <glyph glyph-name="Delta" unicode="&#x2206;" horiz-adv-x="1240" 
d="M1145 542q-22 -92 -121 -174q-102 -83 -196 -83q-218 0 -317 90v525q99 -30 190 -30q142 0 259 131q97 108 140 254h45v-713zM564 -25q-68 -41 -106 -57q-119 0 -228 54q-83 230 -83 626q0 154 20 344q25 227 63 333q109 54 228 55q38 -16 106 -58l-23 -288l-150 -97
q-65 -99 -65 -250q0 -182 32 -233q25 -40 183 -140zM1115 545v658q-52 -146 -156 -247q-119 -116 -258 -116q-84 0 -160 20v-472q89 -73 287 -73q75 0 166 68q99 74 121 162z" />
    <glyph glyph-name="Delta" unicode="&#x394;" horiz-adv-x="1240" 
d="M1145 542q-22 -92 -121 -174q-102 -83 -196 -83q-218 0 -317 90v525q99 -30 190 -30q142 0 259 131q97 108 140 254h45v-713zM564 -25q-68 -41 -106 -57q-119 0 -228 54q-83 230 -83 626q0 154 20 344q25 227 63 333q109 54 228 55q38 -16 106 -58l-23 -288l-150 -97
q-65 -99 -65 -250q0 -182 32 -233q25 -40 183 -140zM1115 545v658q-52 -146 -156 -247q-119 -116 -258 -116q-84 0 -160 20v-472q89 -73 287 -73q75 0 166 68q99 74 121 162z" />
    <glyph glyph-name="guillemotleft" unicode="&#xab;" 
d="M1772 354q3 -12 3 -22q0 -60 -78 -59v-123q0 -62 -44 -106t-106 -44h-1087q-62 0 -106 43.5t-44 106.5v535q0 63 44 106.5t106 43.5h1087q62 0 106 -44t44 -106v-162q51 15 51 30q0 29 -43 29v8q67 10 67 -45v-191zM1750 317v213q-33 -22 -53 -22v-211q35 0 53 20z
M1667 153v569q-37 50 -96 56q48 -43 48 -85v-537q0 -88 -67 -123q115 17 115 120zM1366 299v75q0 25 -25 25h-211q-25 0 -25 -25v-75q0 -25 25 -25h211q25 0 25 25zM1364 566v52q0 31 -22 53t-53 22h-759q-31 0 -53 -22t-22 -53v-52q0 -31 22 -53t53 -22h759q31 0 53 22
t22 53zM1315 465v15h-806v-15h806zM1036 299v75q0 25 -25 25h-211q-25 0 -25 -25v-75q0 -25 25 -25h211q25 0 25 25zM706 299v75q0 25 -25 25h-211q-25 0 -25 -25v-75q0 -25 25 -25h211q25 0 25 25zM898 33q-440 18 -468 46t-64 39q4 -58 38 -74q22 -11 86 -11h408z
M1214 585l-16 -24h-99l21 24h94zM1346 299l-5 -5h-211l-5 5v75l5 5h211l5 -5v-75zM974 585l-16 -24h-99l21 24h94zM734 585l-16 -24h-99l21 24h94zM1016 299l-5 -5h-211l-5 5v75l5 5h211l5 -5v-75zM686 299l-5 -5h-211l-5 5v75l5 5h211l5 -5v-75z" />
    <glyph glyph-name="guillemotright" unicode="&#xbb;" 
d="M1532 -205q0 -48 -48 -67q-18 -7 -88 -18l-313 -48q-40 -6 -72 -6q-92 0 -146 71q-42 77 -85 154q-74 136 -83 157q-27 65 -40 171l-106 884q-2 38 27 51q12 5 64 11l296 33q53 6 79 61h23l32 58l-12 114l8 24l-12 141q-16 2 -17 17q-2 14 25 14q24 0 26 -18
q-6 -7 -18 -13l12 -141l11 -24l12 -114l36 -58h18l42 -84l103 -978l171 -266q20 -29 39 -57q16 -28 16 -69zM1507 -205q0 37 -14 61l-36 50l-175 273l-103 979l-33 63h-113q-29 -52 -93 -58q-110 -10 -329 -36q-37 -5 -35 -34l1 -15l105 -866q12 -104 39 -166q7 -17 81 -153
q39 -71 77 -143q50 -69 132 -69q31 0 233 30t226 38q37 14 37 46zM1101 1025v-14q-32 64 -70 64q-56 0 -173 -18t-161 -18l-11 2l13 18q293 40 351 40q38 0 48 -20q5 -12 3 -54zM1003 996q0 -8 -19 -46q-21 -43 -31 -43q-13 0 -13 13q0 8 19 46q21 42 31 42q13 0 13 -12z
M953 996q0 -8 -19 -46q-21 -43 -31 -43q-13 0 -13 13q0 8 19 46q21 42 31 42q13 0 13 -12zM903 996q0 -8 -19 -46q-21 -43 -31 -43q-13 0 -13 13q0 8 19 46q21 42 31 42q13 0 13 -12zM1121 855q0 -8 -10 -23q-83 -13 -165 -27q-102 -16 -166 -16q-30 0 -42 26q-7 25 -13 50
q47 -45 63 -45q18 0 154.5 15t142.5 18q18 8 23 58q13 -48 13 -56zM678 1113q-51 -9 -51 -46q0 -28 8 -143l-11 -3q-19 142 -19 160q0 30 25 30zM1230 272q2 -43 -62 -48l-163 -28q-104 -22 -162 -22q-57 0 -74 60q-4 18 -23 167q-16 99 -37 298l-1 8q-2 47 41 52
q380 47 384 47q39 0 45 -54zM1231 173l-126 -24l2 -24l-20 -2l-4 44l142 27zM1302 22q0 -15 -35 -21q-263 -52 -361 -52q-13 0 -44 34t-31 46v1l38 -17q40 -16 68 -16q23 0 143 15t147 21q35 9 35 15q0 9 -4.5 31.5t-4.5 34.5q49 -74 49 -92zM990 112l-22 -7l-2 27l-162 -27
v22l182 27zM1490 -197q0 -11 -11 -13q-490 -67 -492 -67q-11 0 -11 12q0 11 10 13q490 67 492 67q12 0 12 -12zM1131 747q0 19 -31 19q-53 0 -53 -29q0 -20 23 -20q61 0 61 30zM1142 660q0 20 -31 20q-53 0 -53 -30q0 -19 23 -19q61 0 61 29zM1158 568q0 20 -31 20
q-53 0 -53 -30q0 -19 23 -19q61 0 61 29zM988 717q0 22 -27 22q-54 0 -54 -29q0 -20 29 -20q52 0 52 27zM1172 474q0 19 -31 19q-53 0 -53 -29q0 -20 23 -20q61 0 61 30zM999 631q0 22 -27 22q-54 0 -54 -29q0 -20 29 -20q52 0 52 27zM1190 376q0 19 -32 19q-44 0 -44 -25
q0 -19 32 -19q44 0 44 25zM1015 539q0 22 -26 22q-55 0 -55 -29q0 -20 29 -20q52 0 52 27zM853 697q0 27 -41 27q-54 0 -54 -34q0 -27 41 -27q54 0 54 34zM1203 304q0 18 -31 18q-44 0 -44 -25q0 -18 31 -18q44 0 44 25zM1029 444q0 22 -27 22q-55 0 -55 -29q0 -19 29 -19
q53 0 53 26zM864 611q0 27 -42 27q-53 0 -53 -35q0 -27 41 -27q54 0 54 35zM1089 361q0 19 -35 19q-44 0 -44 -25q0 -19 32 -19q47 0 47 25zM880 519q0 27 -41 27q-54 0 -54 -35q0 -27 41 -27q54 0 54 35zM1100 289q0 18 -34 18q-44 0 -44 -25q0 -18 31 -18q47 0 47 25z
M987 341q0 19 -31 19q-44 0 -44 -25q0 -19 31 -19q44 0 44 25zM894 424q0 27 -42 27q-54 0 -54 -34q0 -27 42 -27q54 0 54 34zM998 269q0 19 -32 19q-44 0 -44 -26q0 -18 32 -18q44 0 44 25zM878 326q0 19 -31 19q-44 0 -44 -25q0 -19 31 -19q44 0 44 25zM896 254
q0 19 -32 19q-44 0 -44 -26q0 -18 32 -18q44 0 44 25z" />
    <glyph glyph-name="ellipsis" unicode="&#x2026;" 
d="M1689 1172q-14 -32 -48 -87l-238 18l-80 125q0 -105 68 -166q65 -59 171 -59l82 -439v-200h-49v-49h41l20 -150l-20 -165h-1227l-20 165l20 150h40v49h-49v200l83 439q108 0 173 59t65 166l-79 -125l-238 -18q-34 55 -48 87q0 98 45 188q206 146 611 146q402 0 632 -146
q44 -90 45 -188zM1219 1188v86q-69 9 -233 9q-123 0 -160 -9l-1 -86h394zM1480 315l-1 49h-919v-49h920zM1132 159q0 37 -37 37t-37 -37t37 -37t37 37zM993 159q0 37 -37 37t-37 -37t37 -37t37 37zM846 159q0 37 -37 37t-37 -37t37 -37t37 37zM712 159q0 37 -37 37t-37 -37
t37 -37t37 37zM565 159q0 37 -37 37t-37 -37t37 -37t37 37z" />
    <glyph glyph-name="uni00A0" unicode="&#xa0;" 
d="M1760 1011q0 -111 -101 -214h99v-757h-50v-40h-1374v40h-46v757h203q163 136 163 324q0 146 -100 208h1011q76 -29 135.5 -127t59.5 -191zM1734 1020q0 76 -52 166q-55 93 -122 123h-944q63 -66 63 -190q0 -180 -140 -322h1083q112 97 112 223zM1728 286v481h-1410v-481
h1410zM1728 53v207h-323v-43h-852v43h-235v-207h1410zM1712 347h-709v395h709v-395zM1686 373v343h-657v-343h657zM1639 585h-31v101h31v-101zM1622 467h-150v34h150v-34zM1622 401h-150v35h150v-35zM1563 578h-501v108h501v-108zM1437 467h-149v34h149v-34zM1437 401h-149
v35h149v-35zM1253 467h-149v34h149v-34zM1253 401h-149v35h149v-35z" />
    <glyph glyph-name="Agrave" unicode="&#xc0;" horiz-adv-x="1357" 
d="M1007 0h-657v1057h657v-1057zM909 807v98h-461v-98h461zM869 573v77h-100v-77h100zM869 453v77h-100v-77h100zM726 573v77h-100v-77h100zM869 333v77h-100v-77h100zM726 453v77h-100v-77h100zM583 573v77h-100v-77h100zM869 213v77h-100v-77h100zM726 333v77h-100v-77
h100zM583 453v77h-100v-77h100zM726 213v77h-100v-77h100zM583 333v77h-100v-77h100zM583 213v77h-100v-77h100z" />
    <glyph glyph-name="Atilde" unicode="&#xc3;" 
d="M1847 0h-1644v1234l132 199h409l121 -199h982v-1234zM1791 92v25h-1530v85h1530v25h-1530v933h1530v25h-1555v-1093h1555z" />
    <glyph glyph-name="Otilde" unicode="&#xd5;" 
d="M1700 76l-95 -76h-1258v1383h1353v-1307zM1229 748q0 76 -53.5 129.5t-129.5 53.5q-75 0 -128.5 -53.5t-53.5 -129.5t53.5 -129.5t128.5 -53.5q76 0 129.5 53.5t53.5 129.5zM506 1197v164h-122v-164h122zM1435 40v445h-669v-445h669zM1079 719h-64v61h64v-61zM490 1218
h-92v66h92v-66zM1361 106h-37v-16h-69v16h-45v339h151v-339z" />
    <glyph glyph-name="OE" unicode="&#x152;" 
d="M1742 801q6 -7 -4 -11v-641q0 -6 -5 -7l-79 -98l-2 -2v-2q0 -7 -8 -7q-8 1 -11 7l-4 9q-11 26 -99 69q-84 40 -114 40h-4v-50q5 -19 37 -19v-211q0 -46 -14 -66q-22 -31 -114 -31h-445v-45h-190v45h-67v-13h-154v352h154v-31h53v1l-11 6q-17 8 -17 24t17 9l11 -5v176
l-11 6q-17 8 -17 25q0 13 17 7l11 -4v175l-11 6q-17 8 -17 25q0 13 17 8l11 -4v194l-11 6q-17 8 -17 25q0 13 17 8l11 -4v76h-53v-31h-154v349h154v-13h67v46h31v51h-77v13h-162q-40 -53 -107 -53q-55 0 -94.5 39t-39.5 95q0 55 39.5 94.5t94.5 39.5q75 0 114 -64h155v16
h278v-16h174q39 64 114 64q55 0 94.5 -39.5t39.5 -94.5q0 -56 -39.5 -95t-94.5 -39q-67 0 -107 53h-181v-13h-74v-51h32v-46h445q71 0 96 -16q32 -20 32 -83v-208q-31 0 -37 -18v-49h13l199 95q2 2 11 21.5t17 16.5q8 -1 8 -13v-1l2 -2zM1303 1345q0 40 -28.5 68t-68.5 28
q-60 0 -92 -63h-196v-77h201q34 -53 87 -53q40 0 68.5 28.5t28.5 68.5zM1396 888v196q0 9 -99 29q38 -14 82 -41v-184h17zM1404 772v26h-244v-26h244zM1724 472v31l-84 -15h-268q17 7 30 15q32 19 38 43q9 36 26 89l-34 8q-7 -27 -24 -73q-9 -18 -81 -69v255h-32v-198
q-19 99 -55 99q-94 0 -94 -94q0 -42 53 -75h-186v-33h248q-96 -36 -96 -157l27 -5q7 33 31 87q16 20 72 58v-258h32v200q12 -84 84 -84q67 0 67 87q0 20 -48 72h210zM640 1301v77h-177q-32 63 -92 63q-40 0 -68.5 -28t-28.5 -68t28.5 -68.5t68.5 -28.5q53 0 87 53h182z
M852 697v138l-47 14v-127zM574 863v261h-12v-261h12zM869 673l-183 84q-16 0 0 -11q12 -9 82.5 -41t75.5 -32h25zM1143 89v69h-2q-8 0 -60.5 -14.5t-57.5 -19.5l-5 -6q-12 -11 -22 -11q-6 0 -9 8q-6 14 2 129q9 148 7 183q-12 124 -26 363q-1 57 11 57q19 0 50 -30
q1 -2 48.5 -19.5t63.5 -20.5v72h-247q1 -4 1 -10q0 -16 -17 -7l-4 1v-156l4 -4q17 -17 17 -24q0 -23 -17 -14l-4 2v-188l4 -4q17 -18 17 -25q0 -22 -17 -13l-4 2v-171l4 -3q17 -18 17 -24q0 -23 -17 -14l-4 1v-109h267zM1404 142v26h-244v-26h244zM849 479v159l-44 14v-149z
M1396 45h-17v-185q-5 -14 -82 -41q99 20 99 29v197zM869 445l-183 84q-16 -1 0 -12q12 -9 82.5 -40.5t75.5 -31.5h25zM849 259v157l-44 17v-152zM869 235l-183 84q-16 0 0 -12q12 -8 82.5 -40t75.5 -32h25zM849 93v111l-44 21v-122zM574 -193v264h-12v-264h12zM1302 493
q-44 8 -103 27q-17 14 -17 57q0 42 31 42q47 0 89 -126zM1440 387q0 -43 -5.5 -51.5t-26.5 -8.5q-44 0 -81 128q113 -10 113 -68z" />
    <glyph glyph-name="oe" unicode="&#x153;" 
d="M1552 284q0 -226 -160.5 -386.5t-386.5 -160.5t-386.5 160.5t-160.5 386.5q0 237 178 403v376q0 165 95.5 260.5t261.5 95.5q158 0 251 -100q90 -97 90 -256v-342q218 -165 218 -437zM1222 786v267q0 260 -229 260q-245 0 -245 -260v-287q120 65 257 65q114 0 217 -45z
M1056 779h-109l55 -97zM1410 220q0 168 -119 287t-287 119t-287 -119t-119 -287t119 -287t287 -119t287 119t119 287zM1380 220q0 -155 -110.5 -265.5t-265.5 -110.5t-265.5 110.5t-110.5 265.5t110.5 265.5t265.5 110.5t265.5 -110.5t110.5 -265.5zM1244 442l-25 25
l-57 -57l25 -25zM1327 208v35h-81v-35h81zM1019 462v80h-35v-80h35zM1240 14l-57 56l-25 -24l57 -57zM847 404l-57 57l-25 -25l57 -57zM1178 224q0 73 -51.5 125t-124.5 52t-125 -52t-52 -125q0 -72 52 -124t125 -52t124.5 52t51.5 124zM1021 -92v80h-35v-80h35zM759 207v35
h-81v-35h81zM843 40l-25 25l-57 -57l25 -25zM1148 224q0 -60 -43 -103t-103 -43q-61 0 -104 43t-43 103q0 61 43 104t104 43q60 0 103 -43t43 -104z" />
    <glyph glyph-name="endash" unicode="&#x2013;" 
d="M1851 725h-55l-56 48v30h62q-9 77 -62 106v144q0 260 -248 260q-127 0 -186 -94q-42 -66 -42 -156v-342q218 -164 218 -437q0 -227 -160 -387t-387 -160t-387 160t-160 387q0 228 160.5 387.5t386.5 159.5q113 0 217 -45v267q0 129 51 219q83 147 287 147
q168 0 264.5 -96.5t96.5 -259.5v-338zM986 779h-109l55 -97zM1340 220q0 168 -119 287t-287 119t-287 -119t-119 -287t119 -287t287 -119t287 119t119 287zM1310 220q0 -155 -110.5 -265.5t-265.5 -110.5t-265.5 110.5t-110.5 265.5t110.5 265.5t265.5 110.5t265.5 -110.5
t110.5 -265.5zM1174 442l-25 25l-57 -57l25 -25zM1257 208v35h-81v-35h81zM949 462v80h-35v-80h35zM1170 14l-57 56l-25 -24l57 -57zM777 404l-57 57l-25 -25l57 -57zM1108 224q0 73 -51.5 125t-124.5 52t-125 -52t-52 -125q0 -72 52 -124t125 -52t124.5 52t51.5 124z
M951 -92v80h-35v-80h35zM689 207v35h-81v-35h81zM773 40l-25 25l-57 -57l25 -25zM1078 224q0 -60 -43 -103t-103 -43q-61 0 -104 43t-43 103q0 61 43 104t104 43q60 0 103 -43t43 -104z" />
    <glyph glyph-name="emdash" unicode="&#x2014;" 
d="M1770 583q0 -53 -55 -57h-78v-43h30v-81h-30v-28h30v-116h-55v50h-89v-50h-60v116h25v28h-25v81h25v43h-693q-19 -36 -43 -36q-23 0 -37 36h-28v-36q-56 0 -56 36h-21q10 -18 26 -54q10 -29 10 -80q0 -68 -49.5 -117t-114.5 -49q-207 0 -207 202q0 77 62 142
q-18 20 -39 63t-21 61q0 239 205 239q65 0 114.5 -49t49.5 -117q0 -51 -37 -120h20q-1 25 17 32q9 4 38 3v-35h29q13 35 37 35t45 -35h923q19 0 35.5 -20t16.5 -44zM571 776q0 77 -103 77q-110 0 -110 -88q0 -66 35 -66q22 0 43 23q3 -59 3 -66q0 -13 -13 -40
q-15 -31 -17 -39q1 -5 17 -35q13 -24 13 -39q0 -48 -10 -68q-13 25 -36 25q-43 0 -43 -51q0 -104 124 -104q96 0 96 93q0 52 -15 52q-21 0 -24 -25q-3 -30 -32 -30q-30 0 -30 45q0 63 68 68q-26 20 -26 70q0 52 26 73q-68 5 -68 68q0 45 30 45q29 0 32 -30q3 -25 24 -25
q16 0 16 67z" />
    <glyph glyph-name="degree" unicode="&#xb0;" 
d="M1915 0h-1782v246q104 9 186 54q197 107 254 374q31 144 152 243q128 106 299 106t299 -106q120 -99 151 -243q58 -267 255 -374q82 -45 186 -54v-246zM1346 605q0 130 -94.5 221.5t-227.5 91.5t-227 -91.5t-94 -221.5t94 -222t227 -92t227.5 92t94.5 222zM1332 593h-130
v26h130v-26zM1036 774h-26v130h26v-130zM1246 798l-45 -59l-7 7l-135 -124l-12 12l139 119l-9 8zM1008 637l-19 -16l-56 79l-12 -8l-29 71l69 -43l-14 -11zM1055 605q0 -31 -31 -31t-31 31q0 30 31 30t31 -30zM1036 303h-26v130h26v-130zM847 593h-130v26h130v-26z" />
    <glyph glyph-name="quoteleft" unicode="&#x2018;" 
d="M1793 107q0 -117 -225 -200t-544 -83t-544.5 83t-225.5 200t225.5 200t544.5 83t544 -83t225 -200zM1024 -71q-165 15 -284 41q-283 62 -287 171q-3 90 124 146q-223 -56 -220 -146q3 -109 287 -168q179 -37 380 -44z" />
    <glyph glyph-name="quoteright" unicode="&#x2019;" 
d="M1518 821l-104 -70l64 -110l-121 -26l22 -128l-123 18l-22 -125l-114 65l-64 -107l-83 96l-98 -77l-40 122l-125 -37l10 125l-128 14l54 112l-116 60l91 88l-88 92l118 52l-45 118l125 6v127l119 -42l48 119l96 -80l84 91l61 -107l114 52l17 -121l127 9l-31 -124l124 -34
l-74 -104zM1374 833q0 146 -103.5 249t-249.5 103t-249 -103t-103 -249t103 -250t249 -104t249.5 104t103.5 250z" />
    <glyph glyph-name="divide" unicode="&#xf7;" 
d="M1753 649h-861q14 60 60 106q51 51 109 51q34 0 67 -12q51 95 129 95q68 0 117 -52q39 29 93 29q41 0 80 -28.5t51 -67.5q49 1 85 -18q70 -36 70 -103zM1379 999l-67 -94l-58 8q-28 118 -124 195t-220 77q-146 0 -249 -103t-103 -249t103 -250t249 -104q182 0 288 147h46
l24 -141l-123 20l-22 -125l-114 65l-64 -107l-83 96l-98 -77l-40 122l-124 -37l9 125l-128 14l55 112l-117 60l91 88l-88 92l118 52l-44 118l124 6v127l119 -42l48 119l96 -80l85 91l60 -107l114 52l18 -121l126 9l-30 -124z" />
    <glyph glyph-name="lozenge" unicode="&#x25ca;" 
d="M1776 744h-1503q39 106 133 120q1 23 5 54l-37 -11l5 63l-64 7l27 56l-58 29l45 44l-44 47l59 25l-22 60l62 3v63l60 -21l24 59l48 -40l42 46l30 -54l57 27l9 -61l63 5l-15 -63l22 -6q77 97 206 97q124 0 225 -94q61 36 134 36q182 0 207 -203q18 6 43 6q70 0 111 -42
t41 -112q0 -19 -3 -44q80 -20 88 -96zM697 1157q-39 121 -168 121q-73 0 -124.5 -51.5t-51.5 -124.5q0 -85 67 -138q20 67 77 106t128 39q27 0 49 -6q6 23 23 54z" />
    <glyph glyph-name="ydieresis" unicode="&#xff;" 
d="M1776 744h-1503q39 106 133 120q1 23 5 54l-37 -11l5 63l-64 7l27 56l-58 29l45 44l-44 47l59 25l-22 60l62 3v63l60 -21l24 59l48 -40l42 46l30 -54l57 27l9 -61l63 5l-15 -63l22 -6q77 97 206 97q124 0 225 -94q61 36 134 36q182 0 207 -203q18 6 43 6q70 0 111 -42
t41 -112q0 -19 -3 -44q80 -20 88 -96zM1570 619q-15 -48 -15 -111q0 -58 -50 -58q-52 0 -52 50q0 74 117 119zM1186 619q-12 -39 -13 -79q-1 -47 -6 -60q-10 -30 -46 -30q-50 0 -50 50q0 75 115 119zM1369 416q-15 -48 -15 -111q0 -58 -50 -58q-51 0 -51 49q0 75 116 120z
M985 416q-12 -39 -13 -79q-1 -47 -5 -60q-11 -30 -46 -30q-51 0 -51 49q0 76 115 120zM697 1157q-39 121 -168 121q-73 0 -124.5 -51.5t-51.5 -124.5q0 -85 67 -138q20 67 77 106t128 39q27 0 49 -6q6 23 23 54z" />
    <glyph glyph-name="Ydieresis" unicode="&#x178;" 
d="M1776 744h-1503q39 106 133 120q9 245 219 245q27 0 49 -6q22 85 96 138q71 52 160 52q124 0 225 -94q61 36 134 36q182 0 207 -203q18 6 43 6q70 0 111 -42t41 -112q0 -19 -3 -44q80 -20 88 -96z" />
    <glyph glyph-name="fraction" unicode="&#x2044;" 
d="M1776 744h-1503q39 106 133 120q9 245 219 245q27 0 49 -6q22 85 96 138q71 52 160 52q124 0 225 -94q61 36 134 36q182 0 207 -203q18 6 43 6q70 0 111 -42t41 -112q0 -19 -3 -44q80 -20 88 -96zM1255 526l-6 -35l-66 11l5 -68l-35 -3l-5 69l-63 -30l-14 33l61 27
l-48 56l28 23l44 -52l35 60l31 -18l-35 -61zM874 526l-6 -35l-66 11l5 -68l-34 -3l-6 69l-63 -30l-14 33l61 27l-48 56l28 23l44 -52l35 60l31 -18l-35 -61zM1055 325l-5 -35l-67 12l5 -69l-34 -3l-6 68l-63 -28l-14 32l61 27l-48 55l27 23l45 -51l35 60l32 -18l-36 -61z
M674 325l-5 -35l-66 12l4 -69l-34 -3l-6 68l-63 -28l-14 32l61 27l-48 55l28 23l44 -51l36 60l31 -18l-35 -61z" />
    <glyph glyph-name="Euro" unicode="&#x20ac;" 
d="M1776 744h-1503q39 106 133 120q9 245 219 245q27 0 49 -6q22 85 96 138q71 52 160 52q124 0 225 -94q61 36 134 36q182 0 207 -203q18 6 43 6q70 0 111 -42t41 -112q0 -19 -3 -44q80 -20 88 -96zM1222 619q-15 -48 -15 -111q0 -58 -50 -58q-52 0 -52 50q0 74 117 119z
M838 619q-12 -39 -13 -79q-1 -47 -6 -60q-10 -30 -46 -30q-50 0 -50 50q0 75 115 119zM1021 416q-15 -48 -15 -111q0 -58 -50 -58q-51 0 -51 49q0 75 116 120zM637 416q-12 -39 -13 -79q-1 -47 -5 -60q-11 -30 -46 -30q-51 0 -51 49q0 76 115 120z" />
    <glyph glyph-name="dagger" unicode="&#x2020;" 
d="M1807 0h-1565q69 214 215 300q139 83 265 94l-177 328l291 -104q-66 106 -66 178v42h-207l207 115l77 347l178 -63l178 63l73 -347l211 -115h-211v-31q0 -108 -62 -189l290 104l-176 -328q125 -11 265 -94q145 -86 214 -300zM951 618h-64l-100 -124l43 -27z" />
    <glyph glyph-name="guilsinglleft" unicode="&#x2039;" 
d="M1776 744h-1503q39 106 133 120q9 245 219 245q27 0 49 -6q22 85 96 138q71 52 160 52q124 0 225 -94q61 36 134 36q182 0 207 -203q18 6 43 6q70 0 111 -42t41 -112q0 -19 -3 -44q80 -20 88 -96zM1134 485l-269 -317l85 247l-151 37l127 204h132l-85 -137z" />
    <glyph glyph-name="guilsinglright" unicode="&#x203a;" 
d="M1776 744h-1503q39 106 133 120q9 245 219 245q27 0 49 -6q22 85 96 138q71 52 160 52q124 0 225 -94q61 36 134 36q182 0 207 -203q18 6 43 6q70 0 111 -42t41 -112q0 -19 -3 -44q80 -20 88 -96zM1310 209q0 -71 -38 -120q-13 -17 -71 -66q-38 -32 -38 -62q0 -26 26 -66
q-92 37 -92 93q0 3 6 15l40 14l-34 16l12 20l58 18l-40 10l18 28l50 8l-34 18l16 22l51 9l-53 22q-1 35 -80 57q-5 1 -110 25q-119 27 -217 57q-69 21 -122 71q-62 59 -62 125l175 10l-175 22l9 28l168 8l-154 28l22 14l188 10l-164 32l30 16l128 2l-106 20l18 10h468
q-196 -115 -196 -211q0 -53 79 -88q139 -62 145 -66q79 -53 79 -149z" />
    <glyph glyph-name="uniFB01" unicode="&#xfb01;" 
d="M1845 981q0 -44 -32 -77.5t-76 -33.5q-38 0 -67 18q-34 22 -34 57q0 40 48 40q-11 -12 -11 -35q0 -44 64 -44q28 0 49.5 23t21.5 52q0 47 -40 47q-27 0 -27 -31q0 -11 27 -45q-63 0 -63 59q0 21 20 37.5t41 16.5q79 0 79 -84zM1869 798q0 -49 -53 -49h-18q32 17 32 41
q0 23 -26 23q-25 0 -43.5 -18t-18.5 -42q0 -28 54 -53q-13 -4 -27 -4q-63 0 -63 57q0 39 29.5 67.5t68.5 28.5q65 0 65 -51zM1856 551q0 -86 -83 -86q-58 0 -58 51q0 38 57 38q-22 -14 -22 -31q0 -23 23 -23q47 0 47 51q0 43 -47 43q-49 0 -89 -50q5 86 89 86q83 0 83 -79z
M1682 818q0 -72 -101 -72q-47 0 -142 7t-143 7q-39 0 -86 -6q87 -9 185 -24q122 -19 153 -28q107 -31 107 -90q0 -60 -63 -60q-30 0 -30 29q0 18 15 30q0 -2 -1 -7q0 -17 16 -17q27 0 27 25q0 58 -448 108q69 -17 215 -61q179 -60 179 -169q0 -85 -73 -85q-76 0 -76 72
q0 46 61 49q-26 -19 -26 -49q0 -36 38 -36q40 0 40 49q0 70 -107 116q-31 13 -167 50q-65 17 -108 39q15 34 15 60t-13 51q29 36 104 45q9 1 119 3q198 4 198 106q0 35 -34 35q-30 0 -54 -37v17q0 57 54 57q27 0 48.5 -20t21.5 -52q0 -132 -226 -141l-104 -2q-64 -5 -96 -30
q68 9 134 9q45 0 135 -7t135 -7q62 0 62 36q0 29 -31 29q-18 0 -28 -17q-3 9 -3 17q0 36 31 36q67 0 67 -65zM999 948q0 -21 -21 -21q-19 0 -19 21q0 20 19 20q21 0 21 -20zM999 1001q-50 0 -122 -70q15 56 29 73q21 24 72 24h13zM1038 775q0 -53 -30 -93q-34 -45 -89 -45
q85 50 85 128q0 113 -132 121q26 9 57 9q109 0 109 -120zM1168 903q0 -30 -55 -64q14 -39 14 -67q0 -12 -14 -24.5t-14 -31.5q0 -15 19.5 -33.5t19.5 -43.5q0 -37 -42 -64q-38 -25 -76 -23q-25 1 -39 1q-45 0 -79 -22q-20 -12 -96 -78l-21 25l78 72q48 39 90 39q7 0 26 -1
t34 -1q27 0 56 14q35 16 35 40q0 18 -20.5 36.5t-20.5 35.5t12.5 34.5t12.5 24.5q0 11 -12.5 39t-12.5 36t33 29.5t33 36.5q0 7 -35 28q-55 33 -86 105t-69 93.5t-109 21.5q-49 0 -145 -20.5t-145 -20.5q-91 0 -165 29q-65 25 -65 92q0 49 53 79q-19 -36 -19 -67
q0 -46 49 -69q61 -28 152 -28q48 0 142 20.5t142 20.5q93 0 149 -43q32 -24 54 -79.5t42 -72.5l58 -42q36 -28 36 -57zM779 1078l-8 -33q-53 5 -88 5q-41 0 -148 -35t-158 -35q-198 0 -198 124q0 78 77 78q65 0 65 -55q0 -36 -52 -36h-14q29 17 29 29q0 27 -30 27
q-37 0 -37 -40q0 -91 160 -91q55 0 158.5 34t150.5 34q38 0 93 -6zM762 953l-13 -30q-64 19 -135 19q-82 0 -137 -51l-80 -94q-46 -51 -106 -51q-110 0 -110 110q0 101 89 101q38 0 40 -64q-16 25 -42 25q-49 0 -49 -65q0 -72 67 -72q39 0 83 51q64 77 89 96q68 51 167 51
q65 0 137 -26zM729 883l-6 -32q-34 8 -69 8q-84 0 -133 -77q-38 -72 -75 -144q-51 -77 -137 -77q-23 0 -39.5 18t-16.5 41q25 -23 66 -23q65 0 107 78q36 71 71 143q53 78 143 78q21 0 89 -13zM698 753q-29 -3 -43 -6q-27 -7 -42 -22q-33 -32 -60 -142q-33 -130 -48 -159
q-46 -89 -122 -89q-87 0 -87 66q0 61 48 61q22 0 39 -20q-51 -2 -51 -37q0 -33 43 -33q65 0 99 68q17 34 44 148q24 102 53 143q38 54 123 56z" />
    <glyph glyph-name="uniFB02" unicode="&#xfb02;" 
d="M1789 392q0 -20 -44 -72q-51 -59 -111 -91q-103 -54 -239 -54q-79 0 -229 49t-229 49q-22 0 -64.5 -6t-64.5 -6q-28 0 -28 20q0 26 63 64q50 30 92 43q58 18 123 18q71 0 206 -40t206 -40q65 0 296 92q23 0 23 -26zM1309 674q0 -20 -44 -72q-51 -59 -111 -91
q-103 -54 -239 -54q-79 0 -229 49t-229 49q-22 0 -64.5 -6t-64.5 -6q-28 0 -28 20q0 26 63 64q50 30 92 43q58 18 123 18q71 0 206 -40t206 -40q65 0 296 92q23 0 23 -26zM1287 112q0 -20 -44 -72q-51 -59 -111 -91q-103 -54 -239 -54q-79 0 -229 49t-229 49q-22 0 -64.5 -6
t-64.5 -6q-28 0 -28 20q0 26 63 64q50 30 92 43q58 18 123 18q71 0 206 -40t206 -40q65 0 296 92q23 0 23 -26zM1736 368q-139 -75 -267 -75q-71 0 -206 40t-206 40q-119 0 -229 -77q63 9 117 9q81 0 234.5 -48.5t234.5 -48.5q99 0 188.5 43t133.5 117zM1256 650
q-139 -75 -267 -75q-71 0 -206 40t-206 40q-119 0 -229 -77q63 9 117 9q81 0 234.5 -48.5t234.5 -48.5q99 0 188.5 43t133.5 117zM1234 88q-139 -75 -267 -75q-71 0 -206 40t-206 40q-119 0 -229 -77q63 9 117 9q81 0 234.5 -48.5t234.5 -48.5q99 0 188.5 43t133.5 117z" />
    <glyph glyph-name="daggerdbl" unicode="&#x2021;" 
d="M1435 462q-138 -121 -299 -121q-203 0 -346.5 144.5t-143.5 347.5t143.5 346.5t346.5 143.5q59 0 97 -14q-71 -46 -141 -92q-76 -61 -77 -142v-14q1 -10 1 -14q0 -57 -42 -79q9 -28 24 -50q19 -23 52 -73q-14 -29 -72 -67q-2 -12 16.5 -14.5t18.5 -20.5q0 -8 -3 -21
q21 -11 21 -25q0 -10 -14 -30q0 -92 114 -158q98 -56 194 -56q59 0 110 9zM1329 422h-12q-125 0 -229.5 76t-104.5 169q0 12 7 23q-18 12 -18 30q0 8 3 15q-39 7 -37 55q26 15 68 57q-13 18 -36.5 53t-33.5 76q26 18 33 25q14 16 14 37q0 5 -1 21t-1 28q0 121 159 201
q-193 0 -326 -131t-133 -324q0 -188 133.5 -322.5t321.5 -134.5q101 0 193 46zM927 935q0 -14 -22 -29q-23 4 -47 4q-21 0 -80 -18q47 39 63 49q34 20 75 22q11 -14 11 -28zM915 769q0 -74 -80 -74q-11 0 -25 3q68 11 68 79q0 26 -24 67q61 -18 61 -75z" />
    <glyph glyph-name="periodcentered" unicode="&#xb7;" 
d="M1339 109q0 -123 -93 -210t-224 -87t-223.5 87t-92.5 210q0 141 117 230v900q0 82 59 139.5t142 57.5q82 0 140 -58t58 -140v-899q117 -89 117 -230zM1184 119q0 72 -60 118v1006q0 42 -29.5 72t-71.5 30t-72.5 -29.5t-30.5 -71.5v-1007q-60 -45 -60 -118
q0 -63 47.5 -107t114.5 -44t114.5 44t47.5 107zM1094 790v-586q46 -35 46 -85q0 -46 -34.5 -78.5t-83.5 -32.5t-83.5 32.5t-34.5 78.5q0 50 47 85v586h143z" />
    <glyph glyph-name="quotesinglbase" unicode="&#x201a;" 
d="M1855 1043h-131v-405l-55 14v391h-141l93 248h130zM1560 652q-128 -107 -162 -227h-117l81 299q34 22 79 22q9 0 19 -1q55 -7 100 -93zM1842 0h-274q24 23 101 57v322l54 16v-338q51 -11 119 -57zM1343 736l-89 -311h-138l19 364q35 23 86 23q15 0 31 -2q79 -12 91 -74z
M1121 793l-22 -368h-75q-15 -1 -54 -16q-34 15 -46 16h-61l-19 368q8 79 128 79q129 0 149 -79zM844 425h-139l-89 311q11 19 25 34q32 35 67 40q16 2 31 2q51 0 86 -23zM1773 516q0 -53 -44.5 -92.5t-104.5 -32.5l-9 1q-23 -46 -33 -84q-12 -43 -3 -109q11 -93 11 -109
q0 -65 -54 -93v-33h-1115v32q-56 27 -56 94q0 16 11 109q9 66 -3 109q-10 38 -33 84l-9 -1q-60 -7 -105 32.5t-45 92.5q0 51 44 88t106 37q135 0 216 -232h367q37 0 56 -32q19 32 56 32h367q5 0 14 -2q81 234 217 234q62 0 105.5 -36.5t43.5 -88.5zM679 425h-118
q-34 120 -162 227q13 25 28 44q36 45 73 49q10 1 19 1q45 0 78 -22zM1365 222h-339q-37 0 -56 32q-19 -32 -56 -32h-324l1 -17h773zM1407 8q-15 13 -25 34h-809q-10 -21 -25 -34h859z" />
    <glyph glyph-name="quotedblbase" unicode="&#x201e;" 
d="M1839 321l-41 -24l-47 13v87l-756 -364v-145l-61 -34l-62 29v150l-580 228v-111l-43 -17l-40 23v509l40 9l43 -8v-42q6 11 15 21q23 22 56 29l439 99l-31 25q22 22 45 39q56 39 108 45q72 8 106 -6v214l50 8l759 -93v-684zM1830 328v672l-746 94l-38 -6l752 -97v-680z
M1726 697l-257 96q-78 12 -139 1l-77 -21l31 32q-197 69 -318 69q-21 0 -38 -2q-64 -9 -136 -72q14 -13 32 -24q42 -26 93 -37q132 -27 213 -23l51 16l-24 -20q44 -24 200 -70q63 -13 189 -34q45 13 124 42q35 17 56 47zM1524 322v152q0 72 -38 103q-25 22 -98 39l-598 141
l-422 -99q-26 -7 -50 -32q-26 -29 -26 -62v-38l580 -178v145l62 20l61 -17v-418zM982 -104v596l-48 14l-49 -16l49 -11v-608zM871 299v35l-588 182v146l-34 7l-28 -6l28 -8v-150zM283 156v107l-34 11v-130zM1587 646l-39 -20l-62 18l62 -7zM1168 750l-39 -20l-62 18l62 -7z
" />
    <glyph glyph-name="perthousand" unicode="&#x2030;" 
d="M1894 945q1 -61 -24 -352h-25v-609h-85v609h-14v655q43 -7 73 -39q74 -76 75 -264zM1673 617q0 -256 -180.5 -436.5t-436.5 -180.5q-255 0 -436 180.5t-181 436.5q0 255 181 436t436 181q256 0 436.5 -181t180.5 -436zM446 919q0 -63 -52 -103.5t-52 -70.5v-761h-85v761
q0 30 -52 70.5t-52 103.5q0 171 76 329v-282h45v282h50v-282h46v282q76 -158 76 -329zM1506 617q0 186 -131.5 317.5t-318.5 131.5q-186 0 -317.5 -131.5t-131.5 -317.5t131.5 -318t317.5 -132q187 0 318.5 132t131.5 318zM1461 617q0 -168 -118.5 -286.5t-286.5 -118.5
q-167 0 -285.5 118.5t-118.5 286.5q0 167 118.5 285.5t285.5 118.5q168 0 286.5 -118.5t118.5 -285.5z" />
    <glyph glyph-name="Acircumflex" unicode="&#xc2;" 
d="M1423 1209l-459 -492v-641q20 -10 66 -29l82 -14q68 -14 68 -33q0 -29 -251 -29q-249 0 -249 29q0 19 63 33q39 7 77 14q25 10 76 29v641l-459 492h796q78 70 122 103q-40 -47 -91 -103h159zM1355 1179h-119q-33 -35 -90 -92q-11 -11 -27 -28h124zM1200 1179h-695
l112 -120h458q41 43 125 120zM1214 1029h-125q-56 -56 -99 -92q27 -25 27 -63q0 -36 -25.5 -61.5t-61.5 -25.5t-61.5 25.5t-25.5 61.5t25.5 61.5t61.5 25.5q25 0 46 -13q33 40 71 81h-401l266 -285h36zM959 855q0 23 -23 23t-23 -23t23 -23t23 23z" />
    <glyph glyph-name="Ecircumflex" unicode="&#xca;" 
d="M1407 1140l-143 -242l103 274zM1649 866l-205 -193l165 241zM984 1239l-29 -281l-22 281h51zM678 898l-143 242l40 32zM1556 47q0 -39 -34 -46q-214 -45 -565 -45q-380 0 -569 45q-35 8 -35 46q0 46 34 55q5 89 81 130v38q-37 8 -37 46q0 52 78 85q27 153 133 220
q84 54 253 68q-38 15 -38 45q0 46 89 46q93 0 93 -46q0 -30 -37 -45q172 -14 260 -68q114 -68 141 -220q74 -30 74 -89q0 -24 -36 -41v-38q77 -42 81 -131q34 -8 34 -55zM498 673l-205 193l40 48zM1009 739q0 11 -63 11q-58 0 -58 -11q0 -27 60 -27q61 0 61 27zM1374 392
q-38 158 -153 221q-96 53 -271 49q-5 0 -55 -3q-147 -108 -143 -255l1 -23q97 -7 166 -7q131 0 455 18zM881 652q-190 -102 -196 -264l24 -3q12 102 48 157t124 110zM1433 320q0 24 -40 42q-185 -19 -467 -19q-276 0 -394 31q-6 -4 -44 -20q-19 -8 -19 -26q0 -62 450 -62
q514 0 514 54zM883 659q-154 -13 -224 -60q-81 -55 -118 -195l63 -8q8 104 94 176q74 63 185 87z" />
    <glyph glyph-name="Aacute" unicode="&#xc1;" 
d="M1803 729l-49 24h-114v25h127zM1262 762l-82 -45h-57l106 57zM1846 0h-780l29 73v623h184q-3 22 -3 37q0 93 51 151t143 58q151 0 165 -246h184v-623zM1068 290l-384 -327h-440l47 47v791l64 17q-6 14 -87 187q-68 143 -68 170q0 44 5 56q10 21 49 21q44 0 62 -24
q7 -9 29 -67q23 -61 104 -229q-2 25 -2 49q0 101 66 101q78 0 91 -125l60 86h101l29 -36q59 106 133 106q52 0 52 -55q0 -34 -19 -92h64v-629zM1594 696q-16 203 -124 203q-68 0 -109.5 -48.5t-41.5 -117.5q0 -22 2 -37h273zM949 1062q0 15 -22 15q-33 0 -63.5 -38.5
t-30.5 -72.5h79q2 6 21 49q16 36 16 47zM1600 330v134h-273v-134h273zM849 868l-87 135l-118 -199zM745 1023h-67l-165 -222h104zM571 908v17q0 122 -58 122q-38 0 -38 -62q0 -24 5 -62q8 -49 9 -62l62 19zM257 1228q-45 -7 -45 -31q0 -9 38 -93q-11 35 -11 63q0 19 18 61z
M440 846l-5 -1q-41 128 -158 360l95 -232v-34zM920 522v145l-175 -78v-165zM375 848q-29 76 -71 168q9 -85 71 -168zM624 -13l-145 101l-10 616l-10 -616l-131 -91l141 67zM1567 753h-220l4 25h212z" />
    <glyph glyph-name="Edieresis" unicode="&#xcb;" 
d="M1843 612q0 -339 -240 -578.5t-579 -239.5t-579 239.5t-240 578.5t240 579t579 240t579 -240t240 -579zM1709 612q0 284 -200.5 485t-484.5 201t-485 -201t-201 -485t201 -484.5t485 -200.5t484.5 200.5t200.5 484.5zM1431 804q0 -135 -86.5 -229.5t-310.5 -94.5h-139
v-419h-157v1052h284q145 0 218 -25q108 -35 159 -138q32 -67 32 -146zM1270 800q0 132 -111 162q-33 9 -125 9h-139v-349h142q128 0 180.5 46.5t52.5 131.5z" />
    <glyph glyph-name="Egrave" unicode="&#xc8;" 
d="M953 1341q0 -67 -38.5 -115t-93.5 -48q-54 0 -92.5 48t-38.5 115t38.5 114.5t92.5 47.5q55 0 93.5 -47.5t38.5 -114.5zM1692 79h-200q-52 -155 -186 -252q-137 -99 -307 -99q-215 0 -367 150t-152 362q0 155 70 264q34 -16 133 -13l-56 100q24 25 73 68v294l75 40v17
l-316 -163l196 -341q-124 -6 -167 58l-148 222q-29 42 -29 83q0 51 43 75l330 187q74 41 139 41q54 0 90 -36q33 -33 33 -78v-410h270q62 0 113 -75l249 -366h58q36 0 46 -10t10 -47v-71zM1382 239l-183 252h-487q-96 -108 -96 -251q0 -156 112 -267t271 -111
q158 0 270.5 110.5t112.5 266.5z" />
    <glyph glyph-name="Iacute" unicode="&#xcd;" 
d="M1775 377q43 -74 43 -151q0 -94 -60 -160t-148 -66h-1172q-88 0 -148 66t-60 160q0 77 43 151l542 920q78 133 209 133q130 0 209 -133zM1575 406l-401 672q-95 160 -150 160q-56 0 -151 -160l-400 -672q-70 -119 -70 -177q0 -85 158 -85h926q158 0 158 85q0 58 -70 177z
" />
    <glyph glyph-name="Icircumflex" unicode="&#xce;" 
d="M1399 654q0 -83 -102 -165q-77 -62 -176 -99l110 -505l-182 481q-91 -25 -172 -25q-235 0 -235 159q0 115 103 190l-95 413q-56 24 -67 32q-36 26 -36 70q0 82 145 146q126 55 236 55q133 0 133 -86q0 -25 -39 -89l163 -409q81 -4 142 -45q72 -47 72 -123zM1168 796
l-169 414l-96 -44l133 -501q35 11 70 34q65 44 65 86q0 6 -3 11z" />
    <glyph glyph-name="Idieresis" unicode="&#xcf;" 
d="M1919 814l-1348 -212l-157 128q-2 24 20 30l484 126q-11 27 -31 22l-483 -117q-29 -7 -30 -31l-241 209v18l903 73l883 -214v-32zM1704 306q-175 221 -429 221q-47 0 -96 -9q-305 -55 -516 -330q-7 78 -26 145q-46 162 -148 247q-35 30 -80 33v105l160 -136l954 154
q35 -23 115 -110q79 -116 66 -320zM910 888l-484 -125q-22 -5 -22 -35v-577q-7 -8 -15 -7q-10 0 -14 7v538q0 51 1 60q6 31 30 38q115 29 480 118q15 4 24 -17zM370 750q-3 -29 -2 -59v-73q-64 3 -115 -22q9 32 58 118q16 20 48 45zM483 89q-9 -49 -94 -49t-94 49
q7 19 33 50q14 9 42 12q3 -12 19 -12t19 12q20 -5 42 -12q18 -12 33 -50zM520 -19l-6 -14l-31 70l18 -86l-17 -12l-24 82l3 -92l-19 -6l-16 91l-9 -94l-20 -2l-10 94l-10 -94l-20 2l-9 94l-16 -91l-19 6l3 92l-24 -82l-17 12l18 86l-31 -70l-6 14l31 100q6 -51 100 -51
t100 51z" />
    <glyph glyph-name="Igrave" unicode="&#xcc;" 
d="M1665 181q0 -24 -105 -202q-64 -106 -128 -213q-15 -26 -42 -26q-52 0 -52 50q0 24 105 202q64 106 128 213q15 26 42 26q52 0 52 -50zM1070 -210q0 -50 -50 -50t-50 50v450q0 50 50 50t50 -50v-450zM709 -210q0 -50 -51 -50q-28 0 -43 26q-64 107 -128 213
q-104 178 -104 202q0 50 52 50q27 0 42 -26q64 -107 128 -213q104 -178 104 -202z" />
    <glyph glyph-name="Oacute" unicode="&#xd3;" 
d="M1665 1047q0 -50 -52 -50q-27 0 -42 26q-64 107 -128 213q-105 178 -105 202q0 50 52 50q27 0 42 -26q64 -107 128 -213q105 -178 105 -202zM1070 988q0 -50 -50 -50t-50 50v450q0 50 50 50t50 -50v-450zM709 1438q0 -24 -104 -202q-64 -106 -128 -213q-15 -26 -42 -26
q-52 0 -52 50q0 24 104 202q64 106 128 213q15 26 43 26q51 0 51 -50z" />
    <glyph glyph-name="Ocircumflex" unicode="&#xd4;" 
d="M1898 992q0 -51 -50 -51q-24 0 -202 104q-106 64 -213 128q-26 15 -26 42q0 52 50 52q24 0 202 -104q106 -64 213 -128q26 -15 26 -43zM1898 630q0 -50 -50 -50h-450q-50 0 -50 50t50 50h450q50 0 50 -50zM1898 260q0 -27 -26 -42q-107 -64 -213 -128
q-178 -105 -202 -105q-50 0 -50 52q0 27 26 42q107 64 213 128q178 105 202 105q50 0 50 -52z" />
    <glyph glyph-name="uniF8FF" unicode="&#xf8ff;" 
d="M641 1215q0 -27 -26 -42q-107 -64 -213 -128q-178 -104 -202 -104q-50 0 -50 51q0 28 26 43q107 64 213 128q178 104 202 104q50 0 50 -52zM700 630q0 -50 -50 -50h-450q-50 0 -50 50t50 50h450q50 0 50 -50zM641 37q0 -52 -50 -52q-24 0 -202 105q-106 64 -213 128
q-26 15 -26 42q0 52 50 52q24 0 202 -105q106 -64 213 -128q26 -15 26 -42z" />
    <glyph glyph-name="uniF8FF" unicode="&#xe01e;" 
d="M641 1215q0 -27 -26 -42q-107 -64 -213 -128q-178 -104 -202 -104q-50 0 -50 51q0 28 26 43q107 64 213 128q178 104 202 104q50 0 50 -52zM700 630q0 -50 -50 -50h-450q-50 0 -50 50t50 50h450q50 0 50 -50zM641 37q0 -52 -50 -52q-24 0 -202 105q-106 64 -213 128
q-26 15 -26 42q0 52 50 52q24 0 202 -105q106 -64 213 -128q26 -15 26 -42z" />
    <glyph glyph-name="Ograve" unicode="&#xd2;" 
d="M905 636l-654 92l62 189l700 52l125 383q42 129 128 129q50 0 86 -29.5t36 -78.5q0 -37 -19 -96l-123 -380l543 -459l-62 -189l-590 314l-129 -395l136 -284l-46 -142l-253 319l-393 -109l46 142l280 151z" />
    <glyph glyph-name="Uacute" unicode="&#xda;" 
d="M1554 53q0 -95 -52 -171q-38 -55 -100 -72q-22 -6 -126 -16q-60 -5 -95 -5q-124 0 -262 43q2 22 93 44q58 12 116 25q40 12 108 44q81 40 88 61q-77 6 -114 6q-34 0 -99.5 -11.5t-98.5 -11.5q-90 0 -151 69q-47 52 -85 154q-27 83 -55 165q89 8 137 90q15 24 23 71
q8 53 17 73q17 24 42 75q12 39 15 39q150 0 266 -86q128 -94 128 -238q0 -22 -3 -65.5t-3 -65.5q0 -85 39 -160q29 41 82 41q90 0 90 -98zM924 722q-34 -60 -50 -99l-32 -130q-22 -67 -103 -86q-261 -61 -261 -90q0 -13 10 -29q-57 20 -57 51q0 30 103 64l136 38v9
q0 93 -63 147q-47 40 -149 71q-10 11 -10 26q0 17 66 96t87 91q35 19 102 23q-9 25 -9 46q0 32 42 59q27 -52 18 -111l18 -8l9 62l33 43q33 -40 33 -73q0 -23 -27 -56q53 -26 104 -144zM947 -7q-96 -50 -98 -61q7 -13 17 -41q-48 31 -48 42q0 15 51 41l-9 5q-21 -8 -43 -16
q-27 -13 -27 -31q0 -12 4 -28q-39 38 -39 47t36 25q23 9 47 19h-15q-33 1 -78 -9q46 33 49 33l105 -4zM1312 302q-42 322 -361 345l-14 -30q270 -53 314 -339l36 -23zM745 793q-39 21 -63 21q-50 0 -66 -64q32 -13 50 -13q44 0 79 56zM1246 191q-29 156 -108 243
q-72 79 -225 144l-18 -33q145 -101 191 -154q70 -82 99 -224l36 -23zM790 841q-54 23 -98 23q-63 0 -95 -35q-32 -38 -64 -77q-10 -9 -55 -47l10 -15q20 12 56 38q11 8 47 56q26 36 55 43l57 -1q29 0 87 15zM823 793q-64 -87 -123 -87q-11 0 -31 3t-31 3q-31 0 -105 -30
q141 -18 177 -18q83 0 113 129zM1519 61q0 37 -30 44q-1 -105 -44 -164q-37 -51 -137 -102q95 3 153 65t58 157zM1464 109q-28 -8 -48 -31q-6 -62 -27 -93q-42 -65 -360 -149q36 -4 73 -4q76 0 187 45q121 50 152 108q23 44 23 124zM733 791q-29 -45 -69 -45q-16 0 -38 9
q12 51 59 51q20 0 48 -15zM699 786q0 8 -10 8q-8 0 -17 -4q16 -8 12 -27q15 14 15 23z" />
    <glyph glyph-name="Ucircumflex" unicode="&#xdb;" 
d="M1514 820l-18 6q-24 1 -68 15q-24 -2 -35 -125l-12 -152q-27 -112 -66 -163t-139 -109q-48 -27 -48 -65q0 -24 31 -85l175 72q50 -22 50 -51q0 -24 -9 -39t-18 -31l-491 -221q-61 0 -61 66q0 56 106 102q79 32 159 65q-44 98 -93 97l-3 4q-17 7 -45 7q-33 0 -51 -19
q-36 -39 -92.5 -180.5t-100.5 -192.5q-23 -25 -99 -25q-35 20 -80 45q-40 9 -108 36q106 175 370 407q-11 -1 -32.5 -9.5t-31.5 -8.5q-15 0 -32 11q28 155 212 382q187 232 331 278q61 91 117 111q-3 14 -3 27q0 52 55 111q12 -40 43 -98q67 -59 67 -119q0 -15 -2 -35
q22 -40 22 -114zM1141 133l-65 98l-3 34l-46 -9l71 -133z" />
    <glyph glyph-name="Ugrave" unicode="&#xd9;" 
d="M1816 381q-98 21 -149 40l-62 31q-36 18 -68 18q-27 0 -87 -19q-76 -25 -90 -28l5 -18l36 -40q-19 -5 -49 -5q-35 0 -112 40q-136 -24 -300 -32l10 -12v-40l-53 20l-8 -24l-36 -12l-8 -20q-92 29 -105 90q-70 3 -520 3q57 31 127 31q36 0 36 8q0 27 -89 27q-42 0 -90 -14
q103 120 211 177q105 55 264 75q30 67 138 115l8 -20l36 -12l8 -25l40 4v-28l-30 -20h60q105 1 238 -21q47 25 107 25q6 0 32 -4l17 -16l-33 -12l-7 -15q65 -14 129 -29q79 -18 131 -18q104 0 247 86q-82 -85 -137 -161q83 -71 153 -145zM1607 530q0 36 -85 40
q16 -23 16 -40q0 -15 -12 -36q81 1 81 36zM646 512q0 45 -35.5 74.5t-81.5 29.5q-39 0 -95 -26q34 11 65 11q41 0 72.5 -25t31.5 -64q0 -46 -37 -71q-33 -22 -80 -20l12 -20q13 -2 24 -2q45 0 84.5 34.5t39.5 78.5zM466 498q0 40 -38 40q-39 0 -39 -40q0 -41 39 -41
q38 0 38 41zM444 494q0 -21 -14 -21t-14 21q0 20 14 20t14 -20z" />
    <glyph glyph-name="dotlessi" unicode="&#x131;" 
d="M1765 806q-46 28 -83 28q-18 0 -40 -11q87 -39 87 -93q0 -26 -9 -55q-56 64 -108 64q-57 0 -128 -39q13 -59 28 -94q6 -14 44 -68q28 -38 28 -76q0 -29 -21 -78.5t-21 -75.5h123l-20 -156q-14 -93 -39 -152h-136v8q0 52 59 66.5t59 51.5q0 20 -10.5 47t-52.5 34
q-54 9 -69 20q-19 14 -81 120q-50 86 -103 86q-42 0 -42 -64q0 -81 31 -145q-57 -49 -114 -99q-69 -67 -75 -125h-136q8 30 19 41q46 17 92 33q79 40 79 132q0 23 -18 77q-22 66 -39 87q-28 34 -86 34q-120 0 -156 -50q-28 -38 -28 -157q0 -6 -23 -89q-24 -91 -27 -108h-125
q10 43 38 56q32 14 42 37q20 44 20 168q0 122 -42 122q-41 0 -113 -214q-80 -59 -137 -169h-131q1 28 12 44q9 13 35 17q32 4 40 8q38 20 100 130q77 137 77 310q0 184 -22 233q-11 25 -21 53q-126 -39 -182 -39q-76 0 -76 69q0 22 30 59q22 26 44 53q11 15 14 48.5
t14.5 46.5t32.5 46q-27 46 -27 85t35 68q17 -60 70 -122q26 3 44 3q8 0 87 -8q73 63 119 97q7 -21 7 -38q0 -63 -71 -118q-5 -23 -5 -53q0 -48 30 -75q33 -23 67 -47q133 -102 247 -102q41 0 119 26t119 26q37 0 116.5 -13t124.5 -13q93 0 93 54q0 17 -40 83
q-46 76 -164 134q67 16 112 16q67 0 163 -33q-58 -6 -106 -28q103 -8 209 -50q-17 3 -35 3q-61 0 -76 -48q94 -15 128 -119zM527 723q0 -33 -24 -33q-23 0 -23 33t23 33q24 0 24 -33zM689 904l-31 31q-58 -76 -131 -120l28 -50q55 62 134 139zM524 964q-14 23 -28 23
q-16 0 -30 -31q15 -19 30 -19t28 27zM343 825v6l-53 11q0 -51 27 -51q26 0 26 34zM505 967q0 -8 -10 -14q-10 6 -10 14t10 14q10 -6 10 -14z" />
    <glyph glyph-name="circumflex" unicode="&#x2c6;" 
d="M1485 1038q0 -45 -52 -93l-142 -12q-24 -2 -42 -25.5t-18 -47.5q0 -42 31.5 -97t31.5 -110q0 -51 -12 -151t-12 -151q0 -27 -3.5 -80t-3.5 -80q0 -18 3 -55t3 -55q0 -31 24 -39.5t24 -24.5q0 -5 -2 -17h-110q50 -20 50 -43q0 -27 -64 -27q-46 0 -61 29q-10 20 -10 71
q0 29 1 86.5t1 86.5q0 187 -64 317q-2 -4 -2 -13q0 -26 20 -71q21 -48 23 -70q19 -179 19 -207q0 -25 -9.5 -70.5t-9.5 -55.5q0 -3 8.5 -16.5t8.5 -27.5q0 -50 -150 -50q-64 0 -84 18q-118 0 -202 119q-103 19 -171 77q-76 66 -76 157q0 56 34 140t34 119q0 119 -133 163
q-61 20 -61 37q0 28 31 28q93 0 160.5 -70.5t67.5 -164.5q0 -56 -34 -135t-34 -113q0 -71 51 -116q47 -42 121 -49q0 261 169 532q36 59 119 154.5t116 148.5q35 59 69 119q48 77 89 97q-2 11 -2 21q0 22 29 68q19 -14 35 -49q13 33 56 53q15 -29 15 -48q0 -13 -6 -28
q43 -7 59 -45q28 -64 34 -71q33 -40 33 -63zM1419 1120q-19 15 -34 15q-14 0 -31 -25q16 -14 31 -14q16 0 34 24zM1478 1040l-21 -1l12 -24zM1240 916q-32 21 -64 43q-44 35 -59 75l-28 -53q20 -31 132 -116zM1266 593q0 62 -2 93q-7 -73 -28 -217q30 82 30 124zM1402 1115
q0 -15 -14 -15q-15 0 -15 15q0 14 15 14q14 0 14 -14z" />
    <glyph glyph-name="tilde" unicode="&#x2dc;" 
d="M1976 717q-114 27 -159 56q-77 48 -77 140q0 46 33.5 84t78.5 38q93 0 93 -82q0 -49 -47 -49q-15 0 -34.5 14.5t-29.5 14.5q-23 0 -23 -51q0 -49 165 -165zM1896 670q-193 42 -331 42q-79 0 -187 -20l-16 61q120 19 202 19q99 0 174 -25q58 -19 158 -77zM1937 639
q-225 -53 -548 -53v79q183 -4 548 -26zM1983 542q-164 -117 -164 -165q0 -51 22 -51q10 0 29.5 14.5t34.5 14.5q47 0 47 -50q0 -82 -92 -82q-46 0 -79.5 38.5t-33.5 84.5q0 92 77 140q45 28 159 56zM1901 593q-95 -64 -150 -86q-72 -28 -171 -28q-96 0 -213 19l16 62
q105 -20 171 -20q101 0 347 53zM1369 634q0 -55 -26 -119l-50 29q15 61 15 75q0 51 -15 89l50 31q26 -60 26 -105zM1288 636q0 -42 -22 -113q-46 -3 -51 -3l-485 1q-159 0 -393 92l-20 -11v20h-278v13h278v18l20 -9q226 94 393 94l485 1q6 0 54 -4q19 -54 19 -99zM1932 949
q0 73 -78 73q-41 0 -71 -34t-30 -75q0 -122 159 -167q-114 81 -114 136q0 64 36 64q13 0 32.5 -14.5t31.5 -14.5q34 0 34 32zM1830 696q-122 63 -255 63q-96 0 -197 -17l10 -35q132 22 214 22q100 0 228 -33zM1851 634q-404 17 -451 17v-48q246 0 451 31zM1939 309
q0 32 -34 32q-12 0 -31.5 -14t-32.5 -14q-36 0 -36 64q0 55 115 136q-89 -44 -106 -58q-49 -39 -49 -104q0 -42 26 -77q29 -38 69 -38q79 0 79 73zM1837 566q-181 -40 -277 -40q-72 0 -168 19l-9 -36q103 -17 197 -17q150 0 257 74zM1210 627q0 28 -19 79h-452q7 -49 7 -74
q0 -24 -13 -81h458q19 49 19 76zM686 594q0 10 -4 23q-11 -1 -52 -5q-32 -4 -52 -4q-55 0 -142 19q126 -57 191 -57h52q7 13 7 24zM1195 627q0 -25 -14 -61h-430q10 41 10 66q0 26 -5 59h425q14 -38 14 -64zM848 621v17h-38v-17h38z" />
    <glyph glyph-name="macron" unicode="&#xaf;" 
d="M1983 622h-278v-20l-19 11q-234 -92 -394 -92l-485 -1q-5 0 -51 3q-22 71 -22 113q0 45 20 99q48 4 53 4l485 -1q166 0 394 -94l19 9v-18h278v-13zM729 544l-50 -29q-26 64 -26 119q0 45 26 105l50 -31q-14 -38 -14 -89q0 -14 14 -75zM660 753l-16 -61q-108 20 -187 20
q-138 0 -331 -42q100 58 158 77q75 25 174 25q83 0 202 -19zM282 913q0 -92 -76 -140q-46 -29 -159 -56q164 116 164 165q0 51 -23 51q-10 0 -29.5 -14.5t-34.5 -14.5q-47 0 -47 49q0 82 93 82q45 0 78.5 -38t33.5 -84zM634 586q-324 0 -548 53q64 7 548 26v-79zM656 498
q-118 -19 -214 -19q-99 0 -171 28q-55 22 -149 86q245 -53 346 -53q66 0 171 20zM275 346q0 -46 -33.5 -84.5t-79.5 -38.5q-92 0 -92 82q0 50 47 50q15 0 34.5 -14.5t29.5 -14.5q23 0 23 51q0 48 -165 165q114 -28 159 -56q77 -48 77 -140zM1586 627q-87 -19 -141 -19
q-21 0 -52 4q-42 4 -52 5q-5 -13 -5 -23q0 -11 7 -24h52q65 0 191 57zM1290 551q-14 57 -14 81q0 25 7 74h-452q-19 -51 -19 -79q0 -27 19 -76h459zM643 742q-100 17 -196 17q-133 0 -254 -63q127 33 227 33q83 0 214 -22zM269 913q0 41 -30 75t-70 34q-79 0 -79 -73
q0 -32 34 -32q13 0 32.5 14.5t31.5 14.5q36 0 36 -64q0 -55 -114 -136q159 45 159 167zM620 603v48q-45 0 -449 -17q205 -31 449 -31zM639 509l-11 36q-93 -19 -166 -19q-96 0 -277 40q107 -74 257 -74q94 0 197 17zM257 351q0 65 -49 104q-17 14 -105 58q114 -81 114 -136
q0 -64 -36 -64q-13 0 -32.5 14t-31.5 14q-34 0 -34 -32q0 -73 79 -73q40 0 69 38q26 35 26 77zM1271 566h-430q-14 36 -14 61q0 26 14 64h425q-5 -33 -5 -59q0 -25 10 -66zM1212 621v17h-38v-17h38z" />
    <glyph glyph-name="breve" unicode="&#x2d8;" 
d="M1131 403q0 -6 -3 -51q-72 -23 -113 -23q-45 0 -100 20q-3 48 -3 54l1 485q0 166 93 393l-9 20h19v278h12v-278h21l-12 -20q93 -234 93 -393zM1136 275q-64 -26 -119 -26q-45 0 -105 26l31 50q38 -15 88 -15q15 0 76 15zM1171 38q0 -99 -28 -171q-21 -56 -86 -150
q54 245 54 347q0 66 -20 171l61 16q19 -117 19 -213zM1427 -242q0 -92 -82 -92q-49 0 -49 46q0 16 14.5 35t14.5 30q0 22 -52 22q-48 0 -164 -164q28 114 56 159q48 77 139 77q47 0 85 -33.5t38 -79.5zM1064 229q0 -323 -52 -548q-7 65 -27 548h79zM981 -278
q-58 100 -78 158q-25 75 -25 174q0 82 20 202l61 -16q-21 -108 -21 -187q0 -138 43 -331zM933 -358q-116 165 -164 165q-51 0 -51 -23q0 -10 14 -29.5t14 -34.5q0 -47 -49 -47q-82 0 -82 92q0 46 38.5 79.5t84.5 33.5q92 0 140 -77q28 -45 55 -159zM1081 939v52
q0 64 -57 191q19 -87 19 -142q0 -20 -4 -52q-5 -41 -6 -52q14 -4 24 -4t24 7zM1100 427v458q-57 -13 -82 -13q-24 0 -73 7v-452q50 -19 79 -19q27 0 76 19zM1158 38q0 94 -16 197l-36 -10q18 -95 18 -167q0 -96 -40 -277q74 107 74 257zM1414 -243q0 41 -38 70
q-34 26 -76 26q-66 0 -105 -49q-13 -17 -57 -106q81 114 135 114q65 0 65 -35q0 -13 -14.5 -32.5t-14.5 -32.5q0 -33 32 -33q73 0 73 78zM1047 216h-47q0 -46 16 -449q31 204 31 449zM954 -212q-32 128 -32 228q0 82 22 214l-36 10q-16 -101 -16 -197q0 -133 62 -255z
M905 -295q-45 160 -167 160q-41 0 -75.5 -30t-34.5 -71q0 -78 73 -78q32 0 32 34q0 12 -14 31.5t-14 32.5q0 36 64 36q55 0 136 -115zM1085 437q-37 -14 -61 -14q-26 0 -64 14v425q33 -5 59 -5q25 0 66 10v-430zM1029 770v38h-16v-38h16z" />
    <glyph glyph-name="dotaccent" unicode="&#x2d9;" 
d="M1427 1455q0 -45 -38 -78.5t-85 -33.5q-91 0 -139 77q-28 45 -56 159q116 -165 164 -165q52 0 52 23q0 10 -14.5 29.5t-14.5 34.5q0 47 49 47q82 0 82 -93zM1171 1176q0 -96 -19 -214l-61 17q20 105 20 171q0 101 -54 346q65 -94 86 -150q28 -71 28 -170zM1064 984h-79
q4 184 27 548q52 -224 52 -548zM933 1571q-27 -113 -55 -159q-48 -76 -140 -76q-46 0 -84.5 33.5t-38.5 78.5q0 92 82 92q49 0 49 -46q0 -15 -14 -34.5t-14 -29.5q0 -23 51 -23q48 0 164 164zM981 1492q-43 -193 -43 -331q0 -79 21 -187l-61 -17q-20 120 -20 202
q0 100 25 175q20 57 78 158zM1136 939l-29 -50q-61 14 -76 14q-50 0 -88 -14l-31 50q60 26 105 26q55 0 119 -26zM1131 810l-1 -484q0 -159 -93 -394l12 -20h-21v-277h-12v277h-19l9 20q-93 227 -93 394l-1 484q0 7 3 54q55 20 100 20q41 0 113 -23q3 -45 3 -51zM1414 1456
q0 79 -73 79q-32 0 -32 -34q0 -13 14.5 -32t14.5 -32q0 -36 -65 -36q-54 0 -135 114q44 -88 57 -105q39 -49 105 -49q42 0 76 26q38 28 38 69zM1158 1176q0 149 -74 257q40 -182 40 -278q0 -72 -18 -167l36 -9q16 103 16 197zM1047 998q0 244 -31 449q-16 -404 -16 -449h47z
M905 1508q-81 -114 -136 -114q-64 0 -64 36q0 12 14 31.5t14 32.5q0 34 -32 34q-73 0 -73 -79q0 -40 34.5 -70t75.5 -30q122 0 167 159zM954 1425q-62 -121 -62 -254q0 -96 16 -197l36 9q-22 132 -22 215q0 99 32 227zM1100 328v459q-49 19 -76 19q-29 0 -79 -19v-453
q49 8 73 8q25 0 82 -14zM1081 275q-14 7 -24 7t-24 -5q1 -10 6 -52q4 -32 4 -52q0 -54 -19 -141q57 126 57 191v52zM1085 347q-41 9 -66 9q-26 0 -59 -4v425q38 14 64 14q24 0 61 -14v-430zM1029 404v40h-17v-40h17z" />
    <glyph glyph-name="ring" unicode="&#x2da;" horiz-adv-x="2645" 
d="M2500 866l-53 -22l-13 16l48 22zM2428 825l-41 -66l-66 -34l-19 22l66 37l22 64zM2418 684l-22 -16l-19 60l13 -3zM2453 422l-132 28l-4 47l124 -31zM2642 166l-47 -57l-22 3l-6 32l57 63l-23 35l13 19l22 -32zM2286 504l-25 -44l-22 3l22 50zM2239 513l-26 -50l-47 12
l3 38l41 41zM2645 999l-88 -9l3 -32l-53 -69l-10 63l29 38l-101 -10l-60 -31l-7 -26l42 10l3 -60l-29 -3l-9 -29l-57 -38l9 -25l-37 -25l-13 44l-25 -13l6 -88l-107 -63l28 -41l-47 -28l-19 37l-10 -3l10 -41l38 -25l-13 -13l-25 7l6 -19l22 -3l13 -38l57 -22l3 -19l-66 12
l-92 101l38 -3l-54 117v32h-15l-7 -29l-53 -41v-38l-41 -12l-26 72l-18 6l3 42l-152 28l25 -41l26 9l28 -28l-28 -35l-67 -25l-69 133h-19l-3 -26l47 -94l35 -26l54 4l-98 -142l12 -13l4 -47l-29 -22l-3 -35l-76 -92l-60 4l-53 145l16 22v38l-45 53l19 13l-44 28l-88 3
l-51 45l-3 97l114 98l63 6l16 -18l-4 -16l51 -16l25 22l19 -16l69 -3l13 13v38l-28 -38l-38 50l6 -50l-35 25l-6 38l-42 49l-8 -8l34 -47l-22 -32l-9 38l-38 28l-22 -19l-13 7l-72 -67l-26 70l51 -3l9 22l-19 19l32 25l19 3l35 32l-10 25l19 9l13 -19l63 4l3 18l69 26
l-12 15l-44 -15l-13 28l32 25l-19 19l-41 -53l15 -13l-3 -32l-41 -12l-9 25l-44 -6l3 38l72 97l79 19l120 -28l-22 -32l-47 4l31 -32l92 60h60l-41 47l47 48l66 28l10 -22l-63 -22l-35 -38l72 -44l-12 22l44 38l79 -19l12 25l142 54l98 -22l-72 -41l224 -23l38 38l18 -34
l108 -10l31 -16l88 10v-120zM2488 292l-54 -101l-44 4l-85 63l-3 -16l-104 -22l12 44l-22 9v54l136 88l63 -41l3 35l19 3zM1377 930l-3 -26h-44l13 26l-29 31l22 22l13 -31zM1289 1049l-57 -41l-34 51l63 16zM1467 776l-19 7l12 19zM1276 1280l-37 -32l-7 -79l-57 -88
l-91 -28l-22 -54l-41 3l-47 73l-19 97l-38 29l-41 -13l-22 29l69 85l284 35zM1321 920l-19 -22l-22 19l18 32zM1740 396l-28 -91l-41 28l12 41l41 32zM844 674l-25 13v22zM936 614l-16 -6l-79 28l6 16zM825 661l-6 -19l-49 10l5 24zM1122 441l-25 -29l-7 -57l-192 -205
q10 -18 6 -41l-25 -25l22 -28l-19 -22l-50 56v92l31 180l-41 19l-44 110l19 28v32h-44l-19 38l-25 -3l-89 50l-28 35h-35l-95 126l4 63l-32 47l-22 -6l-16 32l19 -3l-47 50l-63 10l-152 -76l54 53l-38 29l-16 107l63 32l303 -32l-57 41l13 54l303 116l117 -6l-104 -117
l138 -113l-44 -47l-82 15l10 51h-29l-12 -35l9 -31l-63 6l-32 -44l23 -19l44 -13l41 -47l15 47l-9 10v47l98 -16l79 -95l-111 -63v-34l-19 3l-19 -19l4 -25l-45 -38l13 -41h-22l-19 28h-69l-26 -47l26 -25h12l25 15l16 -9l-6 -35l25 -3l6 -38h45l44 19l31 -12l59 -2l4 -39
h48l6 -45h32zM144 1043l-95 3l-22 -9l25 -25l-52 -13v120l128 -51zM276 642l-12 -22l-44 29l-29 -16l-69 41l6 19l79 -32l31 16zM100 715l-35 -22l-19 41zM456 308l-19 -19l-28 19l19 19zM406 336l-22 -12l-29 19l22 28zM1826 820l-3 25l-16 -2l2 -25zM1769 779l-20 41
l17 23l-9 10l-18 -14l4 -67zM1672 821l-23 37l-22 4l2 -17l-19 -2l-16 21l-28 -35l5 -22l25 19h20z" />
    <glyph glyph-name="cedilla" unicode="&#xb8;" 
d="M1995 614q0 -398 -286.5 -676t-685.5 -278t-685 278t-286 676t287 678q285 277 684 277t684 -277q288 -280 288 -678zM1930 607v35q-259 28 -260 28q-6 0 -132 -13l50 -96l-128 -46l-73 165l-23 -14q62 -114 68 -220q-64 -76 -128 -155q1 -169 -36 -307l-128 -110l-92 60
q-12 193 -64 389l-78 110l-174 41l-45 105l30 152q76 22 217 81q33 -23 84 -31q44 -7 88 -13q1 0 126 -35q74 -20 129 -23l41 100h-50l-29 154l-125 5l8 -50l63 -80l-50 25l12 -37l-88 -21l34 25l-25 71l-59 42l-46 -42l-67 12l-41 -75l-76 38l59 71l88 25l37 54l130 59
l29 33l29 121l-79 -40l36 -20l-56 -52l-20 56l-28 -44l-84 72l180 156h148l16 87q-150 56 -311 56q-179 0 -296 -49q27 -21 27 -46q0 -12 -24 -18l-34 -6q-47 -15 -95.5 -52.5t-89.5 -134.5q-33 -76 -71 -76q-24 0 -42.5 40.5t-19.5 40.5q-37 0 -66 -19q-81 -54 -152 -236
q-73 -187 -73 -356q0 -376 267 -634.5t644 -258.5t647.5 262.5t270.5 638.5zM1059 1098l-45 -46l-42 4l38 46l-25 9l-27 49l15 38zM863 1235l-33 -25l-55 -8l21 71h55zM943 1094l-29 -33l-13 37l21 34zM1110 843l-4 -41l-38 41h42z" />
    <glyph glyph-name="hungarumlaut" unicode="&#x2dd;" 
d="M1995 614q0 -398 -286.5 -676t-685.5 -278t-685 278t-286 676t287 678q285 277 684 277t684 -277q288 -280 288 -678zM1942 614q0 369 -285 644l-32 -55l-154 41l-118 -33l-57 -154l-126 -33l-17 -130l-52 24l-41 -110l37 -199l-45 -85l-86 -4l21 -114q-99 56 -232 159
l-150 14q-25 13 -81 36q-66 -85 -172 -189l-4 -73l-33 -67l-37 3l-125 251l4 73l-52 3v-2q0 -376 272 -640q269 -261 646 -261t648 262.5t271 638.5zM1350 974l-50 -31h-41l41 69l28 -5zM1275 898q-29 -66 -104 -178l-24 -5q52 143 100 199zM1438 477l-26 -66l-63 6z
M1489 319l-39 -15l27 57zM1781 182l-31 -70q-70 -45 -143 -95l-32 -73l-29 -21l-23 35q34 75 69 108l68 30q25 64 58 105l29 -44zM1247 345l-78 44l74 23zM1126 378l-29 -41l-52 70zM1503 121q-15 -94 -134 -211l-49 -4l-167 69l-158 -8q1 55 -45 130q15 70 81 146
q142 -16 240 41l70 -57l40 106q34 -108 122 -212zM972 379l-30 -26l-37 22zM1415 -135l-22 -28l-66 4l50 41zM534 271q-61 -56 -122 -89l-49 22l86 89z" />
    <glyph glyph-name="ogonek" unicode="&#x2db;" 
d="M1995 621q0 -398 -286 -679.5t-685 -281.5t-684 277q-288 279 -288 677t288 678q285 277 684 277t683 -273q288 -277 288 -675zM1944 627q0 371 -274 636q-272 262 -644 262l-100 -205l109 -22l85 85l150 -10l30 -80l-90 -90v-54l56 -11l26 42l99 62l-3 -42l37 -64
l-44 -46l28 -27l-66 -4l27 -54l-143 -68l22 -81h-45l-20 80l-105 2l-19 -31l-43 20l-70 -70l56 -67l-2 -74l59 -44l344 -39l109 -77l-13 -191l-237 -237q-23 -23 -45 -128q-21 -99 -15 -141l-36 -41q-42 83 -109 255q-16 59 -28 150q-9 75 -18 151l-150 132l133 157l-55 79
q-127 26 -165 46.5t-131 114.5l52 -101l-35 -15l-81 152l16 142l-25 100l-78 76l-57 14l-50 -35l-55 -14q-227 -262 -227 -602q0 -380 272 -645q269 -262 650 -262t649.5 267t268.5 647z" />
    <glyph glyph-name="caron" unicode="&#x2c7;" 
d="M1866 1442q0 -28 -33 -79q-46 -74 -48 -77q-27 -71 -54 -141q-28 -74 -88 -128l-26 29q58 53 89 147q36 107 66 146q-77 -31 -155 -61q-81 -35 -104 -124l-38 10q23 88 85 131q32 23 120 52q80 26 116 58q15 13 33 45q8 14 19 14q18 0 18 -22zM1678 955q-83 -29 -97 -37
q-55 -30 -55 -77q0 -21 16 -103q20 -103 20 -202q0 -36 -1 -52q-8 -128 -100 -230q-98 -107 -224 -107q-225 0 -243 -75q-13 -89 -27 -178q-26 -139 -66 -139q-23 0 -41 24.5t-21 24.5q-5 0 -24.5 -16t-38.5 -16q-26 0 -42.5 38.5t-25.5 38.5q-8 0 -29.5 -10t-37.5 -10
q-44 0 -49.5 39t-18.5 39q-9 0 -26 -2t-25 -2q-40 0 -40 26q0 13 12 38.5t12 37.5q0 10 -40 22t-40 42q0 33 30 44q87 23 175 46q105 29 153 85q31 36 85 137q58 106 63 144q-108 56 -192 65q-34 3 -69 6q-45 9 -45 39q0 6 2 16.5t2 16.5q0 21 -58 37t-58 55q0 11 7 28.5
t7 23.5q0 16 -68 33.5t-68 53.5q0 14 8 39.5t8 38.5q0 17 -25 36q-20 15 -40 29q-41 41 -41 153q-2 31 0 45q71 -41 167 -59q50 -9 272 -19q31 -1 91 -6q264 -39 264 -220q0 -13 -2 -38t-2 -38q0 -105 68 -105q60 0 92 115q20 83 40 165q42 101 149 101q66 0 105 -53
q59 -80 132 -128zM1605 965q-49 36 -83 91q-25 40 -75 40q-76 0 -111 -69q-12 -25 -42 -148q-24 -98 -64 -137q-28 -27 -70 -27q-112 0 -112 141q0 13 2 40t2 40q0 58 -19 83q-65 87 -265 103q-152 9 -303 17q-67 11 -116 33v-50q0 -34 49.5 -69.5t49.5 -72.5q0 -14 -9 -39
t-9 -38q0 -10 69 -29.5t69 -61.5q0 -12 -7.5 -30t-7.5 -22q0 -8 57.5 -24.5t57.5 -64.5q0 -9 -2 -29q152 -10 320 -88q-5 -58 -68 -174q-58 -107 -105 -161q-53 -61 -142 -87q-82 -20 -164 -39q-36 -11 -36 -29q0 -8 35 -13q41 -5 41 -42q0 -14 -10.5 -37t-10.5 -24
q0 -7 8 -7q7 0 19.5 2.5t19.5 2.5q43 0 49.5 -39t18.5 -39q9 0 30 10t37 10q33 0 49 -34q10 -21 19 -43q6 0 25 16t38 16q22 0 34 -15.5t23 -31.5q27 44 40 138q18 137 20 146q25 107 278 107q105 0 195 98q86 94 92 201q1 17 1 46q0 32 -34 276q-3 22 -3 35q0 83 120 122z
M1519 1005q0 -27 -27 -27t-27 27t27 27t27 -27z" />
    <glyph glyph-name="glyph226" horiz-adv-x="1024" 
 />
  </font>
</defs>
</svg>
